<?xml version="1.0" encoding="utf-8"?>
<!-- Generator: Adobe Illustrator 15.0.0, SVG Export Plug-In . SVG Version: 6.00 Build 0)  -->
<!DOCTYPE svg PUBLIC "-//W3C//DTD SVG 1.1//EN" "http://www.w3.org/Graphics/SVG/1.1/DTD/svg11.dtd">
<svg version="1.1" id="Ebene_1" xmlns="http://www.w3.org/2000/svg" xmlns:xlink="http://www.w3.org/1999/xlink" x="0px" y="0px"
	 width="825px" height="825px" viewBox="0 0 825 825" enable-background="new 0 0 825 825" xml:space="preserve">
<g id="Ebene_1_5_">
	<g id="Ebene_2_9_">
		<path fill="none" stroke="#FF5D59" stroke-width="5" stroke-miterlimit="10" d="M459.799,397.854
			c0,26.127-21.176,47.299-47.301,47.299s-47.297-21.172-47.297-47.299s21.172-47.299,47.297-47.299
			S459.799,371.729,459.799,397.854z"/>
	</g>
</g>
<path fill="#FF5D59" d="M409.896,381.536c0-2.852,1.426-4.092,3.969-4.092c2.604,0,4.029,1.24,4.029,4.092
	c0,2.418-1.426,3.905-4.029,3.905C411.322,385.441,409.896,383.954,409.896,381.536z M417.213,416.565
	c0,1.859-1.488,3.348-3.348,3.348c-1.86,0-3.349-1.488-3.349-3.348v-22.442c0-1.86,1.488-3.349,3.349-3.349
	c1.859,0,3.348,1.488,3.348,3.349V416.565z"/>
</svg>
