<?xml version="1.0" encoding="UTF-8" standalone="no"?>
<!-- Generator: Adobe Illustrator 15.0.0, SVG Export Plug-In . SVG Version: 6.00 Build 0)  -->

<svg
   xmlns:dc="http://purl.org/dc/elements/1.1/"
   xmlns:cc="http://creativecommons.org/ns#"
   xmlns:rdf="http://www.w3.org/1999/02/22-rdf-syntax-ns#"
   xmlns:svg="http://www.w3.org/2000/svg"
   xmlns="http://www.w3.org/2000/svg"
   xmlns:sodipodi="http://sodipodi.sourceforge.net/DTD/sodipodi-0.dtd"
   xmlns:inkscape="http://www.inkscape.org/namespaces/inkscape"
   version="1.1"
   id="Ebene_1"
   x="0px"
   y="0px"
   width="99.598"
   height="99.598"
   viewBox="0 0 99.598 99.598"
   enable-background="new 0 0 825 825"
   xml:space="preserve"
   sodipodi:docname="about.svg"
   inkscape:version="0.92.1 r15371"><metadata
     id="metadata13"><rdf:RDF><cc:Work
         rdf:about=""><dc:format>image/svg+xml</dc:format><dc:type
           rdf:resource="http://purl.org/dc/dcmitype/StillImage" /></cc:Work></rdf:RDF></metadata><defs
     id="defs11" /><sodipodi:namedview
     pagecolor="#ffffff"
     bordercolor="#666666"
     borderopacity="1"
     objecttolerance="10"
     gridtolerance="10"
     guidetolerance="10"
     inkscape:pageopacity="0"
     inkscape:pageshadow="2"
     inkscape:window-width="640"
     inkscape:window-height="480"
     id="namedview9"
     showgrid="false"
     inkscape:zoom="0.28606061"
     inkscape:cx="49.799"
     inkscape:cy="35.153"
     inkscape:window-x="0"
     inkscape:window-y="0"
     inkscape:window-maximized="0"
     inkscape:current-layer="Ebene_1" /><g
     id="Ebene_1_5_"
     transform="translate(-362.701,-348.055)"><g
       id="Ebene_2_9_"><path
         stroke-miterlimit="10"
         d="m 459.799,397.854 c 0,26.127 -21.176,47.299 -47.301,47.299 -26.125,0 -47.297,-21.172 -47.297,-47.299 0,-26.127 21.172,-47.299 47.297,-47.299 26.125,0 47.301,21.174 47.301,47.299 z"
         id="path2"
         inkscape:connector-curvature="0"
         style="fill:none;stroke:#ff5d59;stroke-width:5;stroke-miterlimit:10" /></g></g><path
     d="m 47.195,33.481 c 0,-2.852 1.426,-4.092 3.969,-4.092 2.604,0 4.029,1.24 4.029,4.092 0,2.418 -1.426,3.905 -4.029,3.905 -2.543,0 -3.969,-1.487 -3.969,-3.905 z m 7.317,35.029 c 0,1.859 -1.488,3.348 -3.348,3.348 -1.86,0 -3.349,-1.488 -3.349,-3.348 V 46.068 c 0,-1.86 1.488,-3.349 3.349,-3.349 1.859,0 3.348,1.488 3.348,3.349 z"
     id="path6"
     inkscape:connector-curvature="0"
     style="fill:#ff5d59" /></svg>