<?xml version="1.0" encoding="UTF-8" standalone="no"?>
<!-- Generator: Adobe Illustrator 16.0.3, SVG Export Plug-In . SVG Version: 6.00 Build 0)  -->

<svg
   xmlns:dc="http://purl.org/dc/elements/1.1/"
   xmlns:cc="http://creativecommons.org/ns#"
   xmlns:rdf="http://www.w3.org/1999/02/22-rdf-syntax-ns#"
   xmlns:svg="http://www.w3.org/2000/svg"
   xmlns="http://www.w3.org/2000/svg"
   xmlns:sodipodi="http://sodipodi.sourceforge.net/DTD/sodipodi-0.dtd"
   xmlns:inkscape="http://www.inkscape.org/namespaces/inkscape"
   version="1.1"
   x="0px"
   y="0px"
   width="348.1131"
   height="91.539101"
   viewBox="0 0 348.1131 91.539101"
   enable-background="new 0 0 360 99"
   xml:space="preserve"
   id="svg30"
   sodipodi:docname="alle_loeschen_dunkel.svg"
   inkscape:version="0.92.1 r15371"><metadata
     id="metadata36"><rdf:RDF><cc:Work
         rdf:about=""><dc:format>image/svg+xml</dc:format><dc:type
           rdf:resource="http://purl.org/dc/dcmitype/StillImage" /><dc:title></dc:title></cc:Work></rdf:RDF></metadata><defs
     id="defs34" /><sodipodi:namedview
     pagecolor="#ffffff"
     bordercolor="#666666"
     borderopacity="1"
     objecttolerance="10"
     gridtolerance="10"
     guidetolerance="10"
     inkscape:pageopacity="0"
     inkscape:pageshadow="2"
     inkscape:window-width="640"
     inkscape:window-height="480"
     id="namedview32"
     showgrid="false"
     fit-margin-top="0"
     fit-margin-left="0"
     fit-margin-right="0"
     fit-margin-bottom="0"
     inkscape:zoom="0.97222222"
     inkscape:cx="174.26955"
     inkscape:cy="47.76955"
     inkscape:window-x="0"
     inkscape:window-y="0"
     inkscape:window-maximized="0"
     inkscape:current-layer="svg30" /><g
     id="Ebene_1"
     transform="translate(-5.7304499,-5.7304499)" /><g
     id="Ebene_2"
     transform="translate(-5.7304499,-5.7304499)"><path
       stroke-miterlimit="10"
       d="M 9,81.674 C 9,88.48 13.586,94 19.244,94 h 321.083 c 5.658,0 10.247,-5.52 10.247,-12.326 V 21.326 C 350.574,14.52 345.985,9 340.327,9 H 19.244 C 13.586,9 9,14.52 9,21.326 Z"
       id="path3"
       inkscape:connector-curvature="0"
       style="fill:none;stroke:#353535;stroke-width:6.53910017;stroke-miterlimit:10" /><g
       id="g27"><path
         d="m 43.191,47.921 c -0.619,0.683 -1.054,0.868 -1.611,0.868 -0.992,0 -1.799,-0.807 -1.799,-1.798 0,-0.435 0.125,-0.744 0.311,-1.054 1.736,-2.729 5.084,-4.898 10.291,-4.898 7.191,0 11.16,4.216 11.16,10.539 v 17.05 c 0,1.054 -0.868,1.922 -1.922,1.922 -1.055,0 -1.922,-0.868 -1.922,-1.922 v -2.231 c -1.551,2.913 -5.146,4.463 -8.865,4.463 -6.572,0 -10.727,-3.162 -10.727,-8.865 0,-5.455 4.154,-8.742 10.85,-8.742 h 8.742 v -1.674 c 0,-4.215 -2.791,-6.818 -7.316,-6.818 -3.285,-0.001 -5.27,0.99 -7.192,3.16 z m 14.508,11.407 v -2.604 h -8.742 c -4.029,0 -6.819,1.674 -6.819,5.27 0,3.224 2.231,5.27 7.067,5.27 4.34,0 8.494,-2.666 8.494,-7.936 z"
         id="path5"
         inkscape:connector-curvature="0"
         style="fill:#353535" /><path
         d="m 72.951,27.896 v 35.399 c 0,2.479 0.807,3.534 2.48,3.534 0.991,0 1.859,0.806 1.859,1.859 0,1.055 -0.868,1.86 -1.859,1.86 -4.154,0 -6.448,-2.479 -6.448,-7.254 V 27.896 c 0,-1.055 0.931,-1.984 1.983,-1.984 1.117,0 1.985,0.93 1.985,1.984 z"
         id="path7"
         inkscape:connector-curvature="0"
         style="fill:#353535" /><path
         d="m 86.529,27.896 v 35.399 c 0,2.479 0.806,3.534 2.479,3.534 0.991,0 1.86,0.806 1.86,1.859 0,1.055 -0.869,1.86 -1.86,1.86 -4.153,0 -6.448,-2.479 -6.448,-7.254 V 27.896 c 0,-1.055 0.93,-1.984 1.984,-1.984 1.116,0 1.985,0.93 1.985,1.984 z"
         id="path9"
         inkscape:connector-curvature="0"
         style="fill:#353535" /><path
         d="m 107.05,41.039 c 9.919,0 11.841,7.874 11.841,12.09 0,1.798 0,3.968 -2.479,3.968 H 98.309 c 0,6.138 3.533,10.104 9.361,10.104 3.596,0 5.703,-1.363 7.439,-2.665 0.372,-0.248 0.62,-0.372 1.116,-0.372 0.991,0 1.798,0.807 1.798,1.798 0,0.683 -0.311,1.054 -0.682,1.426 -0.93,0.931 -4.154,3.472 -9.672,3.472 -8.246,0 -13.391,-4.525 -13.391,-14.941 10e-4,-9.548 4.712,-14.88 12.772,-14.88 z m 0,3.596 c -5.394,0 -8.369,3.473 -8.741,8.99 h 16.677 c -0.001,-4.464 -1.55,-8.99 -7.936,-8.99 z"
         id="path11"
         inkscape:connector-curvature="0"
         style="fill:#353535" /><path
         d="m 143.752,27.896 v 35.399 c 0,2.479 0.807,3.534 2.48,3.534 0.992,0 1.859,0.806 1.859,1.859 0,1.055 -0.867,1.86 -1.859,1.86 -4.154,0 -6.447,-2.479 -6.447,-7.254 V 27.896 c 0,-1.055 0.93,-1.984 1.984,-1.984 1.116,0 1.983,0.93 1.983,1.984 z"
         id="path13"
         inkscape:connector-curvature="0"
         style="fill:#353535" /><path
         d="m 177.541,55.918 c 0,10.168 -4.959,14.941 -13.018,14.941 -7.998,0 -13.02,-4.773 -13.02,-14.941 0,-10.167 5.021,-14.879 13.02,-14.879 8.059,0 13.018,4.712 13.018,14.879 z m -4.029,0 c 0,-7.811 -3.285,-11.283 -8.988,-11.283 -5.705,0 -8.99,3.473 -8.99,11.283 0,7.936 3.285,11.346 8.99,11.346 5.703,0 8.988,-3.41 8.988,-11.346 z M 157.703,34.654 c 0,-1.551 0.744,-2.356 2.232,-2.356 1.486,0 2.23,0.806 2.23,2.356 0,1.549 -0.744,2.293 -2.23,2.293 -1.488,0 -2.232,-0.744 -2.232,-2.293 z m 9.733,0 c 0,-1.551 0.744,-2.356 2.232,-2.356 1.488,0 2.232,0.806 2.232,2.356 0,1.549 -0.744,2.293 -2.232,2.293 -1.488,0 -2.232,-0.744 -2.232,-2.293 z"
         id="path15"
         inkscape:connector-curvature="0"
         style="fill:#353535" /><path
         d="m 187.027,48.604 c 0,6.51 16.307,4.092 16.307,14.011 0,5.642 -4.65,8.184 -10.541,8.184 -5.084,0 -8.988,-2.418 -10.602,-4.464 -0.309,-0.434 -0.434,-0.744 -0.434,-1.178 0,-0.992 0.807,-1.799 1.799,-1.799 0.371,0 0.867,0.125 1.363,0.621 1.922,1.922 4.402,3.037 7.873,3.037 3.535,0 6.572,-1.178 6.572,-4.401 0,-6.386 -16.305,-3.844 -16.305,-14.011 0,-5.146 4.215,-7.502 9.484,-7.502 4.217,0 7.502,1.426 9.424,3.968 0.186,0.247 0.434,0.62 0.434,1.178 0,0.992 -0.805,1.798 -1.797,1.798 -0.311,0 -0.807,-0.063 -1.303,-0.559 -1.674,-1.611 -3.533,-2.604 -6.758,-2.604 -2.787,0 -5.516,0.868 -5.516,3.721 z"
         id="path17"
         inkscape:connector-curvature="0"
         style="fill:#353535" /><path
         d="m 220.941,41.039 c 5.518,0 8.557,2.914 9.547,4.277 0.311,0.435 0.436,0.744 0.436,1.179 0,1.054 -0.807,1.798 -1.799,1.798 -0.619,0 -1.055,-0.248 -1.488,-0.744 -0.93,-1.054 -2.604,-2.914 -6.695,-2.914 -5.703,0 -8.742,3.658 -8.742,11.283 0,7.75 3.039,11.346 8.742,11.346 3.596,0 5.766,-1.611 7.191,-2.666 0.434,-0.31 0.744,-0.434 1.178,-0.434 0.992,0 1.799,0.807 1.799,1.798 0,0.558 -0.186,0.992 -0.807,1.55 -1.363,1.116 -4.34,3.348 -9.361,3.348 -7.998,0 -12.771,-4.773 -12.771,-14.941 -0.001,-10.168 4.772,-14.88 12.77,-14.88 z"
         id="path19"
         inkscape:connector-curvature="0"
         style="fill:#353535" /><path
         d="m 260.373,52.013 v 16.554 c 0,1.115 -0.869,1.983 -1.984,1.983 -1.115,0 -1.984,-0.868 -1.984,-1.983 V 52.818 c 0,-4.897 -1.426,-8.245 -7.439,-8.245 -6.137,0 -8.246,3.72 -8.246,8.679 v 15.314 c 0,1.115 -0.867,1.983 -1.982,1.983 -1.117,0 -1.984,-0.868 -1.984,-1.983 v -40.67 c 0,-1.116 0.867,-1.984 1.984,-1.984 1.115,0 1.982,0.868 1.982,1.984 v 17.482 c 1.18,-2.355 4.217,-4.34 8.246,-4.34 9.548,0.001 11.407,5.705 11.407,10.975 z"
         id="path21"
         inkscape:connector-curvature="0"
         style="fill:#353535" /><path
         d="m 278.725,41.039 c 9.92,0 11.842,7.874 11.842,12.09 0,1.798 0,3.968 -2.48,3.968 h -18.104 c 0,6.138 3.535,10.104 9.363,10.104 3.596,0 5.703,-1.363 7.439,-2.665 0.371,-0.248 0.619,-0.372 1.115,-0.372 0.992,0 1.797,0.807 1.797,1.798 0,0.683 -0.309,1.054 -0.682,1.426 -0.93,0.931 -4.152,3.472 -9.67,3.472 -8.246,0 -13.393,-4.525 -13.393,-14.941 10e-4,-9.548 4.714,-14.88 12.773,-14.88 z m 0,3.596 c -5.393,0 -8.369,3.473 -8.742,8.99 h 16.678 c -10e-4,-4.464 -1.55,-8.99 -7.936,-8.99 z"
         id="path23"
         inkscape:connector-curvature="0"
         style="fill:#353535" /><path
         d="m 320.326,52.013 v 16.554 c 0,1.115 -0.869,1.983 -1.984,1.983 -1.115,0 -1.984,-0.868 -1.984,-1.983 V 52.818 c 0,-4.897 -1.426,-8.245 -7.439,-8.245 -6.137,0 -8.246,3.72 -8.246,8.679 v 15.314 c 0,1.115 -0.867,1.983 -1.982,1.983 -1.117,0 -1.984,-0.868 -1.984,-1.983 V 43.395 c 0,-1.115 0.867,-1.983 1.984,-1.983 1.115,0 1.982,0.868 1.982,1.983 v 1.984 c 1.18,-2.355 4.217,-4.34 8.246,-4.34 9.548,0 11.407,5.704 11.407,10.974 z"
         id="path25"
         inkscape:connector-curvature="0"
         style="fill:#353535" /></g></g></svg>