<?xml version="1.0" encoding="UTF-8" standalone="no"?>
<!-- Generator: Adobe Illustrator 15.0.0, SVG Export Plug-In . SVG Version: 6.00 Build 0)  -->

<svg
   xmlns:dc="http://purl.org/dc/elements/1.1/"
   xmlns:cc="http://creativecommons.org/ns#"
   xmlns:rdf="http://www.w3.org/1999/02/22-rdf-syntax-ns#"
   xmlns:svg="http://www.w3.org/2000/svg"
   xmlns="http://www.w3.org/2000/svg"
   xmlns:sodipodi="http://sodipodi.sourceforge.net/DTD/sodipodi-0.dtd"
   xmlns:inkscape="http://www.inkscape.org/namespaces/inkscape"
   version="1.1"
   id="Ebene_1"
   x="0px"
   y="0px"
   width="100.92189"
   height="100.91505"
   viewBox="0 0 100.92189 100.91505"
   enable-background="new 0 0 825 825"
   xml:space="preserve"
   sodipodi:docname="beenden_dunkel.svg"
   inkscape:version="0.92.1 r15371"><metadata
     id="metadata36"><rdf:RDF><cc:Work
         rdf:about=""><dc:format>image/svg+xml</dc:format><dc:type
           rdf:resource="http://purl.org/dc/dcmitype/StillImage" /></cc:Work></rdf:RDF></metadata><defs
     id="defs34" /><sodipodi:namedview
     pagecolor="#ffffff"
     bordercolor="#666666"
     borderopacity="1"
     objecttolerance="10"
     gridtolerance="10"
     guidetolerance="10"
     inkscape:pageopacity="0"
     inkscape:pageshadow="2"
     inkscape:window-width="640"
     inkscape:window-height="480"
     id="namedview32"
     showgrid="false"
     inkscape:zoom="0.28606061"
     inkscape:cx="50.461009"
     inkscape:cy="38.282583"
     inkscape:window-x="0"
     inkscape:window-y="0"
     inkscape:window-maximized="0"
     inkscape:current-layer="Ebene_1" /><g
     id="Ebene_9_1_"
     transform="translate(-362.03899,-349.86754)"><g
       id="Forma_1_5_"><g
         id="g17"><path
           d="m 362.206,400.331 c 0,27.801 22.506,50.309 50.307,50.309 27.804,0 50.31,-22.508 50.31,-50.309 0,-27.803 -22.506,-50.308 -50.31,-50.308 -27.801,0 -50.307,22.507 -50.307,50.308 z m 95.321,0 c 0,24.889 -20.125,45.012 -45.015,45.012 -24.889,0 -45.012,-20.123 -45.012,-45.012 0,-24.89 20.123,-45.012 45.012,-45.012 24.89,0 45.015,20.122 45.015,45.012 z m -65.401,-20.387 c -1.059,1.057 -1.059,2.646 0,3.702 l 16.68,16.685 -16.68,16.68 c -1.059,1.061 -1.059,2.648 0,3.707 1.059,1.061 2.648,1.061 3.707,0 l 16.68,-16.68 16.683,16.68 c 1.059,1.061 2.647,1.061 3.708,0 1.059,-1.057 1.059,-2.646 0,-3.707 l -16.684,-16.68 16.684,-16.685 c 1.059,-1.057 1.059,-2.646 0,-3.702 -1.061,-1.062 -2.649,-1.062 -3.708,0 l -16.683,16.68 -16.68,-16.68 c -1.059,-1.061 -2.648,-1.061 -3.707,0 z"
           id="path15"
           inkscape:connector-curvature="0"
           style="fill:#353535" /></g><g
         id="g27"><g
           id="g25"><path
             d="m 457.357,400.331 c -0.041,15.481 -8.148,30.033 -21.311,38.192 -13.317,8.261 -30.499,8.771 -44.366,1.539 -13.629,-7.106 -22.746,-21.123 -23.893,-36.424 -1.162,-15.492 6.018,-30.724 18.607,-39.785 12.713,-9.153 29.793,-10.858 44.129,-4.612 13.985,6.094 24.022,19.303 26.331,34.352 0.345,2.228 0.498,4.484 0.503,6.738 0,0.217 0.338,0.217 0.338,0 -0.039,-14.984 -7.57,-29.131 -19.984,-37.525 -12.573,-8.498 -29.036,-9.941 -42.969,-4.033 -13.664,5.791 -23.74,18.377 -26.584,32.912 -2.902,14.842 2.012,30.424 12.789,40.994 10.811,10.598 26.577,14.979 41.336,11.777 14.443,-3.133 26.604,-13.566 32.15,-27.221 2.179,-5.355 3.245,-11.13 3.263,-16.904 -0.001,-0.219 -0.339,-0.219 -0.339,0 z"
             id="path19"
             inkscape:connector-curvature="0"
             style="fill:#353535" /><path
             d="m 362.039,400.331 c 0.033,15.016 6.801,29.385 18.369,38.963 11.646,9.641 27.323,13.459 42.127,10.52 14.504,-2.877 27.193,-12.355 34.299,-25.287 7.324,-13.332 8.094,-29.711 2.244,-43.727 -5.656,-13.553 -17.289,-24.113 -31.256,-28.586 -14.479,-4.635 -30.656,-2.301 -43.3,6.096 -12.328,8.189 -20.504,21.695 -22.174,36.383 -0.212,1.869 -0.306,3.755 -0.309,5.638 -0.002,0.217 0.336,0.217 0.336,0 0.037,-15.394 7.197,-30.053 19.308,-39.553 12.295,-9.648 28.803,-12.884 43.874,-8.875 14.629,3.889 26.883,14.577 32.95,28.407 6.285,14.33 5.307,31.233 -2.396,44.82 -7.492,13.217 -20.941,22.422 -35.934,24.758 -15.391,2.397 -31.284,-2.703 -42.493,-13.479 -9.763,-9.388 -15.275,-22.56 -15.31,-36.078 0,-0.219 -0.337,-0.219 -0.335,0 z"
             id="path21"
             inkscape:connector-curvature="0"
             style="fill:#353535" /><path
             d="m 392.007,379.823 c -1.053,1.149 -1.135,2.811 0.004,3.95 0.25,0.25 0.502,0.503 0.752,0.753 1.441,1.44 2.885,2.885 4.326,4.323 3.498,3.498 6.994,6.996 10.492,10.492 0.346,0.346 0.689,0.688 1.035,1.037 0.158,0.155 0.086,-0.187 0.043,-0.142 -0.107,0.104 -0.213,0.211 -0.32,0.318 -1.254,1.256 -2.512,2.512 -3.768,3.768 -3.609,3.609 -7.221,7.222 -10.83,10.832 -0.891,0.89 -2.143,1.832 -2.504,3.082 -0.441,1.521 0.844,3.271 2.393,3.416 0.988,0.096 1.793,-0.289 2.479,-0.975 3.007,-3.006 6.013,-6.012 9.017,-9.016 1.765,-1.767 3.527,-3.529 5.293,-5.293 0.554,-0.553 1.104,-1.107 1.658,-1.658 0.141,-0.143 0.282,-0.283 0.424,-0.424 0.229,-0.23 0.031,0.004 -0.096,-0.123 2.697,2.697 5.395,5.395 8.092,8.092 2.842,2.842 5.684,5.684 8.525,8.523 2.36,2.362 6.125,-0.644 4.354,-3.463 -0.604,-0.962 -1.697,-1.771 -2.489,-2.562 -3.646,-3.646 -7.297,-7.298 -10.943,-10.945 -1.143,-1.141 -2.279,-2.278 -3.42,-3.42 -0.062,-0.062 -0.121,-0.121 -0.186,-0.185 0.152,0.152 -0.092,0.33 0.186,0.056 0.418,-0.418 0.838,-0.838 1.256,-1.256 3.566,-3.568 7.135,-7.138 10.703,-10.703 1.342,-1.343 2.686,-2.687 4.026,-4.026 0.307,-0.306 0.605,-0.597 0.867,-0.939 1.092,-1.432 0.25,-3.375 -1.213,-4.115 -1.739,-0.879 -3.034,0.541 -4.133,1.643 -1.535,1.533 -3.068,3.066 -4.604,4.601 -3.407,3.409 -6.814,6.817 -10.227,10.228 -0.266,0.268 -0.533,0.532 -0.801,0.801 0.121,-0.121 0.322,0.104 0.119,-0.101 -0.148,-0.147 -0.297,-0.295 -0.447,-0.444 -1.361,-1.363 -2.725,-2.728 -4.088,-4.09 -3.555,-3.556 -7.109,-7.109 -10.664,-10.664 -0.439,-0.438 -0.877,-0.877 -1.316,-1.316 -1.151,-1.157 -2.803,-1.146 -3.995,-0.055 -0.162,0.147 0.078,0.385 0.238,0.239 2.004,-1.834 3.627,0.158 4.98,1.513 1.645,1.645 3.291,3.291 4.938,4.936 3.254,3.256 6.51,6.51 9.764,9.766 0.156,0.154 0.312,0.312 0.467,0.467 0.064,0.064 0.175,0.064 0.238,0 5.525,-5.524 11.049,-11.049 16.572,-16.569 1.426,-1.427 3.686,-0.896 4.26,1.088 0.309,1.058 -0.334,1.92 -1.025,2.614 -1.258,1.257 -2.514,2.513 -3.771,3.769 -3.608,3.611 -7.221,7.224 -10.832,10.832 -0.576,0.578 -1.156,1.156 -1.733,1.733 -0.063,0.064 -0.063,0.175 0,0.238 5.522,5.525 11.05,11.049 16.572,16.572 1.424,1.424 0.896,3.686 -1.088,4.26 -1.059,0.308 -1.922,-0.334 -2.618,-1.026 -1.256,-1.257 -2.512,-2.515 -3.768,-3.769 -3.611,-3.613 -7.222,-7.223 -10.832,-10.832 -0.578,-0.58 -1.156,-1.156 -1.736,-1.736 -0.064,-0.063 -0.172,-0.063 -0.238,0 -5.522,5.525 -11.047,11.05 -16.569,16.572 -1.427,1.426 -3.687,0.896 -4.261,-1.088 -0.307,-1.059 0.334,-1.922 1.029,-2.617 1.254,-1.254 2.512,-2.512 3.768,-3.766 3.609,-3.611 7.222,-7.223 10.83,-10.832 0.578,-0.578 1.156,-1.156 1.734,-1.736 0.066,-0.063 0.066,-0.172 0,-0.237 -5.523,-5.522 -11.047,-11.05 -16.57,-16.572 -1.041,-1.039 -1.116,-2.478 -0.108,-3.576 0.144,-0.163 -0.094,-0.403 -0.241,-0.243 z"
             id="path23"
             inkscape:connector-curvature="0"
             style="fill:#353535" /></g></g></g></g></svg>