<?xml version="1.0" encoding="utf-8"?>
<!-- Generator: Adobe Illustrator 15.0.0, SVG Export Plug-In . SVG Version: 6.00 Build 0)  -->
<!DOCTYPE svg PUBLIC "-//W3C//DTD SVG 1.1//EN" "http://www.w3.org/Graphics/SVG/1.1/DTD/svg11.dtd">
<svg version="1.1" id="Ebene_1" xmlns="http://www.w3.org/2000/svg" xmlns:xlink="http://www.w3.org/1999/xlink" x="0px" y="0px"
	 width="825px" height="825px" viewBox="0 0 825 825" enable-background="new 0 0 825 825" xml:space="preserve">
<g id="Ebene_9">
	<g id="Forma_1_16_">
		<g>
			<path fill="#E6EBE0" d="M362.206,400.331c0,27.801,22.506,50.309,50.307,50.309c27.804,0,50.309-22.508,50.309-50.309
				c0-27.803-22.505-50.308-50.309-50.308C384.712,350.023,362.206,372.53,362.206,400.331z M457.527,400.331
				c0,24.889-20.125,45.012-45.014,45.012c-24.889,0-45.012-20.123-45.012-45.012c0-24.89,20.123-45.012,45.012-45.012
				C437.402,355.319,457.527,375.441,457.527,400.331z M392.126,379.944c-1.059,1.057-1.059,2.646,0,3.702l16.68,16.685
				l-16.68,16.68c-1.059,1.061-1.059,2.648,0,3.707c1.059,1.061,2.648,1.061,3.707,0l16.68-16.68l16.683,16.68
				c1.059,1.061,2.647,1.061,3.708,0c1.059-1.057,1.059-2.646,0-3.707l-16.684-16.68l16.684-16.685c1.059-1.057,1.059-2.646,0-3.702
				c-1.061-1.062-2.649-1.062-3.708,0l-16.683,16.68l-16.68-16.68C394.774,378.883,393.185,378.883,392.126,379.944z"/>
		</g>
		<g>
			<g>
				<path fill="#E6EBE0" d="M457.357,400.331c-0.041,15.481-8.148,30.033-21.31,38.192c-13.317,8.261-30.499,8.771-44.366,1.539
					c-13.629-7.106-22.746-21.123-23.893-36.424c-1.162-15.492,6.018-30.724,18.607-39.785c12.713-9.153,29.793-10.858,44.129-4.612
					c13.985,6.094,24.022,19.303,26.331,34.352C457.199,395.821,457.351,398.077,457.357,400.331c0,0.217,0.338,0.217,0.338,0
					c-0.039-14.984-7.57-29.131-19.984-37.525c-12.573-8.498-29.036-9.941-42.969-4.033c-13.664,5.791-23.74,18.377-26.584,32.912
					c-2.902,14.842,2.012,30.424,12.789,40.994c10.811,10.598,26.577,14.979,41.336,11.777c14.443-3.133,26.603-13.566,32.15-27.221
					c2.18-5.355,3.246-11.13,3.264-16.904C457.695,400.112,457.357,400.112,457.357,400.331z"/>
				<path fill="#E6EBE0" d="M362.039,400.331c0.033,15.016,6.801,29.385,18.369,38.963c11.646,9.641,27.323,13.459,42.127,10.52
					c14.504-2.877,27.193-12.355,34.298-25.287c7.324-13.332,8.094-29.711,2.244-43.727c-5.656-13.553-17.289-24.113-31.255-28.586
					c-14.479-4.635-30.656-2.301-43.3,6.096c-12.328,8.189-20.504,21.695-22.174,36.383
					C362.136,396.562,362.042,398.448,362.039,400.331c-0.002,0.217,0.336,0.217,0.336,0c0.037-15.394,7.197-30.053,19.308-39.553
					c12.295-9.648,28.803-12.884,43.874-8.875c14.629,3.889,26.882,14.577,32.951,28.407c6.285,14.33,5.307,31.233-2.396,44.82
					c-7.492,13.217-20.941,22.422-35.933,24.758c-15.391,2.397-31.284-2.703-42.493-13.479c-9.763-9.388-15.275-22.56-15.31-36.078
					C362.374,400.112,362.037,400.112,362.039,400.331z"/>
				<path fill="#E6EBE0" d="M392.007,379.823c-1.053,1.149-1.135,2.811,0.004,3.95c0.25,0.25,0.502,0.503,0.752,0.753
					c1.441,1.44,2.885,2.885,4.326,4.323c3.498,3.498,6.994,6.996,10.492,10.492c0.346,0.346,0.689,0.688,1.035,1.037
					c0.158,0.155,0.086-0.187,0.043-0.142c-0.107,0.104-0.213,0.211-0.32,0.318c-1.254,1.256-2.512,2.512-3.768,3.768
					c-3.609,3.609-7.221,7.222-10.83,10.832c-0.891,0.89-2.143,1.832-2.504,3.082c-0.441,1.521,0.844,3.271,2.393,3.416
					c0.988,0.096,1.793-0.289,2.479-0.975c3.007-3.006,6.013-6.012,9.017-9.016c1.765-1.767,3.527-3.529,5.293-5.293
					c0.554-0.553,1.104-1.107,1.658-1.658c0.141-0.143,0.282-0.283,0.424-0.424c0.229-0.23,0.031,0.004-0.096-0.123
					c2.697,2.697,5.395,5.395,8.092,8.092c2.842,2.842,5.684,5.684,8.525,8.523c2.36,2.362,6.125-0.644,4.354-3.463
					c-0.604-0.962-1.697-1.771-2.489-2.562c-3.646-3.646-7.297-7.298-10.943-10.945c-1.143-1.141-2.279-2.278-3.42-3.42
					c-0.062-0.062-0.121-0.121-0.186-0.185c0.152,0.152-0.092,0.33,0.186,0.056c0.418-0.418,0.838-0.838,1.256-1.256
					c3.566-3.568,7.135-7.138,10.703-10.703c1.342-1.343,2.686-2.687,4.026-4.026c0.307-0.306,0.605-0.597,0.867-0.939
					c1.092-1.432,0.25-3.375-1.213-4.115c-1.739-0.879-3.034,0.541-4.133,1.643c-1.535,1.533-3.068,3.066-4.604,4.601
					c-3.407,3.409-6.814,6.817-10.227,10.228c-0.266,0.268-0.533,0.532-0.801,0.801c0.121-0.121,0.322,0.104,0.119-0.101
					c-0.148-0.147-0.297-0.295-0.447-0.444c-1.361-1.363-2.725-2.728-4.088-4.09c-3.555-3.556-7.109-7.109-10.664-10.664
					c-0.439-0.438-0.877-0.877-1.316-1.316C394.851,378.721,393.199,378.732,392.007,379.823c-0.162,0.147,0.078,0.385,0.238,0.239
					c2.004-1.834,3.627,0.158,4.98,1.513c1.645,1.645,3.291,3.291,4.938,4.936c3.254,3.256,6.51,6.51,9.764,9.766
					c0.156,0.154,0.312,0.312,0.467,0.467c0.064,0.064,0.175,0.064,0.238,0c5.525-5.524,11.049-11.049,16.572-16.569
					c1.426-1.427,3.686-0.896,4.26,1.088c0.309,1.058-0.334,1.92-1.025,2.614c-1.258,1.257-2.514,2.513-3.771,3.769
					c-3.608,3.611-7.221,7.224-10.832,10.832c-0.576,0.578-1.156,1.156-1.733,1.733c-0.063,0.064-0.063,0.175,0,0.238
					c5.522,5.525,11.05,11.049,16.572,16.572c1.424,1.424,0.896,3.686-1.088,4.26c-1.059,0.308-1.922-0.334-2.618-1.026
					c-1.256-1.257-2.512-2.515-3.768-3.769c-3.611-3.613-7.222-7.223-10.832-10.832c-0.578-0.58-1.156-1.156-1.736-1.736
					c-0.064-0.063-0.172-0.063-0.238,0c-5.522,5.525-11.047,11.05-16.569,16.572c-1.427,1.426-3.687,0.896-4.261-1.088
					c-0.307-1.059,0.334-1.922,1.029-2.617c1.254-1.254,2.512-2.512,3.768-3.766c3.609-3.611,7.222-7.223,10.83-10.832
					c0.578-0.578,1.156-1.156,1.734-1.736c0.066-0.063,0.066-0.172,0-0.237c-5.523-5.522-11.047-11.05-16.57-16.572
					c-1.041-1.039-1.116-2.478-0.108-3.576C392.392,379.903,392.154,379.663,392.007,379.823z"/>
			</g>
		</g>
	</g>
</g>
</svg>
