<?xml version="1.0" encoding="utf-8"?>
<!-- Generator: Adobe Illustrator 15.0.0, SVG Export Plug-In . SVG Version: 6.00 Build 0)  -->
<!DOCTYPE svg PUBLIC "-//W3C//DTD SVG 1.1//EN" "http://www.w3.org/Graphics/SVG/1.1/DTD/svg11.dtd">
<svg version="1.1" id="Ebene_1" xmlns="http://www.w3.org/2000/svg" xmlns:xlink="http://www.w3.org/1999/xlink" x="0px" y="0px"
	 width="825px" height="825px" viewBox="0 0 825 825" enable-background="new 0 0 825 825" xml:space="preserve">
<g id="Ebene_1_4_">
	<g id="Ebene_12_1_">
		<g id="Forma_1_12_">
			<g>
				<path fill="#FF5D59" d="M452.128,388.172c-0.129-0.257-0.244-0.626-0.499-0.882c-1.751-2.263-4.629-3.516-7.391-3.387h-0.5
					c-0.628,0-2.637-0.244-3.889-2.379c-0.127,0-0.127-0.127-0.127-0.127c-0.51-0.881-1.009-1.623-1.508-2.506
					c-0.129,0-0.129-0.129-0.129-0.129c-1.381-2.504-0.252-4.521-0.129-4.638c0.129-0.117,0.258-0.245,0.258-0.371
					c1.506-2.508,1.754-5.51,0.754-8.271c-0.128-0.384-0.242-0.627-0.501-0.882c-1.634-1.507-3.386-3.004-5.267-4.385
					c-0.258-0.115-0.51-0.242-0.881-0.371c-2.878-0.625-5.885,0.256-8.02,2.136c-0.118,0-0.245,0.126-0.37,0.254
					c0,0-1.011,0.997-2.765,0.997c-0.497,0-1.125-0.115-1.754-0.369c-0.871-0.374-1.877-0.742-2.875-0.999
					c-2.637-1.124-3.008-3.247-3.008-3.501c0-0.244-0.129-0.371-0.129-0.498c-0.371-2.879-2.123-5.383-4.756-6.764
					c-0.258-0.127-0.512-0.256-0.881-0.256c-2.509-0.128-4.26-0.128-6.768,0c-0.256,0-0.627,0.129-0.883,0.256
					c-2.619,1.381-4.385,4.014-4.756,6.891c-0.129,0.114-0.129,0.242-0.129,0.371c0,0.242-0.371,2.504-3.006,3.501
					c-0.869,0.243-1.879,0.625-2.877,0.999c-0.625,0.127-1.253,0.254-1.752,0.254c-1.637,0-2.764-0.996-2.764-0.996
					c-0.115-0.129-0.242-0.129-0.371-0.257c-2.123-1.88-5.141-2.761-8.017-2.136c-0.256,0-0.63,0.117-0.884,0.373
					c-1.879,1.251-3.643,2.762-5.268,4.385c-0.244,0.254-0.371,0.626-0.498,0.881c-1.127,2.762-0.756,5.766,0.752,8.27
					c0.13,0.118,0.13,0.244,0.256,0.372c0.128,0.257,1.254,2.134-0.126,4.64c-0.13,0-0.13,0.127-0.13,0.127
					c-0.625,0.881-1.136,1.752-1.508,2.506c-0.129,0-0.129,0.128-0.129,0.128c-1.25,2.251-3.259,2.378-3.887,2.378h-0.498
					c-2.75-0.115-5.512,1.138-7.393,3.388c-0.245,0.255-0.372,0.511-0.499,0.882c-0.627,2.378-0.997,4.768-1.253,7.018
					c0,0.371,0,0.625,0.128,0.996c0.882,2.634,3.134,4.756,5.766,5.635c0.244,0,0.374,0.13,0.501,0.13c0,0,2.379,0.628,2.878,3.503
					c0,0,0,0,0,0.128c0.126,0.998,0.243,1.995,0.497,2.878c0,0.129,0,0.129,0,0.129c0.371,2.877-1.379,4.258-1.506,4.383
					c-0.115,0-0.244,0.13-0.371,0.257c-2.124,1.636-3.506,4.382-3.506,7.146c0,0.369,0.127,0.627,0.256,0.996
					c1.126,2.263,2.381,4.387,3.761,6.391c0.127,0.384,0.384,0.628,0.751,0.757c2.381,1.38,5.386,1.496,7.893,0.499
					c0.244,0,0.373,0,0.5-0.129c0,0,0.626-0.255,1.506-0.255c1.127,0,2.137,0.371,3.135,1.122c0.743,0.628,1.497,1.254,2.252,1.88
					l0.129,0.129c2.123,1.88,1.623,4.001,1.623,4.257c-0.127,0.242-0.127,0.371-0.127,0.498c-0.627,2.635,0.127,5.512,1.754,7.646
					c0.255,0.254,0.509,0.498,0.881,0.627c2.264,1.123,4.768,2.005,7.146,2.632c0.372,0.13,0.754,0.13,1.126,0
					c2.635-0.511,5.012-2.263,6.267-4.64c0.127-0.116,0.127-0.244,0.256-0.371c0-0.115,1.007-2.25,4.014-2.25h3.133
					c2.891,0.115,3.887,1.994,4.018,2.25c0.126,0.115,0.126,0.242,0.253,0.371c1.253,2.391,3.63,4.141,6.267,4.64h0.498
					c0.13,0,0.374,0,0.209-0.269c2.391-0.754,4.899-1.634,7.15-2.634c0.383-0.126,0.625-0.368,0.881-0.624
					c1.753-2.008,2.38-4.756,1.882-7.389c0-0.256,0-0.498-0.129-0.756c-0.129-0.742-0.129-2.503,1.749-4.13
					c0-0.128,0.13-0.128,0.13-0.128c0.87-0.623,1.627-1.252,2.251-1.879c0.129,0,0.129,0,0.129,0
					c0.869-0.755,1.881-1.124,3.005-1.124c0.882,0,1.509,0.255,1.509,0.255c0.244,0,0.369,0.127,0.498,0.127
					c1.012,0.371,2.264,0.627,3.391,0.627c1.633,0,3.133-0.373,4.514-1.125c0.252-0.254,0.498-0.501,0.753-0.753
					c1.509-2.009,2.763-4.259,3.763-6.394c0.127-0.244,0.254-0.625,0.254-0.996c0-2.761-1.371-5.398-3.506-7.148
					c-0.115-0.115-0.242-0.24-0.369-0.369c0,0-1.879-1.379-1.51-3.887v-0.125c0.244-0.873,0.371-1.879,0.498-2.877v-0.13
					c0.501-2.878,2.622-3.628,2.878-3.628c0.245,0,0.372,0,0.501-0.13c2.634-0.882,4.767-2.878,5.766-5.638
					c0.129-0.37,0.129-0.627,0.129-0.997C453.129,392.812,452.754,390.423,452.128,388.172z M445.305,396.79
					c-0.244,0.129-0.371,0.129-0.5,0.258c-1.879,0.75-4.76,2.761-5.639,6.888v0.127c0,0.128,0,0.128,0,0.257
					c-0.129,0.995-0.244,1.996-0.501,2.878v0.252c-0.622,4.142,1.38,7.019,3.007,8.4c0.115,0.116,0.242,0.241,0.37,0.368
					c0.999,0.756,1.755,2.01,1.882,3.26c-0.754,1.627-1.764,3.249-2.764,4.758c-0.498,0.242-1.125,0.371-1.752,0.371
					s-1.254-0.117-1.879-0.371c-0.129,0-0.371-0.129-0.501-0.129c-0.628-0.24-1.624-0.498-2.876-0.498
					c-2.135,0-4.143,0.756-5.895,2.137c0,0.125-0.129,0.125-0.129,0.125L428,426c-0.742,0.627-1.369,1.251-2.251,1.878l-0.128,0.131
					l-0.127,0.124c-3.132,2.889-3.508,6.392-3.132,8.398c0,0.129,0.125,0.37,0.125,0.5c0.384,1.251,0.13,2.507-0.501,3.631
					c-1.634,0.755-3.513,1.38-5.266,1.877c-1.254-0.368-2.262-1.25-2.762-2.378c0-0.241-0.13-0.369-0.257-0.498
					c-1.007-1.752-3.645-4.255-7.775-4.384h-3.259c0,0,0,0-0.129,0c-4.27,0.129-6.775,2.632-7.775,4.384
					c-0.127,0.244-0.127,0.373-0.256,0.498c-0.512,1.128-1.508,2.01-2.764,2.378c-1.761-0.498-3.516-1.122-5.268-1.877
					c-0.625-1.124-0.882-2.38-0.395-3.761c0.127-0.124,0.127-0.37,0.127-0.498c0.373-2.006,0-5.635-3.133-8.396l-0.127-0.127
					l-0.129-0.131c-0.87-0.625-1.625-1.252-2.25-1.879c-0.129,0-0.129-0.125-0.257-0.125c-0.127,0-0.127,0-0.127,0
					c-1.766-1.379-3.76-2.137-5.897-2.137c-1.251,0-2.25,0.246-2.876,0.498c-0.129,0-0.374,0-0.5,0.129
					c-1.254,0.627-2.634,0.627-3.761,0.129c-1.008-1.498-1.879-3.135-2.763-4.758c0.13-1.252,0.755-2.506,1.882-3.259
					c0.115-0.116,0.242-0.243,0.371-0.369c1.625-1.38,3.633-4.271,3.005-8.399v-0.26c-0.244-0.994-0.372-1.877-0.499-2.871
					c0-0.129,0-0.129,0-0.258v-0.128c-0.881-4.131-3.76-6.135-5.639-6.892c-0.129-0.123-0.371-0.252-0.5-0.252
					c-1.381-0.369-2.379-1.253-3.006-2.505c0.127-1.636,0.511-3.389,0.883-5.142c0.996-1.008,2.252-1.506,3.631-1.379h0.5
					c1.379,0,5.141-0.498,7.646-4.514c0-0.127,0.13-0.127,0.13-0.254c0.511-0.882,1.009-1.625,1.507-2.507l0.127-0.127v-0.128
					c2.009-3.632,1.126-7.145,0.13-8.898c-0.13-0.241-0.13-0.369-0.257-0.498c-0.754-1.123-0.996-2.506-0.625-3.885
					c1.252-1.123,2.504-2.263,3.887-3.26c1.379-0.256,2.761,0.255,3.758,1.254c0.244,0.115,0.373,0.242,0.5,0.369
					c0.882,0.754,2.762,2.008,5.641,2.008c1.125,0,2.135-0.129,3.133-0.498h0.254c0.882-0.373,1.883-0.742,2.764-0.998h0.129
					c0.127,0,0.127,0,0.127,0c4.016-1.498,5.524-4.758,5.896-6.763c0.127-0.128,0.127-0.37,0.127-0.499
					c0.127-1.38,0.881-2.632,2.008-3.387c1.879-0.127,3.133-0.127,5.012,0c1.127,0.755,1.88,2.007,2.01,3.387
					c0,0.129,0.129,0.371,0.129,0.499c0.381,2.005,2.004,5.255,5.895,6.763c0.127,0,0.127,0,0.127,0h0.127
					c0.881,0.244,1.881,0.625,2.763,0.998h0.256c0.996,0.369,2.137,0.498,3.135,0.498c2.878,0,4.758-1.252,4.882-2.135
					c0.246-0.115,0.373-0.242,0.5-0.371c0.996-0.883,2.381-1.381,3.763-1.252c1.378,1.01,2.632,2.135,3.886,3.26
					c0.369,1.381,0.127,2.762-0.627,3.885c-0.13,0.244-0.13,0.371-0.254,0.5c-0.999,1.751-1.882,5.137,0.124,8.895
					c0.13,0,0.13,0.131,0.13,0.131l0.13,0.128c0.511,0.88,1.01,1.634,1.507,2.634l0.127,0.127c2.508,4.014,6.268,4.512,7.648,4.512
					h0.626c1.379-0.127,2.634,0.383,3.631,1.379c0.386,1.637,0.626,3.389,0.881,5.14
					C447.686,395.538,446.558,396.421,445.305,396.79z M404.4,375.146c-13.531,0-24.439,11.146-24.439,24.558
					c0,13.409,10.908,24.427,24.439,24.427c13.53,0,24.438-11.146,24.438-24.555C428.838,386.166,417.931,375.146,404.4,375.146z
					 M404.4,419.493c-10.908,0-19.926-8.783-19.926-19.801c0-11.021,9.018-19.916,19.926-19.916
					c10.906,0,19.924,8.781,19.924,19.799S415.307,419.493,404.4,419.493z"/>
			</g>
		</g>
	</g>
	<g id="Ebene_13_1_">
	</g>
</g>
</svg>
