<?xml version="1.0" encoding="UTF-8" standalone="no"?>
<!-- Generator: Adobe Illustrator 15.0.0, SVG Export Plug-In . SVG Version: 6.00 Build 0)  -->

<svg
   xmlns:dc="http://purl.org/dc/elements/1.1/"
   xmlns:cc="http://creativecommons.org/ns#"
   xmlns:rdf="http://www.w3.org/1999/02/22-rdf-syntax-ns#"
   xmlns:svg="http://www.w3.org/2000/svg"
   xmlns="http://www.w3.org/2000/svg"
   xmlns:sodipodi="http://sodipodi.sourceforge.net/DTD/sodipodi-0.dtd"
   xmlns:inkscape="http://www.inkscape.org/namespaces/inkscape"
   version="1.1"
   id="Ebene_1"
   x="0px"
   y="0px"
   width="98.004997"
   height="96.6595"
   viewBox="0 0 98.004997 96.6595"
   enable-background="new 0 0 825 825"
   xml:space="preserve"
   sodipodi:docname="einstellungen.svg"
   inkscape:version="0.92.1 r15371"><metadata
     id="metadata74"><rdf:RDF><cc:Work
         rdf:about=""><dc:format>image/svg+xml</dc:format><dc:type
           rdf:resource="http://purl.org/dc/dcmitype/StillImage" /></cc:Work></rdf:RDF></metadata><defs
     id="defs72" /><sodipodi:namedview
     pagecolor="#ffffff"
     bordercolor="#666666"
     borderopacity="1"
     objecttolerance="10"
     gridtolerance="10"
     guidetolerance="10"
     inkscape:pageopacity="0"
     inkscape:pageshadow="2"
     inkscape:window-width="640"
     inkscape:window-height="480"
     id="namedview70"
     showgrid="false"
     inkscape:zoom="0.28606061"
     inkscape:cx="57.127"
     inkscape:cy="34.9075"
     inkscape:window-x="0"
     inkscape:window-y="0"
     inkscape:window-maximized="0"
     inkscape:current-layer="Ebene_1" /><g
     id="Ebene_1_4_"
     transform="translate(-355.373,-350.748)"><g
       id="Ebene_12_1_"><g
         id="Forma_1_12_"><g
           id="g63"><path
             d="m 452.128,388.172 c -0.129,-0.257 -0.244,-0.626 -0.499,-0.882 -1.751,-2.263 -4.629,-3.516 -7.391,-3.387 h -0.5 c -0.628,0 -2.637,-0.244 -3.889,-2.379 -0.127,0 -0.127,-0.127 -0.127,-0.127 -0.51,-0.881 -1.009,-1.623 -1.508,-2.506 -0.129,0 -0.129,-0.129 -0.129,-0.129 -1.381,-2.504 -0.252,-4.521 -0.129,-4.638 0.129,-0.117 0.258,-0.245 0.258,-0.371 1.506,-2.508 1.754,-5.51 0.754,-8.271 -0.128,-0.384 -0.242,-0.627 -0.501,-0.882 -1.634,-1.507 -3.386,-3.004 -5.267,-4.385 -0.258,-0.115 -0.51,-0.242 -0.881,-0.371 -2.878,-0.625 -5.885,0.256 -8.02,2.136 -0.118,0 -0.245,0.126 -0.37,0.254 0,0 -1.011,0.997 -2.765,0.997 -0.497,0 -1.125,-0.115 -1.754,-0.369 -0.871,-0.374 -1.877,-0.742 -2.875,-0.999 -2.637,-1.124 -3.008,-3.247 -3.008,-3.501 0,-0.244 -0.129,-0.371 -0.129,-0.498 -0.371,-2.879 -2.123,-5.383 -4.756,-6.764 -0.258,-0.127 -0.512,-0.256 -0.881,-0.256 -2.509,-0.128 -4.26,-0.128 -6.768,0 -0.256,0 -0.627,0.129 -0.883,0.256 -2.619,1.381 -4.385,4.014 -4.756,6.891 -0.129,0.114 -0.129,0.242 -0.129,0.371 0,0.242 -0.371,2.504 -3.006,3.501 -0.869,0.243 -1.879,0.625 -2.877,0.999 -0.625,0.127 -1.253,0.254 -1.752,0.254 -1.637,0 -2.764,-0.996 -2.764,-0.996 -0.115,-0.129 -0.242,-0.129 -0.371,-0.257 -2.123,-1.88 -5.141,-2.761 -8.017,-2.136 -0.256,0 -0.63,0.117 -0.884,0.373 -1.879,1.251 -3.643,2.762 -5.268,4.385 -0.244,0.254 -0.371,0.626 -0.498,0.881 -1.127,2.762 -0.756,5.766 0.752,8.27 0.13,0.118 0.13,0.244 0.256,0.372 0.128,0.257 1.254,2.134 -0.126,4.64 -0.13,0 -0.13,0.127 -0.13,0.127 -0.625,0.881 -1.136,1.752 -1.508,2.506 -0.129,0 -0.129,0.128 -0.129,0.128 -1.25,2.251 -3.259,2.378 -3.887,2.378 h -0.498 c -2.75,-0.115 -5.512,1.138 -7.393,3.388 -0.245,0.255 -0.372,0.511 -0.499,0.882 -0.627,2.378 -0.997,4.768 -1.253,7.018 0,0.371 0,0.625 0.128,0.996 0.882,2.634 3.134,4.756 5.766,5.635 0.244,0 0.374,0.13 0.501,0.13 0,0 2.379,0.628 2.878,3.503 0,0 0,0 0,0.128 0.126,0.998 0.243,1.995 0.497,2.878 0,0.129 0,0.129 0,0.129 0.371,2.877 -1.379,4.258 -1.506,4.383 -0.115,0 -0.244,0.13 -0.371,0.257 -2.124,1.636 -3.506,4.382 -3.506,7.146 0,0.369 0.127,0.627 0.256,0.996 1.126,2.263 2.381,4.387 3.761,6.391 0.127,0.384 0.384,0.628 0.751,0.757 2.381,1.38 5.386,1.496 7.893,0.499 0.244,0 0.373,0 0.5,-0.129 0,0 0.626,-0.255 1.506,-0.255 1.127,0 2.137,0.371 3.135,1.122 0.743,0.628 1.497,1.254 2.252,1.88 l 0.129,0.129 c 2.123,1.88 1.623,4.001 1.623,4.257 -0.127,0.242 -0.127,0.371 -0.127,0.498 -0.627,2.635 0.127,5.512 1.754,7.646 0.255,0.254 0.509,0.498 0.881,0.627 2.264,1.123 4.768,2.005 7.146,2.632 0.372,0.13 0.754,0.13 1.126,0 2.635,-0.511 5.012,-2.263 6.267,-4.64 0.127,-0.116 0.127,-0.244 0.256,-0.371 0,-0.115 1.007,-2.25 4.014,-2.25 h 3.133 c 2.891,0.115 3.887,1.994 4.018,2.25 0.126,0.115 0.126,0.242 0.253,0.371 1.253,2.391 3.63,4.141 6.267,4.64 h 0.498 c 0.13,0 0.374,0 0.209,-0.269 2.391,-0.754 4.899,-1.634 7.15,-2.634 0.383,-0.126 0.625,-0.368 0.881,-0.624 1.753,-2.008 2.38,-4.756 1.882,-7.389 0,-0.256 0,-0.498 -0.129,-0.756 -0.129,-0.742 -0.129,-2.503 1.749,-4.13 0,-0.128 0.13,-0.128 0.13,-0.128 0.87,-0.623 1.627,-1.252 2.251,-1.879 0.129,0 0.129,0 0.129,0 0.869,-0.755 1.881,-1.124 3.005,-1.124 0.882,0 1.509,0.255 1.509,0.255 0.244,0 0.369,0.127 0.498,0.127 1.012,0.371 2.264,0.627 3.391,0.627 1.633,0 3.133,-0.373 4.514,-1.125 0.252,-0.254 0.498,-0.501 0.753,-0.753 1.509,-2.009 2.763,-4.259 3.763,-6.394 0.127,-0.244 0.254,-0.625 0.254,-0.996 0,-2.761 -1.371,-5.398 -3.506,-7.148 -0.115,-0.115 -0.242,-0.24 -0.369,-0.369 0,0 -1.879,-1.379 -1.51,-3.887 v -0.125 c 0.244,-0.873 0.371,-1.879 0.498,-2.877 v -0.13 c 0.501,-2.878 2.622,-3.628 2.878,-3.628 0.245,0 0.372,0 0.501,-0.13 2.634,-0.882 4.767,-2.878 5.766,-5.638 0.129,-0.37 0.129,-0.627 0.129,-0.997 -0.249,-2.377 -0.624,-4.766 -1.25,-7.017 z m -6.823,8.618 c -0.244,0.129 -0.371,0.129 -0.5,0.258 -1.879,0.75 -4.76,2.761 -5.639,6.888 v 0.127 c 0,0.128 0,0.128 0,0.257 -0.129,0.995 -0.244,1.996 -0.501,2.878 v 0.252 c -0.622,4.142 1.38,7.019 3.007,8.4 0.115,0.116 0.242,0.241 0.37,0.368 0.999,0.756 1.755,2.01 1.882,3.26 -0.754,1.627 -1.764,3.249 -2.764,4.758 -0.498,0.242 -1.125,0.371 -1.752,0.371 -0.627,0 -1.254,-0.117 -1.879,-0.371 -0.129,0 -0.371,-0.129 -0.501,-0.129 -0.628,-0.24 -1.624,-0.498 -2.876,-0.498 -2.135,0 -4.143,0.756 -5.895,2.137 0,0.125 -0.129,0.125 -0.129,0.125 L 428,426 c -0.742,0.627 -1.369,1.251 -2.251,1.878 l -0.128,0.131 -0.127,0.124 c -3.132,2.889 -3.508,6.392 -3.132,8.398 0,0.129 0.125,0.37 0.125,0.5 0.384,1.251 0.13,2.507 -0.501,3.631 -1.634,0.755 -3.513,1.38 -5.266,1.877 -1.254,-0.368 -2.262,-1.25 -2.762,-2.378 0,-0.241 -0.13,-0.369 -0.257,-0.498 -1.007,-1.752 -3.645,-4.255 -7.775,-4.384 h -3.259 c 0,0 0,0 -0.129,0 -4.27,0.129 -6.775,2.632 -7.775,4.384 -0.127,0.244 -0.127,0.373 -0.256,0.498 -0.512,1.128 -1.508,2.01 -2.764,2.378 -1.761,-0.498 -3.516,-1.122 -5.268,-1.877 -0.625,-1.124 -0.882,-2.38 -0.395,-3.761 0.127,-0.124 0.127,-0.37 0.127,-0.498 0.373,-2.006 0,-5.635 -3.133,-8.396 l -0.127,-0.127 -0.129,-0.131 c -0.87,-0.625 -1.625,-1.252 -2.25,-1.879 -0.129,0 -0.129,-0.125 -0.257,-0.125 -0.127,0 -0.127,0 -0.127,0 -1.766,-1.379 -3.76,-2.137 -5.897,-2.137 -1.251,0 -2.25,0.246 -2.876,0.498 -0.129,0 -0.374,0 -0.5,0.129 -1.254,0.627 -2.634,0.627 -3.761,0.129 -1.008,-1.498 -1.879,-3.135 -2.763,-4.758 0.13,-1.252 0.755,-2.506 1.882,-3.259 0.115,-0.116 0.242,-0.243 0.371,-0.369 1.625,-1.38 3.633,-4.271 3.005,-8.399 v -0.26 c -0.244,-0.994 -0.372,-1.877 -0.499,-2.871 0,-0.129 0,-0.129 0,-0.258 v -0.128 c -0.881,-4.131 -3.76,-6.135 -5.639,-6.892 -0.129,-0.123 -0.371,-0.252 -0.5,-0.252 -1.381,-0.369 -2.379,-1.253 -3.006,-2.505 0.127,-1.636 0.511,-3.389 0.883,-5.142 0.996,-1.008 2.252,-1.506 3.631,-1.379 h 0.5 c 1.379,0 5.141,-0.498 7.646,-4.514 0,-0.127 0.13,-0.127 0.13,-0.254 0.511,-0.882 1.009,-1.625 1.507,-2.507 l 0.127,-0.127 v -0.128 c 2.009,-3.632 1.126,-7.145 0.13,-8.898 -0.13,-0.241 -0.13,-0.369 -0.257,-0.498 -0.754,-1.123 -0.996,-2.506 -0.625,-3.885 1.252,-1.123 2.504,-2.263 3.887,-3.26 1.379,-0.256 2.761,0.255 3.758,1.254 0.244,0.115 0.373,0.242 0.5,0.369 0.882,0.754 2.762,2.008 5.641,2.008 1.125,0 2.135,-0.129 3.133,-0.498 h 0.254 c 0.882,-0.373 1.883,-0.742 2.764,-0.998 h 0.129 c 0.127,0 0.127,0 0.127,0 4.016,-1.498 5.524,-4.758 5.896,-6.763 0.127,-0.128 0.127,-0.37 0.127,-0.499 0.127,-1.38 0.881,-2.632 2.008,-3.387 1.879,-0.127 3.133,-0.127 5.012,0 1.127,0.755 1.88,2.007 2.01,3.387 0,0.129 0.129,0.371 0.129,0.499 0.381,2.005 2.004,5.255 5.895,6.763 0.127,0 0.127,0 0.127,0 h 0.127 c 0.881,0.244 1.881,0.625 2.763,0.998 h 0.256 c 0.996,0.369 2.137,0.498 3.135,0.498 2.878,0 4.758,-1.252 4.882,-2.135 0.246,-0.115 0.373,-0.242 0.5,-0.371 0.996,-0.883 2.381,-1.381 3.763,-1.252 1.378,1.01 2.632,2.135 3.886,3.26 0.369,1.381 0.127,2.762 -0.627,3.885 -0.13,0.244 -0.13,0.371 -0.254,0.5 -0.999,1.751 -1.882,5.137 0.124,8.895 0.13,0 0.13,0.131 0.13,0.131 l 0.13,0.128 c 0.511,0.88 1.01,1.634 1.507,2.634 l 0.127,0.127 c 2.508,4.014 6.268,4.512 7.648,4.512 h 0.626 c 1.379,-0.127 2.634,0.383 3.631,1.379 0.386,1.637 0.626,3.389 0.881,5.14 -0.619,1.253 -1.747,2.136 -3,2.505 z M 404.4,375.146 c -13.531,0 -24.439,11.146 -24.439,24.558 0,13.409 10.908,24.427 24.439,24.427 13.53,0 24.438,-11.146 24.438,-24.555 0,-13.41 -10.907,-24.43 -24.438,-24.43 z m 0,44.347 c -10.908,0 -19.926,-8.783 -19.926,-19.801 0,-11.021 9.018,-19.916 19.926,-19.916 10.906,0 19.924,8.781 19.924,19.799 0,11.018 -9.017,19.918 -19.924,19.918 z"
             id="path61"
             inkscape:connector-curvature="0"
             style="fill:#ff5d59" /></g></g></g><g
       id="Ebene_13_1_" /></g></svg>