<?xml version="1.0" encoding="utf-8"?>
<!-- Generator: Adobe Illustrator 16.0.3, SVG Export Plug-In . SVG Version: 6.00 Build 0)  -->
<!DOCTYPE svg PUBLIC "-//W3C//DTD SVG 1.1//EN" "http://www.w3.org/Graphics/SVG/1.1/DTD/svg11.dtd">
<svg version="1.1" xmlns="http://www.w3.org/2000/svg" xmlns:xlink="http://www.w3.org/1999/xlink" x="0px" y="0px" width="207px"
	 height="90px" viewBox="0 0 207 90" enable-background="new 0 0 207 90" xml:space="preserve">
<g id="Ebene_1">
</g>
<g id="Ebene_2">
	<g>
		<rect x="-17.5" y="21.333" fill="none" width="242.001" height="47.334"/>
		<path fill="#E6EBE0" d="M43.762,41.047c-1.054,0-1.86-0.805-1.86-1.859c0-1.054,0.806-1.859,1.86-1.859h2.108V33.67
			c0-5.58,3.162-10.664,10.726-10.664c1.054,0,1.86,0.807,1.86,1.86s-0.806,1.86-1.86,1.86c-4.836,0-6.758,2.914-6.758,6.943v3.658
			h5.642c1.054,0,1.86,0.806,1.86,1.859c0,1.055-0.806,1.859-1.86,1.859h-5.642v22.939c0,1.115-0.868,1.984-1.984,1.984
			c-1.116,0-1.984-0.869-1.984-1.984V41.047H43.762z"/>
		<path fill="#E6EBE0" d="M73.148,36.46c9.919,0,11.841,7.874,11.841,12.089c0,1.799,0,3.969-2.479,3.969H64.407
			c0,6.137,3.534,10.104,9.361,10.104c3.596,0,5.704-1.364,7.44-2.665c0.372-0.248,0.62-0.373,1.115-0.373
			c0.992,0,1.798,0.807,1.798,1.799c0,0.682-0.31,1.054-0.682,1.426c-0.93,0.93-4.154,3.472-9.671,3.472
			c-8.246,0-13.391-4.526-13.391-14.941C60.377,41.791,65.089,36.46,73.148,36.46z M73.148,40.056c-5.394,0-8.369,3.472-8.741,8.989
			h16.677C81.084,44.582,79.534,40.056,73.148,40.056z"/>
		<path fill="#E6EBE0" d="M95.096,41.543c1.24-2.852,4.34-4.959,8.618-4.959c1.054,0,1.922,0.867,1.922,1.922
			c0,1.054-0.868,1.922-1.922,1.922c-5.704,0-8.618,3.968-8.618,9.672v13.887c0,1.115-0.867,1.984-1.983,1.984
			s-1.984-0.869-1.984-1.984V38.815c0-1.116,0.868-1.983,1.984-1.983s1.983,0.867,1.983,1.983V41.543z"/>
		<path fill="#E6EBE0" d="M113.076,30.818c0-1.055,0.93-1.984,1.983-1.984c1.116,0,1.984,0.93,1.984,1.984v6.51h4.029
			c1.054,0,1.86,0.806,1.86,1.859c0,1.055-0.807,1.859-1.86,1.859h-4.029v17.111c0,2.666,1.487,4.092,3.596,4.092
			c1.054,0,1.922,0.807,1.922,1.86s-0.868,1.86-1.922,1.86c-4.898,0-7.563-3.287-7.563-7.813V41.047h-2.418
			c-1.055,0-1.86-0.805-1.86-1.859c0-1.054,0.806-1.859,1.86-1.859h2.418V30.818z"/>
		<path fill="#E6EBE0" d="M128.389,28.648c0-1.799,0.868-2.48,2.356-2.48c1.487,0,2.355,0.682,2.355,2.48
			c0,1.488-0.868,2.355-2.355,2.355C129.257,31.004,128.389,30.137,128.389,28.648z M132.729,63.986
			c0,1.115-0.868,1.984-1.983,1.984c-1.116,0-1.984-0.869-1.984-1.984V38.815c0-1.116,0.868-1.983,1.984-1.983
			c1.115,0,1.983,0.867,1.983,1.983V63.986z"/>
		<path fill="#E6EBE0" d="M157.59,38.01c1.054-1.922,2.418-3.348,5.518-3.348c0.992,0,1.798,0.806,1.798,1.798
			c0,0.991-0.806,1.798-1.798,1.798c-1.86,0-2.542,0.93-2.976,1.922c1.426,1.736,2.231,4.029,2.231,6.695
			c0,6.324-4.216,10.416-11.407,10.416c-2.666,0-4.96-0.559-6.695-1.551c-0.683,0.559-1.116,1.24-1.116,2.232
			c0,1.302,0.868,2.604,4.588,2.604h6.386c6.014,0,10.849,2.604,10.849,8.432c0,6.447-5.827,8.928-13.329,8.928
			c-6.386,0-13.205-1.859-13.205-8.68c0-2.852,1.798-5.084,4.712-6.262c-2.294-0.744-3.844-2.604-3.844-5.021
			c0-1.859,0.992-3.348,2.479-4.34c-1.487-1.859-2.231-4.092-2.231-6.758c0-6.323,4.216-10.415,11.407-10.415
			C153.499,36.46,155.854,37.018,157.59,38.01z M154.119,64.297h-6.448c-3.596,0.619-5.207,2.479-5.207,4.959
			c0,3.781,4.339,5.207,9.237,5.207c4.897,0,9.237-1.426,9.237-5.455C160.938,65.598,158.148,64.297,154.119,64.297z
			 M158.334,46.875c0-4.092-2.604-6.819-7.378-6.819s-7.378,2.728-7.378,6.819s2.604,6.82,7.378,6.82S158.334,50.967,158.334,46.875
			z"/>
	</g>
	<path fill="none" stroke="#E6EBE0" stroke-width="6" stroke-miterlimit="10" d="M204,75.814C204,81.992,198.992,87,192.815,87
		H14.185C8.008,87,3,81.992,3,75.814V14.186C3,8.008,8.008,3,14.185,3h178.63C198.992,3,204,8.008,204,14.186V75.814z"/>
</g>
</svg>
