<?xml version="1.0" encoding="utf-8"?>
<!-- Generator: Adobe Illustrator 15.0.0, SVG Export Plug-In . SVG Version: 6.00 Build 0)  -->
<!DOCTYPE svg PUBLIC "-//W3C//DTD SVG 1.1//EN" "http://www.w3.org/Graphics/SVG/1.1/DTD/svg11.dtd">
<svg version="1.1" id="Ebene_1" xmlns="http://www.w3.org/2000/svg" xmlns:xlink="http://www.w3.org/1999/xlink" x="0px" y="0px"
	 width="825px" height="825px" viewBox="0 0 825 825" enable-background="new 0 0 825 825" xml:space="preserve">
<g id="Ebene_2_8_">
	<path fill="none" stroke="#FF5D59" stroke-width="5" stroke-miterlimit="10" d="M459.798,397.854
		c0,26.127-21.176,47.299-47.3,47.299c-26.125,0-47.297-21.172-47.297-47.299s21.172-47.299,47.297-47.299
		C438.623,350.556,459.798,371.729,459.798,397.854z"/>
</g>
<path fill="#FF5D59" d="M406.629,399.368c0-7.812,12.026-8.309,12.026-14.88c0-3.038-2.293-4.774-6.261-4.774
	c-3.473,0-5.828,1.736-5.828,5.209c0,1.859-1.549,3.409-3.41,3.409c-1.859,0-3.408-1.55-3.408-3.409
	c0-7.068,4.711-11.284,12.646-11.284c8.183,0,12.958,3.905,12.958,10.85c0,9.981-11.842,10.726-11.842,14.445
	c0,0.495,0.186,0.868,0.619,1.487c0.373,0.559,0.559,1.178,0.559,1.86c0,2.108-1.798,3.348-3.349,3.348
	c-0.99,0-1.797-0.372-2.418-0.991C407.249,403.025,406.629,401.104,406.629,399.368z M407.063,414.683
	c0-2.79,1.488-4.154,4.092-4.154c2.604,0,4.03,1.364,4.03,4.154c0,2.728-1.426,4.029-4.03,4.029
	C408.551,418.712,407.063,417.41,407.063,414.683z"/>
</svg>
