<?xml version="1.0" encoding="UTF-8" standalone="no"?>
<!-- Generator: Adobe Illustrator 15.0.0, SVG Export Plug-In . SVG Version: 6.00 Build 0)  -->

<svg
   xmlns:dc="http://purl.org/dc/elements/1.1/"
   xmlns:cc="http://creativecommons.org/ns#"
   xmlns:rdf="http://www.w3.org/1999/02/22-rdf-syntax-ns#"
   xmlns:svg="http://www.w3.org/2000/svg"
   xmlns="http://www.w3.org/2000/svg"
   xmlns:sodipodi="http://sodipodi.sourceforge.net/DTD/sodipodi-0.dtd"
   xmlns:inkscape="http://www.inkscape.org/namespaces/inkscape"
   version="1.1"
   id="Ebene_1"
   x="0px"
   y="0px"
   width="99.597"
   height="99.598"
   viewBox="0 0 99.597 99.598"
   enable-background="new 0 0 825 825"
   xml:space="preserve"
   sodipodi:docname="hilfe.svg"
   inkscape:version="0.92.1 r15371"><metadata
     id="metadata112"><rdf:RDF><cc:Work
         rdf:about=""><dc:format>image/svg+xml</dc:format><dc:type
           rdf:resource="http://purl.org/dc/dcmitype/StillImage" /></cc:Work></rdf:RDF></metadata><defs
     id="defs110" /><sodipodi:namedview
     pagecolor="#ffffff"
     bordercolor="#666666"
     borderopacity="1"
     objecttolerance="10"
     gridtolerance="10"
     guidetolerance="10"
     inkscape:pageopacity="0"
     inkscape:pageshadow="2"
     inkscape:window-width="640"
     inkscape:window-height="480"
     id="namedview108"
     showgrid="false"
     inkscape:zoom="0.28606061"
     inkscape:cx="49.799"
     inkscape:cy="35.153"
     inkscape:window-x="0"
     inkscape:window-y="0"
     inkscape:window-maximized="0"
     inkscape:current-layer="Ebene_1" /><g
     id="Ebene_2_8_"
     transform="translate(-362.701,-348.055)"><path
       stroke-miterlimit="10"
       d="m 459.798,397.854 c 0,26.127 -21.176,47.299 -47.3,47.299 -26.125,0 -47.297,-21.172 -47.297,-47.299 0,-26.127 21.172,-47.299 47.297,-47.299 26.125,10e-4 47.3,21.174 47.3,47.299 z"
       id="path102"
       inkscape:connector-curvature="0"
       style="fill:none;stroke:#ff5d59;stroke-width:5;stroke-miterlimit:10" /></g><path
     d="m 43.928,51.313 c 0,-7.812 12.026,-8.309 12.026,-14.88 0,-3.038 -2.293,-4.774 -6.261,-4.774 -3.473,0 -5.828,1.736 -5.828,5.209 0,1.859 -1.549,3.409 -3.41,3.409 -1.859,0 -3.408,-1.55 -3.408,-3.409 0,-7.068 4.711,-11.284 12.646,-11.284 8.183,0 12.958,3.905 12.958,10.85 0,9.981 -11.842,10.726 -11.842,14.445 0,0.495 0.186,0.868 0.619,1.487 0.373,0.559 0.559,1.178 0.559,1.86 0,2.108 -1.798,3.348 -3.349,3.348 -0.99,0 -1.797,-0.372 -2.418,-0.991 -1.672,-1.613 -2.292,-3.534 -2.292,-5.27 z m 0.434,15.315 c 0,-2.79 1.488,-4.154 4.092,-4.154 2.604,0 4.03,1.364 4.03,4.154 0,2.728 -1.426,4.029 -4.03,4.029 -2.604,0 -4.092,-1.302 -4.092,-4.029 z"
     id="path105"
     inkscape:connector-curvature="0"
     style="fill:#ff5d59" /></svg>