<?xml version="1.0" encoding="UTF-8" standalone="no"?>
<!-- Generator: Adobe Illustrator 15.0.0, SVG Export Plug-In . SVG Version: 6.00 Build 0)  -->

<svg
   xmlns:dc="http://purl.org/dc/elements/1.1/"
   xmlns:cc="http://creativecommons.org/ns#"
   xmlns:rdf="http://www.w3.org/1999/02/22-rdf-syntax-ns#"
   xmlns:svg="http://www.w3.org/2000/svg"
   xmlns="http://www.w3.org/2000/svg"
   xmlns:sodipodi="http://sodipodi.sourceforge.net/DTD/sodipodi-0.dtd"
   xmlns:inkscape="http://www.inkscape.org/namespaces/inkscape"
   version="1.1"
   id="Ebene_1"
   x="0px"
   y="0px"
   width="335.02502"
   height="91"
   viewBox="0 0 335.02502 91"
   enable-background="new 0 0 230 91"
   xml:space="preserve"
   sodipodi:docname="laden.svg"
   inkscape:version="0.92.1 r15371"><metadata
     id="metadata147"><rdf:RDF><cc:Work
         rdf:about=""><dc:format>image/svg+xml</dc:format><dc:type
           rdf:resource="http://purl.org/dc/dcmitype/StillImage" /></cc:Work></rdf:RDF></metadata><defs
     id="defs145" /><sodipodi:namedview
     pagecolor="#ffffff"
     bordercolor="#666666"
     borderopacity="1"
     objecttolerance="10"
     gridtolerance="10"
     guidetolerance="10"
     inkscape:pageopacity="0"
     inkscape:pageshadow="2"
     inkscape:window-width="640"
     inkscape:window-height="480"
     id="namedview143"
     showgrid="false"
     inkscape:zoom="1.5217391"
     inkscape:cx="115"
     inkscape:cy="45.5"
     inkscape:window-x="0"
     inkscape:window-y="0"
     inkscape:window-maximized="0"
     inkscape:current-layer="Ebene_1" /><path
     stroke-miterlimit="10"
     d="M 3,75.674 C 3,82.48 9.264,88 12.975,88 H 217.45 C 221.161,88 227,82.48 227,75.674 V 15.326 C 227,8.52 221.162,3 217.45,3 H 11.977 C 8.267,3 3,8.52 3,15.326 Z"
     id="path126"
     inkscape:connector-curvature="0"
     style="fill:#ffffff;stroke:#363636;stroke-width:6;stroke-miterlimit:10" /><rect
     x="47.713001"
     y="19.91"
     width="287.31201"
     height="60.174"
     id="rect128"
     style="fill:none" /><g
     enable-background="new    "
     id="g140"><path
       d="m 55.71,21.897 v 35.399 c 0,2.48 0.806,3.534 2.48,3.534 0.992,0 1.86,0.806 1.86,1.859 0,1.055 -0.868,1.86 -1.86,1.86 -4.154,0 -6.448,-2.48 -6.448,-7.254 V 21.897 c 0,-1.055 0.93,-1.984 1.984,-1.984 1.116,0 1.984,0.93 1.984,1.984 z"
       id="path130"
       inkscape:connector-curvature="0"
       style="fill:#363636" /><path
       d="m 68.482,41.922 c -0.62,0.682 -1.054,0.868 -1.612,0.868 -0.992,0 -1.798,-0.806 -1.798,-1.798 0,-0.435 0.124,-0.744 0.31,-1.054 1.736,-2.729 5.083,-4.898 10.292,-4.898 7.191,0 11.159,4.216 11.159,10.54 v 17.049 c 0,1.054 -0.868,1.922 -1.922,1.922 -1.054,0 -1.922,-0.868 -1.922,-1.922 v -2.232 c -1.55,2.914 -5.146,4.464 -8.865,4.464 -6.572,0 -10.726,-3.161 -10.726,-8.865 0,-5.456 4.154,-8.741 10.849,-8.741 h 8.742 V 45.58 c 0,-4.216 -2.79,-6.82 -7.315,-6.82 -3.286,0 -5.27,0.992 -7.192,3.162 z m 14.507,11.407 v -2.604 h -8.742 c -4.03,0 -6.819,1.674 -6.819,5.27 0,3.224 2.232,5.27 7.067,5.27 4.34,0 8.494,-2.666 8.494,-7.936 z"
       id="path132"
       inkscape:connector-curvature="0"
       style="fill:#363636" /><path
       d="M 113.307,39.07 V 21.897 c 0,-1.116 0.868,-1.984 1.984,-1.984 1.116,0 1.984,0.868 1.984,1.984 v 30.75 c 0,8.184 -5.083,12.213 -12.151,12.213 -7.997,0 -12.709,-4.773 -12.709,-14.94 0,-10.168 4.464,-14.88 12.461,-14.88 3.967,0 7.005,2.046 8.431,4.03 z m 0,5.022 c 0,0 -2.355,-5.456 -8.184,-5.456 -5.642,0 -8.741,3.658 -8.741,11.284 0,7.749 3.038,11.345 8.741,11.345 4.774,0 8.184,-2.728 8.184,-8.617 z"
       id="path134"
       inkscape:connector-curvature="0"
       style="fill:#363636" /><path
       d="m 136.246,35.04 c 9.92,0 11.842,7.874 11.842,12.09 0,1.798 0,3.968 -2.479,3.968 h -18.103 c 0,6.138 3.533,10.105 9.361,10.105 3.596,0 5.703,-1.364 7.439,-2.666 0.371,-0.248 0.619,-0.372 1.115,-0.372 0.992,0 1.799,0.806 1.799,1.798 0,0.682 -0.311,1.054 -0.683,1.426 -0.93,0.93 -4.153,3.472 -9.671,3.472 -8.246,0 -13.392,-4.525 -13.392,-14.94 0.002,-9.549 4.714,-14.881 12.772,-14.881 z m 0,3.596 c -5.393,0 -8.369,3.473 -8.74,8.99 h 16.676 c 0,-4.464 -1.549,-8.99 -7.936,-8.99 z"
       id="path136"
       inkscape:connector-curvature="0"
       style="fill:#363636" /><path
       d="m 177.848,46.014 v 16.553 c 0,1.116 -0.868,1.984 -1.984,1.984 -1.115,0 -1.984,-0.868 -1.984,-1.984 V 46.819 c 0,-4.897 -1.426,-8.245 -7.439,-8.245 -6.137,0 -8.245,3.72 -8.245,8.68 v 15.312 c 0,1.116 -0.868,1.984 -1.983,1.984 -1.116,0 -1.984,-0.868 -1.984,-1.984 v -25.17 c 0,-1.116 0.868,-1.984 1.984,-1.984 1.115,0 1.983,0.868 1.983,1.984 v 1.983 c 1.178,-2.355 4.216,-4.34 8.245,-4.34 9.546,10e-4 11.407,5.705 11.407,10.975 z"
       id="path138"
       inkscape:connector-curvature="0"
       style="fill:#363636" /></g></svg>