<?xml version="1.0" encoding="utf-8"?>
<!-- Generator: Adobe Illustrator 15.0.0, SVG Export Plug-In . SVG Version: 6.00 Build 0)  -->
<!DOCTYPE svg PUBLIC "-//W3C//DTD SVG 1.1//EN" "http://www.w3.org/Graphics/SVG/1.1/DTD/svg11.dtd">
<svg version="1.1" id="Ebene_1" xmlns="http://www.w3.org/2000/svg" xmlns:xlink="http://www.w3.org/1999/xlink" x="0px" y="0px"
	 width="230px" height="91px" viewBox="0 0 230 91" enable-background="new 0 0 230 91" xml:space="preserve">
<path fill="#FFFFFF" stroke="#363636" stroke-width="6" stroke-miterlimit="10" d="M3,75.674C3,82.48,9.264,88,12.975,88H217.45
	c3.711,0,9.55-5.52,9.55-12.326V15.326C227,8.52,221.162,3,217.45,3H11.977C8.267,3,3,8.52,3,15.326V75.674z"/>
<rect x="47.713" y="19.91" fill="none" width="287.312" height="60.174"/>
<g enable-background="new    ">
	<path fill="#363636" d="M55.71,21.897v35.399c0,2.48,0.806,3.534,2.48,3.534c0.992,0,1.86,0.806,1.86,1.859
		c0,1.055-0.868,1.86-1.86,1.86c-4.154,0-6.448-2.48-6.448-7.254V21.897c0-1.055,0.93-1.984,1.984-1.984
		C54.842,19.913,55.71,20.843,55.71,21.897z"/>
	<path fill="#363636" d="M68.482,41.922c-0.62,0.682-1.054,0.868-1.612,0.868c-0.992,0-1.798-0.806-1.798-1.798
		c0-0.435,0.124-0.744,0.31-1.054c1.736-2.729,5.083-4.898,10.292-4.898c7.191,0,11.159,4.216,11.159,10.54v17.049
		c0,1.054-0.868,1.922-1.922,1.922c-1.054,0-1.922-0.868-1.922-1.922v-2.232c-1.55,2.914-5.146,4.464-8.865,4.464
		c-6.572,0-10.726-3.161-10.726-8.865c0-5.456,4.154-8.741,10.849-8.741h8.742V45.58c0-4.216-2.79-6.82-7.315-6.82
		C72.388,38.76,70.404,39.752,68.482,41.922z M82.989,53.329v-2.604h-8.742c-4.03,0-6.819,1.674-6.819,5.27
		c0,3.224,2.232,5.27,7.067,5.27C78.835,61.265,82.989,58.599,82.989,53.329z"/>
	<path fill="#363636" d="M113.307,39.07V21.897c0-1.116,0.868-1.984,1.984-1.984s1.984,0.868,1.984,1.984v30.75
		c0,8.184-5.083,12.213-12.151,12.213c-7.997,0-12.709-4.773-12.709-14.94c0-10.168,4.464-14.88,12.461-14.88
		C108.843,35.04,111.881,37.086,113.307,39.07z M113.307,44.092c0,0-2.355-5.456-8.184-5.456c-5.642,0-8.741,3.658-8.741,11.284
		c0,7.749,3.038,11.345,8.741,11.345c4.774,0,8.184-2.728,8.184-8.617V44.092z"/>
	<path fill="#363636" d="M136.246,35.04c9.92,0,11.842,7.874,11.842,12.09c0,1.798,0,3.968-2.479,3.968h-18.103
		c0,6.138,3.533,10.105,9.361,10.105c3.596,0,5.703-1.364,7.439-2.666c0.371-0.248,0.619-0.372,1.115-0.372
		c0.992,0,1.799,0.806,1.799,1.798c0,0.682-0.311,1.054-0.683,1.426c-0.93,0.93-4.153,3.472-9.671,3.472
		c-8.246,0-13.392-4.525-13.392-14.94C123.476,40.372,128.188,35.04,136.246,35.04z M136.246,38.636c-5.393,0-8.369,3.473-8.74,8.99
		h16.676C144.182,43.162,142.633,38.636,136.246,38.636z"/>
	<path fill="#363636" d="M177.848,46.014v16.553c0,1.116-0.868,1.984-1.984,1.984c-1.115,0-1.984-0.868-1.984-1.984V46.819
		c0-4.897-1.426-8.245-7.439-8.245c-6.137,0-8.245,3.72-8.245,8.68v15.312c0,1.116-0.868,1.984-1.983,1.984
		c-1.116,0-1.984-0.868-1.984-1.984v-25.17c0-1.116,0.868-1.984,1.984-1.984c1.115,0,1.983,0.868,1.983,1.984v1.983
		c1.178-2.355,4.216-4.34,8.245-4.34C175.987,35.04,177.848,40.744,177.848,46.014z"/>
</g>
</svg>
