<?xml version="1.0" encoding="UTF-8" standalone="no"?>
<!-- Generator: Adobe Illustrator 16.0.3, SVG Export Plug-In . SVG Version: 6.00 Build 0)  -->

<svg
   xmlns:dc="http://purl.org/dc/elements/1.1/"
   xmlns:cc="http://creativecommons.org/ns#"
   xmlns:rdf="http://www.w3.org/1999/02/22-rdf-syntax-ns#"
   xmlns:svg="http://www.w3.org/2000/svg"
   xmlns="http://www.w3.org/2000/svg"
   xmlns:sodipodi="http://sodipodi.sourceforge.net/DTD/sodipodi-0.dtd"
   xmlns:inkscape="http://www.inkscape.org/namespaces/inkscape"
   version="1.1"
   x="0px"
   y="0px"
   width="248.0836"
   height="90.510597"
   viewBox="0 0 248.0836 90.510597"
   enable-background="new 0 0 261 108"
   xml:space="preserve"
   id="svg22"
   sodipodi:docname="loeschen_dunkel.svg"
   inkscape:version="0.92.1 r15371"><metadata
     id="metadata28"><rdf:RDF><cc:Work
         rdf:about=""><dc:format>image/svg+xml</dc:format><dc:type
           rdf:resource="http://purl.org/dc/dcmitype/StillImage" /><dc:title></dc:title></cc:Work></rdf:RDF></metadata><defs
     id="defs26" /><sodipodi:namedview
     pagecolor="#ffffff"
     bordercolor="#666666"
     borderopacity="1"
     objecttolerance="10"
     gridtolerance="10"
     guidetolerance="10"
     inkscape:pageopacity="0"
     inkscape:pageshadow="2"
     inkscape:window-width="640"
     inkscape:window-height="480"
     id="namedview24"
     showgrid="false"
     fit-margin-top="0"
     fit-margin-left="0"
     fit-margin-right="0"
     fit-margin-bottom="0"
     inkscape:zoom="1.3409962"
     inkscape:cx="124.3103"
     inkscape:cy="48.3403"
     inkscape:window-x="0"
     inkscape:window-y="0"
     inkscape:window-maximized="0"
     inkscape:current-layer="svg22" /><g
     id="Ebene_1"
     transform="translate(-6.1897,-11.8297)" /><g
     id="Ebene_2"
     transform="translate(-6.1897,-11.8297)"><path
       stroke-miterlimit="10"
       d="m 8.945,87.259 c 0,6.807 3.257,12.326 7.275,12.326 h 228.021 c 4.019,0 7.277,-5.52 7.277,-12.326 V 26.911 c 0,-6.807 -3.259,-12.326 -7.277,-12.326 H 16.221 c -4.019,0 -7.275,5.52 -7.275,12.326 v 60.348 z"
       id="path3"
       inkscape:connector-curvature="0"
       style="fill:none;stroke:#353535;stroke-width:5.51060009;stroke-miterlimit:10" /><g
       id="g19"><path
         d="M 43.942,33.481 V 68.88 c 0,2.48 0.806,3.535 2.479,3.535 0.992,0 1.86,0.805 1.86,1.859 0,1.054 -0.868,1.859 -1.86,1.859 -4.153,0 -6.447,-2.479 -6.447,-7.254 V 33.481 c 0,-1.054 0.93,-1.983 1.984,-1.983 1.116,0 1.984,0.93 1.984,1.983 z"
         id="path5"
         inkscape:connector-curvature="0"
         style="fill:#353535" /><path
         d="m 77.73,61.504 c 0,10.168 -4.959,14.941 -13.02,14.941 -7.997,0 -13.019,-4.773 -13.019,-14.941 0,-10.168 5.021,-14.879 13.019,-14.879 8.061,0 13.02,4.711 13.02,14.879 z m -4.029,0 c 0,-7.812 -3.286,-11.283 -8.99,-11.283 -5.703,0 -8.988,3.472 -8.988,11.283 0,7.936 3.285,11.346 8.988,11.346 5.704,0 8.99,-3.411 8.99,-11.346 z M 57.893,40.239 c 0,-1.55 0.743,-2.356 2.231,-2.356 1.487,0 2.231,0.807 2.231,2.356 0,1.549 -0.744,2.294 -2.231,2.294 -1.488,0 -2.231,-0.744 -2.231,-2.294 z m 9.732,0 c 0,-1.55 0.744,-2.356 2.232,-2.356 1.488,0 2.232,0.807 2.232,2.356 0,1.549 -0.744,2.294 -2.232,2.294 -1.488,0 -2.232,-0.744 -2.232,-2.294 z"
         id="path7"
         inkscape:connector-curvature="0"
         style="fill:#353535" /><path
         d="m 87.217,54.188 c 0,6.51 16.306,4.092 16.306,14.011 0,5.643 -4.649,8.184 -10.54,8.184 -5.083,0 -8.988,-2.418 -10.601,-4.463 -0.31,-0.435 -0.435,-0.744 -0.435,-1.179 0,-0.991 0.807,-1.798 1.799,-1.798 0.371,0 0.867,0.124 1.363,0.62 1.922,1.922 4.402,3.038 7.873,3.038 3.535,0 6.572,-1.178 6.572,-4.402 0,-6.385 -16.305,-3.844 -16.305,-14.011 0,-5.146 4.215,-7.501 9.485,-7.501 4.216,0 7.501,1.426 9.423,3.967 0.187,0.248 0.435,0.62 0.435,1.178 0,0.992 -0.806,1.799 -1.798,1.799 -0.311,0 -0.807,-0.063 -1.303,-0.559 -1.674,-1.611 -3.533,-2.604 -6.757,-2.604 -2.789,10e-4 -5.517,0.868 -5.517,3.72 z"
         id="path9"
         inkscape:connector-curvature="0"
         style="fill:#353535" /><path
         d="m 121.131,46.625 c 5.518,0 8.555,2.914 9.547,4.277 0.311,0.434 0.434,0.744 0.434,1.178 0,1.055 -0.805,1.799 -1.797,1.799 -0.62,0 -1.055,-0.248 -1.488,-0.744 -0.93,-1.055 -2.604,-2.914 -6.695,-2.914 -5.704,0 -8.742,3.658 -8.742,11.283 0,7.75 3.038,11.346 8.742,11.346 3.596,0 5.766,-1.612 7.191,-2.666 0.434,-0.311 0.744,-0.434 1.178,-0.434 0.992,0 1.798,0.806 1.798,1.797 0,0.559 -0.187,0.992 -0.806,1.551 -1.364,1.115 -4.34,3.348 -9.361,3.348 -7.998,0 -12.771,-4.773 -12.771,-14.941 0,-10.168 4.772,-14.88 12.77,-14.88 z"
         id="path11"
         inkscape:connector-curvature="0"
         style="fill:#353535" /><path
         d="m 160.563,57.598 v 16.554 c 0,1.116 -0.869,1.983 -1.984,1.983 -1.115,0 -1.984,-0.867 -1.984,-1.983 V 58.404 c 0,-4.898 -1.426,-8.246 -7.439,-8.246 -6.137,0 -8.246,3.721 -8.246,8.68 v 15.313 c 0,1.116 -0.867,1.983 -1.982,1.983 -1.117,0 -1.984,-0.867 -1.984,-1.983 v -40.67 c 0,-1.116 0.867,-1.983 1.984,-1.983 1.115,0 1.982,0.867 1.982,1.983 v 17.483 c 1.18,-2.355 4.217,-4.34 8.246,-4.34 9.547,10e-4 11.407,5.704 11.407,10.974 z"
         id="path13"
         inkscape:connector-curvature="0"
         style="fill:#353535" /><path
         d="m 178.914,46.625 c 9.918,0 11.84,7.873 11.84,12.09 0,1.797 0,3.967 -2.479,3.967 h -18.104 c 0,6.138 3.533,10.105 9.361,10.105 3.596,0 5.703,-1.363 7.439,-2.666 0.373,-0.248 0.621,-0.371 1.115,-0.371 0.992,0 1.799,0.806 1.799,1.797 0,0.683 -0.311,1.055 -0.682,1.426 -0.93,0.931 -4.154,3.473 -9.672,3.473 -8.246,0 -13.391,-4.525 -13.391,-14.941 0.003,-9.548 4.714,-14.88 12.774,-14.88 z m 0,3.596 c -5.395,0 -8.371,3.472 -8.742,8.989 h 16.678 c 0,-4.464 -1.551,-8.989 -7.936,-8.989 z"
         id="path15"
         inkscape:connector-curvature="0"
         style="fill:#353535" /><path
         d="m 220.514,57.598 v 16.554 c 0,1.116 -0.867,1.983 -1.982,1.983 -1.117,0 -1.984,-0.867 -1.984,-1.983 V 58.404 c 0,-4.898 -1.426,-8.246 -7.439,-8.246 -6.139,0 -8.246,3.721 -8.246,8.68 v 15.313 c 0,1.116 -0.867,1.983 -1.984,1.983 -1.115,0 -1.984,-0.867 -1.984,-1.983 V 48.98 c 0,-1.115 0.869,-1.984 1.984,-1.984 1.117,0 1.984,0.869 1.984,1.984 v 1.984 c 1.178,-2.355 4.215,-4.34 8.246,-4.34 9.545,10e-4 11.405,5.704 11.405,10.974 z"
         id="path17"
         inkscape:connector-curvature="0"
         style="fill:#353535" /></g></g></svg>