<?xml version="1.0" encoding="UTF-8" standalone="no"?>
<!-- Generator: Adobe Illustrator 16.0.3, SVG Export Plug-In . SVG Version: 6.00 Build 0)  -->

<svg
   xmlns:dc="http://purl.org/dc/elements/1.1/"
   xmlns:cc="http://creativecommons.org/ns#"
   xmlns:rdf="http://www.w3.org/1999/02/22-rdf-syntax-ns#"
   xmlns:svg="http://www.w3.org/2000/svg"
   xmlns="http://www.w3.org/2000/svg"
   xmlns:sodipodi="http://sodipodi.sourceforge.net/DTD/sodipodi-0.dtd"
   xmlns:inkscape="http://www.inkscape.org/namespaces/inkscape"
   version="1.1"
   x="0px"
   y="0px"
   width="72.975998"
   height="45.216"
   viewBox="0 0 72.975998 45.216"
   enable-background="new 0 0 117 108"
   xml:space="preserve"
   id="svg26"
   sodipodi:docname="menu_dunkel.svg"
   inkscape:version="0.92.1 r15371"><metadata
     id="metadata32"><rdf:RDF><cc:Work
         rdf:about=""><dc:format>image/svg+xml</dc:format><dc:type
           rdf:resource="http://purl.org/dc/dcmitype/StillImage" /><dc:title></dc:title></cc:Work></rdf:RDF></metadata><defs
     id="defs30" /><sodipodi:namedview
     pagecolor="#ffffff"
     bordercolor="#666666"
     borderopacity="1"
     objecttolerance="10"
     gridtolerance="10"
     guidetolerance="10"
     inkscape:pageopacity="0"
     inkscape:pageshadow="2"
     inkscape:window-width="1920"
     inkscape:window-height="1017"
     id="namedview28"
     showgrid="false"
     fit-margin-top="0"
     fit-margin-left="0"
     fit-margin-right="0"
     fit-margin-bottom="0"
     inkscape:zoom="7.8703704"
     inkscape:cx="36.822"
     inkscape:cy="23.001"
     inkscape:window-x="-8"
     inkscape:window-y="-8"
     inkscape:window-maximized="1"
     inkscape:current-layer="svg26" /><g
     id="Ebene_1"
     transform="translate(-21.678,-31.785)" /><g
     id="Ebene_2"
     transform="translate(-21.678,-31.785)"><path
       d="M 91.662,31.785 H 24.669 c -1.647,0 -2.991,1.656 -2.991,3.715 0,2.057 1.344,3.725 2.991,3.725 h 66.993 c 1.648,0 2.992,-1.668 2.992,-3.725 0,-2.059 -1.343,-3.715 -2.992,-3.715 z"
       id="path19"
       inkscape:connector-curvature="0"
       style="fill:#353535" /><path
       d="M 91.662,69.563 H 24.669 c -1.647,0 -2.991,1.654 -2.991,3.713 0,2.057 1.344,3.725 2.991,3.725 h 66.993 c 1.648,0 2.992,-1.668 2.992,-3.725 0,-2.059 -1.343,-3.713 -2.992,-3.713 z"
       id="path21"
       inkscape:connector-curvature="0"
       style="fill:#353535" /><path
       d="M 91.662,50.96 H 24.669 c -1.647,0 -2.991,1.666 -2.991,3.726 0,2.057 1.344,3.725 2.991,3.725 h 66.993 c 1.648,0 2.992,-1.668 2.992,-3.725 0,-2.06 -1.343,-3.726 -2.992,-3.726 z"
       id="path23"
       inkscape:connector-curvature="0"
       style="fill:#353535" /></g></svg>