<?xml version="1.0" encoding="utf-8"?>
<!-- Generator: Adobe Illustrator 15.0.0, SVG Export Plug-In . SVG Version: 6.00 Build 0)  -->
<!DOCTYPE svg PUBLIC "-//W3C//DTD SVG 1.1//EN" "http://www.w3.org/Graphics/SVG/1.1/DTD/svg11.dtd">
<svg version="1.1" id="Ebene_1" xmlns="http://www.w3.org/2000/svg" xmlns:xlink="http://www.w3.org/1999/xlink" x="0px" y="0px"
	 width="61.686px" height="44.396px" viewBox="0 0 61.686 44.396" enable-background="new 0 0 61.686 44.396" xml:space="preserve">
<g>
	<g>
		<path d="M0.82,21.876c-1.053,1.149-1.135,2.811,0.004,3.95c0.25,0.25,0.502,0.503,0.752,0.753c1.441,1.44,2.885,2.885,4.326,4.323
			C9.4,34.4,12.896,37.898,16.395,41.395c0.346,0.346,0.689,0.688,1.035,1.037c4.35,4.35,7.63,0.157,7.907-0.117
			C25.755,41.896,60.928,4.732,61.189,4.39c1.092-1.432,0.25-3.375-1.212-4.115c-1.739-0.879-3.034,0.541-4.133,1.643
			c-1.535,1.533-30.418,32.418-33.83,35.828c-0.266,0.268-0.533,0.532-0.801,0.801c0.121-0.121,0.322,0.104,0.119-0.101
			c-0.148-0.147-0.297-0.295-0.447-0.444c-1.361-1.363-2.725-2.728-4.088-4.09c-3.555-3.556-7.109-7.109-10.664-10.664
			c-0.439-0.438-0.877-0.877-1.316-1.316C3.664,20.774,2.013,20.785,0.82,21.876"/>
	</g>
</g>
</svg>
