<?xml version="1.0" encoding="utf-8"?>
<!-- Generator: Adobe Illustrator 15.0.0, SVG Export Plug-In . SVG Version: 6.00 Build 0)  -->
<!DOCTYPE svg PUBLIC "-//W3C//DTD SVG 1.1//EN" "http://www.w3.org/Graphics/SVG/1.1/DTD/svg11.dtd">
<svg version="1.1" id="Ebene_1" xmlns="http://www.w3.org/2000/svg" xmlns:xlink="http://www.w3.org/1999/xlink" x="0px" y="0px"
	 width="825px" height="825px" viewBox="0 0 825 825" enable-background="new 0 0 825 825" xml:space="preserve">
<g opacity="0.6">
	<path fill="#353535" d="M447.597,398.139l-1.99,0.691l-31.717,11.498c-1.549,0.561-3.377-0.539-4.077-2.475
		c-0.701-1.933-0.008-3.959,1.542-4.521l31.714-11.497l1.992-0.692c1.55-0.562,3.382,0.549,4.083,2.482
		C449.845,395.56,449.146,397.576,447.597,398.139z"/>
	<path fill="#353535" d="M377.814,398.037l2.592,0.783l31.716,11.497c1.549,0.562,3.377-0.538,4.078-2.474
		c0.701-1.934,0.007-3.959-1.542-4.521l-31.714-11.498l-2.593-0.783c-1.551-0.562-3.383,0.549-4.083,2.482
		C375.566,395.458,376.265,397.474,377.814,398.037z"/>
</g>
</svg>
