<?xml version="1.0" encoding="UTF-8" standalone="no"?>
<!-- Generator: Adobe Illustrator 15.0.0, SVG Export Plug-In . SVG Version: 6.00 Build 0)  -->

<svg
   xmlns:dc="http://purl.org/dc/elements/1.1/"
   xmlns:cc="http://creativecommons.org/ns#"
   xmlns:rdf="http://www.w3.org/1999/02/22-rdf-syntax-ns#"
   xmlns:svg="http://www.w3.org/2000/svg"
   xmlns="http://www.w3.org/2000/svg"
   xmlns:sodipodi="http://sodipodi.sourceforge.net/DTD/sodipodi-0.dtd"
   xmlns:inkscape="http://www.inkscape.org/namespaces/inkscape"
   version="1.1"
   id="Ebene_1"
   x="0px"
   y="0px"
   width="19.579262"
   height="73.421623"
   viewBox="0 0 19.579262 73.421624"
   enable-background="new 0 0 825 825"
   xml:space="preserve"
   sodipodi:docname="pfeil_links.svg"
   inkscape:version="0.92.1 r15371"><metadata
     id="metadata168"><rdf:RDF><cc:Work
         rdf:about=""><dc:format>image/svg+xml</dc:format><dc:type
           rdf:resource="http://purl.org/dc/dcmitype/StillImage" /><dc:title></dc:title></cc:Work></rdf:RDF></metadata><defs
     id="defs166" /><sodipodi:namedview
     pagecolor="#ffffff"
     bordercolor="#666666"
     borderopacity="1"
     objecttolerance="10"
     gridtolerance="10"
     guidetolerance="10"
     inkscape:pageopacity="0"
     inkscape:pageshadow="2"
     inkscape:window-width="708"
     inkscape:window-height="605"
     id="namedview164"
     showgrid="false"
     inkscape:zoom="0.28606061"
     inkscape:cx="9.5842611"
     inkscape:cy="24.895088"
     inkscape:window-x="374"
     inkscape:window-y="197"
     inkscape:window-maximized="0"
     inkscape:current-layer="Ebene_1"
     fit-margin-top="0"
     fit-margin-left="0"
     fit-margin-right="0"
     fit-margin-bottom="0" /><g
     id="g161"
     style="opacity:0.6"
     transform="rotate(-90,29.260772,420.15542)"><path
       d="m 377.814,403.23 1.99,-0.691 31.717,-11.498 c 1.549,-0.561 3.377,0.539 4.077,2.475 0.701,1.933 0.008,3.959 -1.542,4.521 l -31.714,11.497 -1.992,0.692 c -1.55,0.562 -3.382,-0.549 -4.083,-2.482 -0.701,-1.935 -10e-4,-3.951 1.547,-4.514 z"
       id="path157"
       inkscape:connector-curvature="0"
       style="fill:#353535" /><path
       d="m 447.597,403.332 -2.592,-0.783 -31.716,-11.497 c -1.549,-0.562 -3.377,0.538 -4.078,2.474 -0.701,1.934 -0.007,3.959 1.542,4.521 l 31.714,11.498 2.593,0.783 c 1.551,0.562 3.383,-0.549 4.083,-2.482 0.702,-1.936 0.003,-3.951 -1.546,-4.514 z"
       id="path159"
       inkscape:connector-curvature="0"
       style="fill:#353535" /></g></svg>