<?xml version="1.0" encoding="utf-8"?>
<!-- Generator: Adobe Illustrator 15.0.0, SVG Export Plug-In . SVG Version: 6.00 Build 0)  -->
<!DOCTYPE svg PUBLIC "-//W3C//DTD SVG 1.1//EN" "http://www.w3.org/Graphics/SVG/1.1/DTD/svg11.dtd">
<svg version="1.1" id="Ebene_1" xmlns="http://www.w3.org/2000/svg" xmlns:xlink="http://www.w3.org/1999/xlink" x="0px" y="0px"
	 width="825px" height="825px" viewBox="0 0 825 825" enable-background="new 0 0 825 825" xml:space="preserve">
<g opacity="0.6">
	<path fill="#353535" d="M377.814,403.23l1.99-0.691l31.717-11.498c1.549-0.561,3.377,0.539,4.077,2.475
		c0.701,1.933,0.008,3.959-1.542,4.521l-31.714,11.497l-1.992,0.692c-1.55,0.562-3.382-0.549-4.083-2.482
		C375.566,405.809,376.266,403.793,377.814,403.23z"/>
	<path fill="#353535" d="M447.597,403.332l-2.592-0.783l-31.716-11.497c-1.549-0.562-3.377,0.538-4.078,2.474
		c-0.701,1.934-0.007,3.959,1.542,4.521l31.714,11.498l2.593,0.783c1.551,0.562,3.383-0.549,4.083-2.482
		C449.845,405.91,449.146,403.895,447.597,403.332z"/>
</g>
</svg>
