<?xml version="1.0" encoding="utf-8"?>
<!-- Generator: Adobe Illustrator 15.0.0, SVG Export Plug-In . SVG Version: 6.00 Build 0)  -->
<!DOCTYPE svg PUBLIC "-//W3C//DTD SVG 1.1//EN" "http://www.w3.org/Graphics/SVG/1.1/DTD/svg11.dtd">
<svg version="1.1" id="Ebene_1" xmlns="http://www.w3.org/2000/svg" xmlns:xlink="http://www.w3.org/1999/xlink" x="0px" y="0px"
	 width="825px" height="825px" viewBox="0 0 825 825" enable-background="new 0 0 825 825" xml:space="preserve">
<g>
	<path fill="#E6EBE0" d="M419.879,409.224l-28.353-18.562c-0.696-0.457-1.462-0.696-2.219-0.696c-2.001,0-3.518,1.631-3.518,3.795
		v37.475c0,2.165,1.517,3.797,3.518,3.797c0.757,0,1.521-0.24,2.219-0.695l28.353-18.567c1.18-0.773,1.857-1.966,1.857-3.271
		C421.737,411.191,421.059,409.997,419.879,409.224z M391.241,428.013v-31.029l23.692,15.515L391.241,428.013z M397.56,364.316
		c-26.567,0-48.185,21.614-48.185,48.185c0,26.566,21.615,48.184,48.185,48.184c26.564,0,48.183-21.615,48.183-48.184
		C445.742,385.93,424.129,364.316,397.56,364.316z M397.56,455.234c-23.563,0-42.735-19.17-42.735-42.735
		s19.172-42.738,42.735-42.738c23.564,0,42.737,19.173,42.737,42.738S421.125,455.234,397.56,455.234z"/>
</g>
</svg>
