<?xml version="1.0" encoding="utf-8"?>
<!-- Generator: Adobe Illustrator 16.0.3, SVG Export Plug-In . SVG Version: 6.00 Build 0)  -->
<!DOCTYPE svg PUBLIC "-//W3C//DTD SVG 1.1//EN" "http://www.w3.org/Graphics/SVG/1.1/DTD/svg11.dtd">
<svg version="1.1" xmlns="http://www.w3.org/2000/svg" xmlns:xlink="http://www.w3.org/1999/xlink" x="0px" y="0px"
	 width="387.906px" height="91.906px" viewBox="0 0 387.906 91.906" enable-background="new 0 0 387.906 91.906"
	 xml:space="preserve">
<g id="Ebene_1">
</g>
<g id="Ebene_2">
	<g>
		<path fill="none" stroke="#E6EBE0" stroke-width="6.9062" stroke-miterlimit="10" d="M3.453,76.127
			c0,6.807,5.117,12.326,11.428,12.326h358.143c6.311,0,11.428-5.52,11.428-12.326V15.779c0-6.807-5.117-12.326-11.428-12.326
			H14.881c-6.311,0-11.428,5.52-11.428,12.326V76.127z"/>
		<g>
			<rect x="18.028" y="20.363" fill="none" width="352.73" height="49.09"/>
			<path fill="#E6EBE0" d="M42.62,37.848v16.182c0,4.029,1.302,7.502,7.563,7.502c6.262,0,7.564-3.473,7.564-7.502V37.848
				c0-1.115,0.93-1.983,2.046-1.983c1.054,0,1.922,0.868,1.922,1.983v16.182c0,5.89-1.922,11.283-11.532,11.283
				c-9.547,0-11.531-5.394-11.531-11.283V37.848c0-1.115,0.868-1.983,1.984-1.983C41.69,35.864,42.62,36.732,42.62,37.848z
				 M43.488,29.107c0-1.551,0.744-2.356,2.232-2.356c1.488,0,2.232,0.806,2.232,2.356c0,1.549-0.744,2.293-2.232,2.293
				C44.231,31.4,43.488,30.656,43.488,29.107z M53.221,29.107c0-1.551,0.744-2.356,2.232-2.356s2.232,0.806,2.232,2.356
				c0,1.549-0.744,2.293-2.232,2.293S53.221,30.656,53.221,29.107z"/>
			<path fill="#E6EBE0" d="M94.016,50.371c0,10.168-4.711,14.941-12.709,14.941c-7.068,0-12.151-4.029-12.151-12.213V22.35
				c0-1.116,0.868-1.984,1.984-1.984s1.984,0.868,1.984,1.984v17.173c1.426-1.983,4.464-4.03,8.432-4.03
				C89.553,35.492,94.016,40.204,94.016,50.371z M73.124,53.1c0,5.89,3.41,8.617,8.184,8.617c5.704,0,8.741-3.596,8.741-11.346
				c0-7.625-3.1-11.283-8.741-11.283c-5.828,0-8.184,5.456-8.184,5.456V53.1z"/>
			<path fill="#E6EBE0" d="M111.128,35.492c9.919,0,11.841,7.874,11.841,12.09c0,1.798,0,3.968-2.479,3.968h-18.103
				c0,6.138,3.534,10.104,9.361,10.104c3.596,0,5.704-1.363,7.44-2.665c0.372-0.248,0.62-0.372,1.115-0.372
				c0.992,0,1.798,0.807,1.798,1.798c0,0.683-0.31,1.054-0.682,1.426c-0.93,0.931-4.153,3.472-9.671,3.472
				c-8.246,0-13.391-4.525-13.391-14.941C98.357,40.824,103.069,35.492,111.128,35.492z M111.128,39.088
				c-5.394,0-8.369,3.473-8.741,8.99h16.677C119.064,43.614,117.515,39.088,111.128,39.088z"/>
			<path fill="#E6EBE0" d="M133.076,40.576c1.24-2.852,4.34-4.959,8.618-4.959c1.054,0,1.922,0.867,1.922,1.922
				c0,1.053-0.868,1.922-1.922,1.922c-5.704,0-8.618,3.967-8.618,9.671V63.02c0,1.115-0.867,1.983-1.983,1.983
				s-1.984-0.868-1.984-1.983V37.848c0-1.115,0.868-1.983,1.984-1.983s1.983,0.868,1.983,1.983V40.576z"/>
			<path fill="#E6EBE0" d="M151.242,43.057c0,6.51,16.306,4.092,16.306,14.011c0,5.642-4.65,8.184-10.54,8.184
				c-5.084,0-8.989-2.418-10.602-4.464c-0.31-0.434-0.434-0.744-0.434-1.178c0-0.992,0.806-1.799,1.798-1.799
				c0.372,0,0.868,0.125,1.364,0.621c1.922,1.922,4.401,3.037,7.873,3.037c3.534,0,6.572-1.178,6.572-4.401
				c0-6.386-16.306-3.844-16.306-14.011c0-5.146,4.216-7.502,9.485-7.502c4.216,0,7.502,1.426,9.424,3.968
				c0.186,0.247,0.434,0.62,0.434,1.178c0,0.992-0.806,1.798-1.798,1.798c-0.31,0-0.806-0.063-1.302-0.559
				c-1.674-1.611-3.534-2.604-6.758-2.604C153.97,39.336,151.242,40.204,151.242,43.057z"/>
			<path fill="#E6EBE0" d="M178.212,37.848v1.984c1.179-2.107,4.278-4.34,8.432-4.34c8.06,0,12.958,4.712,12.958,14.879
				c0,10.168-4.898,14.941-12.958,14.941c-4.153,0-7.129-2.231-8.432-4.34v14.012c0,1.054-0.93,1.984-1.983,1.984
				s-1.984-0.931-1.984-1.984V37.848c0-1.115,0.931-1.983,1.984-1.983S178.212,36.732,178.212,37.848z M186.644,61.717
				c5.704,0,8.928-3.596,8.928-11.346c0-7.749-3.348-11.283-9.052-11.283c-4.587,0-8.431,3.225-8.431,11.283
				C178.089,58.369,181.809,61.717,186.644,61.717z"/>
			<path fill="#E6EBE0" d="M209.77,40.576c1.24-2.852,4.34-4.959,8.618-4.959c1.054,0,1.922,0.867,1.922,1.922
				c0,1.053-0.868,1.922-1.922,1.922c-5.704,0-8.618,3.967-8.618,9.671V63.02c0,1.115-0.867,1.983-1.983,1.983
				s-1.984-0.868-1.984-1.983V37.848c0-1.115,0.868-1.983,1.984-1.983s1.983,0.868,1.983,1.983V40.576z"/>
			<path fill="#E6EBE0" d="M224.525,27.682c0-1.799,0.868-2.48,2.356-2.48c1.487,0,2.355,0.682,2.355,2.48
				c0,1.487-0.868,2.355-2.355,2.355C225.394,30.037,224.525,29.169,224.525,27.682z M228.865,63.02
				c0,1.115-0.868,1.983-1.983,1.983c-1.116,0-1.984-0.868-1.984-1.983V37.848c0-1.115,0.868-1.983,1.984-1.983
				c1.115,0,1.983,0.868,1.983,1.983V63.02z"/>
			<path fill="#E6EBE0" d="M260.546,46.466V63.02c0,1.115-0.868,1.983-1.983,1.983c-1.116,0-1.984-0.868-1.984-1.983V47.271
				c0-4.897-1.426-8.245-7.439-8.245c-6.138,0-8.246,3.72-8.246,8.679V63.02c0,1.115-0.867,1.983-1.983,1.983
				s-1.984-0.868-1.984-1.983V37.848c0-1.115,0.868-1.983,1.984-1.983s1.983,0.868,1.983,1.983v1.984
				c1.179-2.355,4.216-4.34,8.246-4.34C258.687,35.492,260.546,41.196,260.546,46.466z"/>
			<path fill="#E6EBE0" d="M284.788,37.043c1.054-1.922,2.418-3.348,5.518-3.348c0.992,0,1.798,0.805,1.798,1.797
				s-0.806,1.799-1.798,1.799c-1.86,0-2.542,0.93-2.976,1.922c1.426,1.735,2.231,4.029,2.231,6.695
				c0,6.323-4.216,10.415-11.407,10.415c-2.666,0-4.96-0.558-6.695-1.55c-0.683,0.559-1.116,1.24-1.116,2.232
				c0,1.301,0.868,2.604,4.588,2.604h6.386c6.014,0,10.849,2.604,10.849,8.432c0,6.447-5.827,8.928-13.329,8.928
				c-6.386,0-13.205-1.86-13.205-8.68c0-2.852,1.798-5.084,4.712-6.262c-2.294-0.744-3.844-2.604-3.844-5.021
				c0-1.86,0.992-3.349,2.479-4.34c-1.487-1.86-2.231-4.092-2.231-6.758c0-6.324,4.216-10.416,11.407-10.416
				C280.696,35.492,283.052,36.051,284.788,37.043z M281.316,63.329h-6.448c-3.596,0.62-5.207,2.479-5.207,4.96
				c0,3.781,4.339,5.207,9.237,5.207c4.897,0,9.237-1.426,9.237-5.455C288.136,64.631,285.346,63.329,281.316,63.329z
				 M285.532,45.908c0-4.092-2.604-6.82-7.378-6.82s-7.378,2.729-7.378,6.82s2.604,6.819,7.378,6.819S285.532,50,285.532,45.908z"/>
			<path fill="#E6EBE0" d="M308.534,35.492c9.919,0,11.841,7.874,11.841,12.09c0,1.798,0,3.968-2.479,3.968h-18.104
				c0,6.138,3.534,10.104,9.362,10.104c3.596,0,5.703-1.363,7.439-2.665c0.372-0.248,0.62-0.372,1.115-0.372
				c0.992,0,1.798,0.807,1.798,1.798c0,0.683-0.31,1.054-0.682,1.426c-0.93,0.931-4.153,3.472-9.671,3.472
				c-8.246,0-13.392-4.525-13.392-14.941C295.763,40.824,300.475,35.492,308.534,35.492z M308.534,39.088
				c-5.394,0-8.37,3.473-8.742,8.99h16.678C316.47,43.614,314.92,39.088,308.534,39.088z"/>
			<path fill="#E6EBE0" d="M350.135,46.466V63.02c0,1.115-0.868,1.983-1.983,1.983c-1.116,0-1.984-0.868-1.984-1.983V47.271
				c0-4.897-1.426-8.245-7.439-8.245c-6.138,0-8.246,3.72-8.246,8.679V63.02c0,1.115-0.867,1.983-1.983,1.983
				s-1.984-0.868-1.984-1.983V37.848c0-1.115,0.868-1.983,1.984-1.983s1.983,0.868,1.983,1.983v1.984
				c1.179-2.355,4.216-4.34,8.246-4.34C348.274,35.492,350.135,41.196,350.135,46.466z"/>
		</g>
	</g>
</g>
</svg>
