<?xml version="1.0" encoding="utf-8"?>
<!-- Generator: Adobe Illustrator 15.0.0, SVG Export Plug-In . SVG Version: 6.00 Build 0)  -->
<!DOCTYPE svg PUBLIC "-//W3C//DTD SVG 1.1//EN" "http://www.w3.org/Graphics/SVG/1.1/DTD/svg11.dtd">
<svg version="1.1" id="Ebene_1" xmlns="http://www.w3.org/2000/svg" xmlns:xlink="http://www.w3.org/1999/xlink" x="0px" y="0px"
	 width="825px" height="825px" viewBox="0 0 825 825" enable-background="new 0 0 825 825" xml:space="preserve">
<g id="Ebene_5_2_">
	<g id="Forma_1_9_">
		<g>
			<path fill="#353535" d="M449.069,406.794h-7.35c-1.207-19.27-16.746-34.809-36.016-36.016v-7.348c0-1.324-1.086-2.406-2.41-2.406
				s-2.41,1.082-2.41,2.406v7.348c-19.271,1.207-34.812,16.746-36.016,36.016h-7.35c-1.323,0-2.408,1.086-2.408,2.41
				s1.085,2.41,2.408,2.41h7.35c1.203,19.27,16.742,34.812,36.016,36.016v7.354c0,1.322,1.085,2.404,2.409,2.404
				c1.325,0,2.407-1.081,2.407-2.404v-7.354c19.271-1.203,34.812-16.742,36.02-36.016h7.35c1.322,0,2.404-1.086,2.404-2.41
				S450.394,406.794,449.069,406.794z M429.796,411.615h7.105c-1.203,16.742-14.574,29.996-31.195,31.199v-7.109
				c0-1.324-1.086-2.406-2.41-2.406s-2.41,1.082-2.41,2.406v7.109c-16.622-1.203-29.992-14.574-31.194-31.199h7.104
				c1.324,0,2.409-1.082,2.409-2.406s-1.085-2.41-2.409-2.41h-7.109c1.206-16.625,14.577-29.99,31.199-31.197v7.107
				c0,1.324,1.085,2.406,2.409,2.406c1.325,0,2.407-1.082,2.407-2.406v-7.107c16.625,1.201,29.996,14.572,31.199,31.193h-7.105
				c-1.328,0-2.41,1.086-2.41,2.41S428.472,411.615,429.796,411.615z"/>
		</g>
	</g>
</g>
</svg>
