<?xml version="1.0" encoding="UTF-8" standalone="no"?>
<!-- Generator: Adobe Illustrator 15.0.0, SVG Export Plug-In . SVG Version: 6.00 Build 0)  -->

<svg
   xmlns:dc="http://purl.org/dc/elements/1.1/"
   xmlns:cc="http://creativecommons.org/ns#"
   xmlns:rdf="http://www.w3.org/1999/02/22-rdf-syntax-ns#"
   xmlns:svg="http://www.w3.org/2000/svg"
   xmlns="http://www.w3.org/2000/svg"
   xmlns:sodipodi="http://sodipodi.sourceforge.net/DTD/sodipodi-0.dtd"
   xmlns:inkscape="http://www.inkscape.org/namespaces/inkscape"
   version="1.1"
   id="Ebene_1"
   x="0px"
   y="0px"
   width="530.242"
   height="91"
   viewBox="0 0 530.242 91"
   enable-background="new 0 0 825 825"
   xml:space="preserve"
   sodipodi:docname="station_wiederholen.svg"
   inkscape:version="0.92.1 r15371"><metadata
     id="metadata274"><rdf:RDF><cc:Work
         rdf:about=""><dc:format>image/svg+xml</dc:format><dc:type
           rdf:resource="http://purl.org/dc/dcmitype/StillImage" /></cc:Work></rdf:RDF></metadata><defs
     id="defs272" /><sodipodi:namedview
     pagecolor="#ffffff"
     bordercolor="#666666"
     borderopacity="1"
     objecttolerance="10"
     gridtolerance="10"
     guidetolerance="10"
     inkscape:pageopacity="0"
     inkscape:pageshadow="2"
     inkscape:window-width="640"
     inkscape:window-height="480"
     id="namedview270"
     showgrid="false"
     inkscape:zoom="0.28606061"
     inkscape:cx="255.742"
     inkscape:cy="45.5"
     inkscape:window-x="0"
     inkscape:window-y="0"
     inkscape:window-maximized="0"
     inkscape:current-layer="Ebene_1" /><g
     id="g267"
     transform="translate(-156.758,-367)"><path
       stroke-miterlimit="10"
       d="m 159.758,442.674 c 0,6.807 3.862,12.326 8.626,12.326 h 506.99 c 4.764,0 8.626,-5.52 8.626,-12.326 V 382.326 C 684,375.519 680.138,370 675.374,370 h -506.99 c -4.764,0 -8.626,5.52 -8.626,12.326 z"
       id="path225"
       inkscape:connector-curvature="0"
       style="fill:none;stroke:#e6ebe0;stroke-width:6;stroke-miterlimit:10" /><g
       id="g265"><rect
         x="181.603"
         y="386.91101"
         width="484.00101"
         height="47.333"
         id="rect227"
         style="fill:none" /><path
         d="m 199.023,392.307 c -6.51,0 -8.989,3.224 -8.989,6.757 0,10.292 23.435,5.89 23.435,20.831 0,7.75 -5.332,12.027 -14.879,12.027 -7.067,0 -12.337,-3.596 -14.445,-7.626 -0.248,-0.496 -0.31,-0.744 -0.31,-1.116 0,-1.116 0.868,-1.984 1.984,-1.984 0.744,0 1.364,0.372 1.736,0.992 1.984,3.224 5.58,5.89 11.035,5.89 6.82,0 10.664,-2.728 10.664,-8.183 0,-11.594 -23.435,-6.138 -23.435,-20.831 0,-5.704 4.154,-10.602 13.205,-10.602 5.89,0 10.664,2.48 13.268,6.386 0.248,0.372 0.372,0.744 0.372,1.178 0,1.116 -0.868,1.984 -1.984,1.984 -0.558,0 -1.116,-0.186 -1.612,-0.806 -1.861,-2.294 -4.837,-4.897 -10.045,-4.897 z"
         id="path229"
         inkscape:connector-curvature="0"
         style="fill:#e6ebe0" /><path
         d="m 221.778,396.398 c 0,-1.054 0.93,-1.984 1.984,-1.984 1.116,0 1.984,0.93 1.984,1.984 v 6.51 h 4.03 c 1.054,0 1.86,0.806 1.86,1.86 0,1.054 -0.806,1.86 -1.86,1.86 h -4.03 v 17.111 c 0,2.666 1.488,4.092 3.596,4.092 1.054,0 1.922,0.806 1.922,1.86 0,1.054 -0.868,1.86 -1.922,1.86 -4.897,0 -7.563,-3.286 -7.563,-7.812 v -17.111 h -2.418 c -1.054,0 -1.86,-0.806 -1.86,-1.86 0,-1.054 0.806,-1.86 1.86,-1.86 h 2.418 v -6.51 z"
         id="path231"
         inkscape:connector-curvature="0"
         style="fill:#e6ebe0" /><path
         d="m 240.687,408.921 c -0.62,0.682 -1.054,0.868 -1.612,0.868 -0.992,0 -1.798,-0.806 -1.798,-1.798 0,-0.434 0.124,-0.744 0.31,-1.054 1.736,-2.728 5.083,-4.897 10.292,-4.897 7.191,0 11.159,4.216 11.159,10.539 v 17.049 c 0,1.054 -0.868,1.922 -1.922,1.922 -1.054,0 -1.922,-0.868 -1.922,-1.922 v -2.232 c -1.55,2.914 -5.146,4.464 -8.865,4.464 -6.572,0 -10.726,-3.162 -10.726,-8.866 0,-5.456 4.154,-8.742 10.849,-8.742 h 8.742 v -1.674 c 0,-4.216 -2.79,-6.819 -7.315,-6.819 -3.286,10e-4 -5.27,0.992 -7.192,3.162 z m 14.507,11.408 v -2.604 h -8.742 c -4.03,0 -6.819,1.674 -6.819,5.27 0,3.224 2.232,5.27 7.067,5.27 4.341,-10e-4 8.494,-2.666 8.494,-7.936 z"
         id="path233"
         inkscape:connector-curvature="0"
         style="fill:#e6ebe0" /><path
         d="m 268.029,396.398 c 0,-1.054 0.93,-1.984 1.984,-1.984 1.116,0 1.984,0.93 1.984,1.984 v 6.51 h 4.03 c 1.054,0 1.86,0.806 1.86,1.86 0,1.054 -0.806,1.86 -1.86,1.86 h -4.03 v 17.111 c 0,2.666 1.488,4.092 3.596,4.092 1.054,0 1.922,0.806 1.922,1.86 0,1.054 -0.868,1.86 -1.922,1.86 -4.897,0 -7.563,-3.286 -7.563,-7.812 v -17.111 h -2.418 c -1.054,0 -1.86,-0.806 -1.86,-1.86 0,-1.054 0.806,-1.86 1.86,-1.86 h 2.418 v -6.51 z"
         id="path235"
         inkscape:connector-curvature="0"
         style="fill:#e6ebe0" /><path
         d="m 283.343,394.229 c 0,-1.798 0.868,-2.48 2.355,-2.48 1.488,0 2.356,0.682 2.356,2.48 0,1.488 -0.868,2.355 -2.356,2.355 -1.487,0 -2.355,-0.868 -2.355,-2.355 z m 4.34,35.337 c 0,1.116 -0.868,1.984 -1.984,1.984 -1.115,0 -1.983,-0.868 -1.983,-1.984 v -25.171 c 0,-1.116 0.868,-1.984 1.983,-1.984 1.116,0 1.984,0.868 1.984,1.984 z"
         id="path237"
         inkscape:connector-curvature="0"
         style="fill:#e6ebe0" /><path
         d="m 319.921,416.919 c 0,10.167 -4.959,14.941 -13.019,14.941 -7.998,0 -13.02,-4.774 -13.02,-14.941 0,-10.167 5.021,-14.879 13.02,-14.879 8.06,0 13.019,4.711 13.019,14.879 z m -4.029,0 c 0,-7.812 -3.286,-11.283 -8.989,-11.283 -5.704,0 -8.99,3.472 -8.99,11.283 0,7.936 3.286,11.345 8.99,11.345 5.702,0 8.989,-3.41 8.989,-11.345 z"
         id="path239"
         inkscape:connector-curvature="0"
         style="fill:#e6ebe0" /><path
         d="m 349.743,413.013 v 16.553 c 0,1.116 -0.868,1.984 -1.983,1.984 -1.116,0 -1.984,-0.868 -1.984,-1.984 v -15.747 c 0,-4.898 -1.426,-8.246 -7.439,-8.246 -6.138,0 -8.246,3.72 -8.246,8.679 v 15.313 c 0,1.116 -0.867,1.984 -1.983,1.984 -1.116,0 -1.984,-0.868 -1.984,-1.984 v -25.171 c 0,-1.116 0.868,-1.984 1.984,-1.984 1.116,0 1.983,0.868 1.983,1.984 v 1.984 c 1.179,-2.355 4.216,-4.339 8.246,-4.339 9.547,0.001 11.406,5.705 11.406,10.974 z"
         id="path241"
         inkscape:connector-curvature="0"
         style="fill:#e6ebe0" /><path
         d="m 387.749,410.471 -5.704,19.653 c -0.247,0.868 -1.054,1.426 -1.922,1.426 -0.867,0 -1.55,-0.496 -1.859,-1.302 l -9.113,-24.984 c -0.124,-0.31 -0.187,-0.62 -0.187,-0.868 0,-1.116 0.868,-1.984 1.984,-1.984 0.868,0 1.55,0.496 1.859,1.302 l 7.191,20.521 5.89,-20.521 c 0.187,-0.62 0.807,-1.302 1.86,-1.302 1.053,0 1.674,0.682 1.86,1.302 l 5.89,20.521 7.191,-20.521 c 0.31,-0.806 0.991,-1.302 1.859,-1.302 1.116,0 1.984,0.868 1.984,1.984 0,0.248 -0.062,0.558 -0.187,0.868 l -9.113,24.984 c -0.31,0.806 -0.992,1.302 -1.859,1.302 -0.868,0 -1.675,-0.558 -1.922,-1.426 z"
         id="path243"
         inkscape:connector-curvature="0"
         style="fill:#e6ebe0" /><path
         d="m 411.186,394.229 c 0,-1.798 0.868,-2.48 2.356,-2.48 1.487,0 2.355,0.682 2.355,2.48 0,1.488 -0.868,2.355 -2.355,2.355 -1.488,0 -2.356,-0.868 -2.356,-2.355 z m 4.339,35.337 c 0,1.116 -0.868,1.984 -1.983,1.984 -1.116,0 -1.984,-0.868 -1.984,-1.984 v -25.171 c 0,-1.116 0.868,-1.984 1.984,-1.984 1.115,0 1.983,0.868 1.983,1.984 z"
         id="path245"
         inkscape:connector-curvature="0"
         style="fill:#e6ebe0" /><path
         d="m 434.497,402.04 c 9.919,0 11.841,7.874 11.841,12.089 0,1.798 0,3.968 -2.479,3.968 h -18.104 c 0,6.137 3.534,10.105 9.362,10.105 3.596,0 5.703,-1.364 7.439,-2.666 0.372,-0.248 0.62,-0.372 1.115,-0.372 0.992,0 1.798,0.806 1.798,1.798 0,0.682 -0.31,1.054 -0.682,1.426 -0.93,0.93 -4.153,3.472 -9.671,3.472 -8.246,0 -13.392,-4.526 -13.392,-14.941 0.002,-9.547 4.714,-14.879 12.773,-14.879 z m 0,3.596 c -5.394,0 -8.37,3.472 -8.742,8.989 h 16.678 c 0,-4.463 -1.55,-8.989 -7.936,-8.989 z"
         id="path247"
         inkscape:connector-curvature="0"
         style="fill:#e6ebe0" /><path
         d="m 471.51,406.07 v -17.173 c 0,-1.116 0.868,-1.984 1.984,-1.984 1.115,0 1.983,0.868 1.983,1.984 v 30.75 c 0,8.184 -5.084,12.213 -12.151,12.213 -7.997,0 -12.709,-4.774 -12.709,-14.941 0,-10.167 4.464,-14.879 12.461,-14.879 3.968,0 7.006,2.046 8.432,4.03 z m 0,5.021 c 0,0 -2.355,-5.456 -8.184,-5.456 -5.642,0 -8.741,3.658 -8.741,11.283 0,7.75 3.038,11.345 8.741,11.345 4.774,0 8.184,-2.728 8.184,-8.617 z"
         id="path249"
         inkscape:connector-curvature="0"
         style="fill:#e6ebe0" /><path
         d="m 494.45,402.04 c 9.919,0 11.841,7.874 11.841,12.089 0,1.798 0,3.968 -2.479,3.968 h -18.104 c 0,6.137 3.534,10.105 9.362,10.105 3.596,0 5.703,-1.364 7.439,-2.666 0.372,-0.248 0.62,-0.372 1.115,-0.372 0.992,0 1.798,0.806 1.798,1.798 0,0.682 -0.31,1.054 -0.682,1.426 -0.93,0.93 -4.153,3.472 -9.671,3.472 -8.246,0 -13.392,-4.526 -13.392,-14.941 0.002,-9.547 4.714,-14.879 12.773,-14.879 z m 0,3.596 c -5.394,0 -8.37,3.472 -8.742,8.989 h 16.678 c 0,-4.463 -1.55,-8.989 -7.936,-8.989 z"
         id="path251"
         inkscape:connector-curvature="0"
         style="fill:#e6ebe0" /><path
         d="m 516.397,407.124 c 1.24,-2.852 4.34,-4.959 8.618,-4.959 1.054,0 1.922,0.868 1.922,1.922 0,1.054 -0.868,1.922 -1.922,1.922 -5.704,0 -8.618,3.968 -8.618,9.671 v 13.887 c 0,1.116 -0.867,1.984 -1.983,1.984 -1.116,0 -1.984,-0.868 -1.984,-1.984 v -25.171 c 0,-1.116 0.868,-1.984 1.984,-1.984 1.116,0 1.983,0.868 1.983,1.984 z"
         id="path253"
         inkscape:connector-curvature="0"
         style="fill:#e6ebe0" /><path
         d="m 555.208,413.013 v 16.553 c 0,1.116 -0.868,1.984 -1.983,1.984 -1.116,0 -1.984,-0.868 -1.984,-1.984 v -15.747 c 0,-4.898 -1.426,-8.246 -7.439,-8.246 -6.138,0 -8.246,3.72 -8.246,8.679 v 15.313 c 0,1.116 -0.867,1.984 -1.983,1.984 -1.116,0 -1.984,-0.868 -1.984,-1.984 v -40.67 c 0,-1.116 0.868,-1.984 1.984,-1.984 1.116,0 1.983,0.868 1.983,1.984 v 17.483 c 1.179,-2.355 4.216,-4.339 8.246,-4.339 9.547,0.001 11.406,5.705 11.406,10.974 z"
         id="path255"
         inkscape:connector-curvature="0"
         style="fill:#e6ebe0" /><path
         d="m 586.827,416.919 c 0,10.167 -4.959,14.941 -13.019,14.941 -7.998,0 -13.02,-4.774 -13.02,-14.941 0,-10.167 5.021,-14.879 13.02,-14.879 8.06,0 13.019,4.711 13.019,14.879 z m -4.029,0 c 0,-7.812 -3.286,-11.283 -8.989,-11.283 -5.704,0 -8.99,3.472 -8.99,11.283 0,7.936 3.286,11.345 8.99,11.345 5.703,0 8.989,-3.41 8.989,-11.345 z"
         id="path257"
         inkscape:connector-curvature="0"
         style="fill:#e6ebe0" /><path
         d="m 596.687,388.896 v 35.4 c 0,2.48 0.807,3.534 2.48,3.534 0.992,0 1.859,0.806 1.859,1.86 0,1.054 -0.867,1.86 -1.859,1.86 -4.154,0 -6.448,-2.48 -6.448,-7.254 v -35.4 c 0,-1.054 0.931,-1.984 1.984,-1.984 1.116,0.001 1.984,0.931 1.984,1.984 z"
         id="path259"
         inkscape:connector-curvature="0"
         style="fill:#e6ebe0" /><path
         d="m 617.209,402.04 c 9.919,0 11.841,7.874 11.841,12.089 0,1.798 0,3.968 -2.479,3.968 h -18.104 c 0,6.137 3.534,10.105 9.362,10.105 3.596,0 5.703,-1.364 7.439,-2.666 0.372,-0.248 0.62,-0.372 1.115,-0.372 0.992,0 1.798,0.806 1.798,1.798 0,0.682 -0.31,1.054 -0.682,1.426 -0.93,0.93 -4.153,3.472 -9.671,3.472 -8.246,0 -13.392,-4.526 -13.392,-14.941 0.002,-9.547 4.713,-14.879 12.773,-14.879 z m 0,3.596 c -5.394,0 -8.37,3.472 -8.742,8.989 h 16.678 c 0,-4.463 -1.55,-8.989 -7.936,-8.989 z"
         id="path261"
         inkscape:connector-curvature="0"
         style="fill:#e6ebe0" /><path
         d="m 658.81,413.013 v 16.553 c 0,1.116 -0.868,1.984 -1.983,1.984 -1.116,0 -1.984,-0.868 -1.984,-1.984 v -15.747 c 0,-4.898 -1.426,-8.246 -7.439,-8.246 -6.138,0 -8.246,3.72 -8.246,8.679 v 15.313 c 0,1.116 -0.867,1.984 -1.983,1.984 -1.116,0 -1.984,-0.868 -1.984,-1.984 v -25.171 c 0,-1.116 0.868,-1.984 1.984,-1.984 1.116,0 1.983,0.868 1.983,1.984 v 1.984 c 1.179,-2.355 4.216,-4.339 8.246,-4.339 9.546,0.001 11.406,5.705 11.406,10.974 z"
         id="path263"
         inkscape:connector-curvature="0"
         style="fill:#e6ebe0" /></g></g></svg>