<?xml version="1.0" encoding="utf-8"?>
<!-- Generator: Adobe Illustrator 15.0.0, SVG Export Plug-In . SVG Version: 6.00 Build 0)  -->
<!DOCTYPE svg PUBLIC "-//W3C//DTD SVG 1.1//EN" "http://www.w3.org/Graphics/SVG/1.1/DTD/svg11.dtd">
<svg version="1.1" id="Ebene_1" xmlns="http://www.w3.org/2000/svg" xmlns:xlink="http://www.w3.org/1999/xlink" x="0px" y="0px"
	 width="825px" height="825px" viewBox="0 0 825 825" enable-background="new 0 0 825 825" xml:space="preserve">
<g>
	<path fill="none" stroke="#E6EBE0" stroke-width="6" stroke-miterlimit="10" d="M159.758,442.674
		c0,6.807,3.862,12.326,8.626,12.326h506.99c4.764,0,8.626-5.52,8.626-12.326v-60.348c0-6.807-3.862-12.326-8.626-12.326h-506.99
		c-4.764,0-8.626,5.52-8.626,12.326V442.674z"/>
	<g>
		<rect x="181.603" y="386.911" fill="none" width="484.001" height="47.333"/>
		<path fill="#E6EBE0" d="M199.023,392.307c-6.51,0-8.989,3.224-8.989,6.757c0,10.292,23.435,5.89,23.435,20.831
			c0,7.75-5.332,12.027-14.879,12.027c-7.067,0-12.337-3.596-14.445-7.626c-0.248-0.496-0.31-0.744-0.31-1.116
			c0-1.116,0.868-1.984,1.984-1.984c0.744,0,1.364,0.372,1.736,0.992c1.984,3.224,5.58,5.89,11.035,5.89
			c6.82,0,10.664-2.728,10.664-8.183c0-11.594-23.435-6.138-23.435-20.831c0-5.704,4.154-10.602,13.205-10.602
			c5.89,0,10.664,2.48,13.268,6.386c0.248,0.372,0.372,0.744,0.372,1.178c0,1.116-0.868,1.984-1.984,1.984
			c-0.558,0-1.116-0.186-1.612-0.806C207.207,394.91,204.231,392.307,199.023,392.307z"/>
		<path fill="#E6EBE0" d="M221.778,396.398c0-1.054,0.93-1.984,1.984-1.984c1.116,0,1.984,0.93,1.984,1.984v6.51h4.03
			c1.054,0,1.86,0.806,1.86,1.86c0,1.054-0.806,1.86-1.86,1.86h-4.03v17.111c0,2.666,1.488,4.092,3.596,4.092
			c1.054,0,1.922,0.806,1.922,1.86c0,1.054-0.868,1.86-1.922,1.86c-4.897,0-7.563-3.286-7.563-7.812v-17.111h-2.418
			c-1.054,0-1.86-0.806-1.86-1.86c0-1.054,0.806-1.86,1.86-1.86h2.418V396.398z"/>
		<path fill="#E6EBE0" d="M240.687,408.921c-0.62,0.682-1.054,0.868-1.612,0.868c-0.992,0-1.798-0.806-1.798-1.798
			c0-0.434,0.124-0.744,0.31-1.054c1.736-2.728,5.083-4.897,10.292-4.897c7.191,0,11.159,4.216,11.159,10.539v17.049
			c0,1.054-0.868,1.922-1.922,1.922c-1.054,0-1.922-0.868-1.922-1.922v-2.232c-1.55,2.914-5.146,4.464-8.865,4.464
			c-6.572,0-10.726-3.162-10.726-8.866c0-5.456,4.154-8.742,10.849-8.742h8.742v-1.674c0-4.216-2.79-6.819-7.315-6.819
			C244.593,405.76,242.609,406.751,240.687,408.921z M255.194,420.329v-2.604h-8.742c-4.03,0-6.819,1.674-6.819,5.27
			c0,3.224,2.232,5.27,7.067,5.27C251.041,428.264,255.194,425.599,255.194,420.329z"/>
		<path fill="#E6EBE0" d="M268.029,396.398c0-1.054,0.93-1.984,1.984-1.984c1.116,0,1.984,0.93,1.984,1.984v6.51h4.03
			c1.054,0,1.86,0.806,1.86,1.86c0,1.054-0.806,1.86-1.86,1.86h-4.03v17.111c0,2.666,1.488,4.092,3.596,4.092
			c1.054,0,1.922,0.806,1.922,1.86c0,1.054-0.868,1.86-1.922,1.86c-4.897,0-7.563-3.286-7.563-7.812v-17.111h-2.418
			c-1.054,0-1.86-0.806-1.86-1.86c0-1.054,0.806-1.86,1.86-1.86h2.418V396.398z"/>
		<path fill="#E6EBE0" d="M283.343,394.229c0-1.798,0.868-2.48,2.355-2.48c1.488,0,2.356,0.682,2.356,2.48
			c0,1.488-0.868,2.355-2.356,2.355C284.211,396.584,283.343,395.716,283.343,394.229z M287.683,429.566
			c0,1.116-0.868,1.984-1.984,1.984c-1.115,0-1.983-0.868-1.983-1.984v-25.171c0-1.116,0.868-1.984,1.983-1.984
			c1.116,0,1.984,0.868,1.984,1.984V429.566z"/>
		<path fill="#E6EBE0" d="M319.921,416.919c0,10.167-4.959,14.941-13.019,14.941c-7.998,0-13.02-4.774-13.02-14.941
			s5.021-14.879,13.02-14.879C314.962,402.04,319.921,406.751,319.921,416.919z M315.892,416.919c0-7.812-3.286-11.283-8.989-11.283
			c-5.704,0-8.99,3.472-8.99,11.283c0,7.936,3.286,11.345,8.99,11.345C312.605,428.264,315.892,424.854,315.892,416.919z"/>
		<path fill="#E6EBE0" d="M349.743,413.013v16.553c0,1.116-0.868,1.984-1.983,1.984c-1.116,0-1.984-0.868-1.984-1.984v-15.747
			c0-4.898-1.426-8.246-7.439-8.246c-6.138,0-8.246,3.72-8.246,8.679v15.313c0,1.116-0.867,1.984-1.983,1.984
			s-1.984-0.868-1.984-1.984v-25.171c0-1.116,0.868-1.984,1.984-1.984s1.983,0.868,1.983,1.984v1.984
			c1.179-2.355,4.216-4.339,8.246-4.339C347.884,402.04,349.743,407.744,349.743,413.013z"/>
		<path fill="#E6EBE0" d="M387.749,410.471l-5.704,19.653c-0.247,0.868-1.054,1.426-1.922,1.426c-0.867,0-1.55-0.496-1.859-1.302
			l-9.113-24.984c-0.124-0.31-0.187-0.62-0.187-0.868c0-1.116,0.868-1.984,1.984-1.984c0.868,0,1.55,0.496,1.859,1.302l7.191,20.521
			l5.89-20.521c0.187-0.62,0.807-1.302,1.86-1.302s1.674,0.682,1.86,1.302l5.89,20.521l7.191-20.521
			c0.31-0.806,0.991-1.302,1.859-1.302c1.116,0,1.984,0.868,1.984,1.984c0,0.248-0.062,0.558-0.187,0.868l-9.113,24.984
			c-0.31,0.806-0.992,1.302-1.859,1.302c-0.868,0-1.675-0.558-1.922-1.426L387.749,410.471z"/>
		<path fill="#E6EBE0" d="M411.186,394.229c0-1.798,0.868-2.48,2.356-2.48c1.487,0,2.355,0.682,2.355,2.48
			c0,1.488-0.868,2.355-2.355,2.355C412.054,396.584,411.186,395.716,411.186,394.229z M415.525,429.566
			c0,1.116-0.868,1.984-1.983,1.984c-1.116,0-1.984-0.868-1.984-1.984v-25.171c0-1.116,0.868-1.984,1.984-1.984
			c1.115,0,1.983,0.868,1.983,1.984V429.566z"/>
		<path fill="#E6EBE0" d="M434.497,402.04c9.919,0,11.841,7.874,11.841,12.089c0,1.798,0,3.968-2.479,3.968h-18.104
			c0,6.137,3.534,10.105,9.362,10.105c3.596,0,5.703-1.364,7.439-2.666c0.372-0.248,0.62-0.372,1.115-0.372
			c0.992,0,1.798,0.806,1.798,1.798c0,0.682-0.31,1.054-0.682,1.426c-0.93,0.93-4.153,3.472-9.671,3.472
			c-8.246,0-13.392-4.526-13.392-14.941C421.726,407.372,426.438,402.04,434.497,402.04z M434.497,405.636
			c-5.394,0-8.37,3.472-8.742,8.989h16.678C442.433,410.162,440.883,405.636,434.497,405.636z"/>
		<path fill="#E6EBE0" d="M471.51,406.07v-17.173c0-1.116,0.868-1.984,1.984-1.984c1.115,0,1.983,0.868,1.983,1.984v30.75
			c0,8.184-5.084,12.213-12.151,12.213c-7.997,0-12.709-4.774-12.709-14.941s4.464-14.879,12.461-14.879
			C467.046,402.04,470.084,404.086,471.51,406.07z M471.51,411.091c0,0-2.355-5.456-8.184-5.456c-5.642,0-8.741,3.658-8.741,11.283
			c0,7.75,3.038,11.345,8.741,11.345c4.774,0,8.184-2.728,8.184-8.617V411.091z"/>
		<path fill="#E6EBE0" d="M494.45,402.04c9.919,0,11.841,7.874,11.841,12.089c0,1.798,0,3.968-2.479,3.968h-18.104
			c0,6.137,3.534,10.105,9.362,10.105c3.596,0,5.703-1.364,7.439-2.666c0.372-0.248,0.62-0.372,1.115-0.372
			c0.992,0,1.798,0.806,1.798,1.798c0,0.682-0.31,1.054-0.682,1.426c-0.93,0.93-4.153,3.472-9.671,3.472
			c-8.246,0-13.392-4.526-13.392-14.941C481.679,407.372,486.391,402.04,494.45,402.04z M494.45,405.636
			c-5.394,0-8.37,3.472-8.742,8.989h16.678C502.386,410.162,500.836,405.636,494.45,405.636z"/>
		<path fill="#E6EBE0" d="M516.397,407.124c1.24-2.852,4.34-4.959,8.618-4.959c1.054,0,1.922,0.868,1.922,1.922
			c0,1.054-0.868,1.922-1.922,1.922c-5.704,0-8.618,3.968-8.618,9.671v13.887c0,1.116-0.867,1.984-1.983,1.984
			s-1.984-0.868-1.984-1.984v-25.171c0-1.116,0.868-1.984,1.984-1.984s1.983,0.868,1.983,1.984V407.124z"/>
		<path fill="#E6EBE0" d="M555.208,413.013v16.553c0,1.116-0.868,1.984-1.983,1.984c-1.116,0-1.984-0.868-1.984-1.984v-15.747
			c0-4.898-1.426-8.246-7.439-8.246c-6.138,0-8.246,3.72-8.246,8.679v15.313c0,1.116-0.867,1.984-1.983,1.984
			s-1.984-0.868-1.984-1.984v-40.67c0-1.116,0.868-1.984,1.984-1.984s1.983,0.868,1.983,1.984v17.483
			c1.179-2.355,4.216-4.339,8.246-4.339C553.349,402.04,555.208,407.744,555.208,413.013z"/>
		<path fill="#E6EBE0" d="M586.827,416.919c0,10.167-4.959,14.941-13.019,14.941c-7.998,0-13.02-4.774-13.02-14.941
			s5.021-14.879,13.02-14.879C581.868,402.04,586.827,406.751,586.827,416.919z M582.798,416.919c0-7.812-3.286-11.283-8.989-11.283
			c-5.704,0-8.99,3.472-8.99,11.283c0,7.936,3.286,11.345,8.99,11.345C579.512,428.264,582.798,424.854,582.798,416.919z"/>
		<path fill="#E6EBE0" d="M596.687,388.896v35.4c0,2.48,0.807,3.534,2.48,3.534c0.992,0,1.859,0.806,1.859,1.86
			c0,1.054-0.867,1.86-1.859,1.86c-4.154,0-6.448-2.48-6.448-7.254v-35.4c0-1.054,0.931-1.984,1.984-1.984
			C595.819,386.913,596.687,387.843,596.687,388.896z"/>
		<path fill="#E6EBE0" d="M617.209,402.04c9.919,0,11.841,7.874,11.841,12.089c0,1.798,0,3.968-2.479,3.968h-18.104
			c0,6.137,3.534,10.105,9.362,10.105c3.596,0,5.703-1.364,7.439-2.666c0.372-0.248,0.62-0.372,1.115-0.372
			c0.992,0,1.798,0.806,1.798,1.798c0,0.682-0.31,1.054-0.682,1.426c-0.93,0.93-4.153,3.472-9.671,3.472
			c-8.246,0-13.392-4.526-13.392-14.941C604.438,407.372,609.149,402.04,617.209,402.04z M617.209,405.636
			c-5.394,0-8.37,3.472-8.742,8.989h16.678C625.145,410.162,623.595,405.636,617.209,405.636z"/>
		<path fill="#E6EBE0" d="M658.81,413.013v16.553c0,1.116-0.868,1.984-1.983,1.984c-1.116,0-1.984-0.868-1.984-1.984v-15.747
			c0-4.898-1.426-8.246-7.439-8.246c-6.138,0-8.246,3.72-8.246,8.679v15.313c0,1.116-0.867,1.984-1.983,1.984
			s-1.984-0.868-1.984-1.984v-25.171c0-1.116,0.868-1.984,1.984-1.984s1.983,0.868,1.983,1.984v1.984
			c1.179-2.355,4.216-4.339,8.246-4.339C656.95,402.04,658.81,407.744,658.81,413.013z"/>
	</g>
</g>
</svg>
