<?xml version="1.0" encoding="utf-8"?>
<!-- Generator: Adobe Illustrator 15.0.0, SVG Export Plug-In . SVG Version: 6.00 Build 0)  -->
<!DOCTYPE svg PUBLIC "-//W3C//DTD SVG 1.1//EN" "http://www.w3.org/Graphics/SVG/1.1/DTD/svg11.dtd">
<svg version="1.1" id="Ebene_1" xmlns="http://www.w3.org/2000/svg" xmlns:xlink="http://www.w3.org/1999/xlink" x="0px" y="0px"
	 width="825px" height="825px" viewBox="0 0 825 825" enable-background="new 0 0 825 825" xml:space="preserve">
<g id="Ebene_2_13_">
	<g id="Forma_1_18_">
		<g>
			<path fill="#353535" d="M382.457,364.317c-26.567,0-48.182,21.612-48.182,48.185c0,26.564,21.613,48.182,48.182,48.182
				c26.57,0,48.183-21.615,48.183-48.182C430.641,385.929,409.025,364.317,382.457,364.317z M382.457,455.233
				c-23.563,0-42.735-19.17-42.735-42.735s19.172-42.738,42.735-42.738c23.564,0,42.736,19.175,42.736,42.738
				C425.193,436.063,406.023,455.233,382.457,455.233z M368.356,390.852h-1.188c-3.504,0-6.354,2.852-6.354,6.354v30.582
				c0,3.504,2.85,6.354,6.354,6.354h1.188c3.504,0,6.357-2.854,6.357-6.354v-30.582C374.714,393.703,371.86,390.852,368.356,390.852
				z M369.267,427.789c0,0.492-0.418,0.908-0.91,0.908h-1.188c-0.493,0-0.907-0.416-0.907-0.908v-30.582
				c0-0.494,0.416-0.91,0.907-0.91h1.188c0.492,0,0.91,0.416,0.91,0.91V427.789z"/>
		</g>
	</g>
</g>
<g id="Ebene_2_12_">
	<g id="Forma_1_17_">
		<g>
			<path fill="#353535" d="M397.606,391.019h-1.188c-3.504,0-6.354,2.852-6.354,6.354v30.582c0,3.504,2.85,6.354,6.354,6.354h1.188
				c3.504,0,6.357-2.854,6.357-6.354v-30.582C403.964,393.87,401.11,391.019,397.606,391.019z M398.517,427.956
				c0,0.492-0.418,0.908-0.91,0.908h-1.188c-0.493,0-0.907-0.416-0.907-0.908v-30.582c0-0.494,0.416-0.91,0.907-0.91h1.188
				c0.492,0,0.91,0.416,0.91,0.91V427.956z"/>
		</g>
	</g>
</g>
</svg>
