<?xml version="1.0" encoding="UTF-8" standalone="no"?>
<!-- Generator: Adobe Illustrator 15.0.0, SVG Export Plug-In . SVG Version: 6.00 Build 0)  -->

<svg
   xmlns:dc="http://purl.org/dc/elements/1.1/"
   xmlns:cc="http://creativecommons.org/ns#"
   xmlns:rdf="http://www.w3.org/1999/02/22-rdf-syntax-ns#"
   xmlns:svg="http://www.w3.org/2000/svg"
   xmlns="http://www.w3.org/2000/svg"
   xmlns:sodipodi="http://sodipodi.sourceforge.net/DTD/sodipodi-0.dtd"
   xmlns:inkscape="http://www.inkscape.org/namespaces/inkscape"
   version="1.1"
   id="Ebene_1"
   x="0px"
   y="0px"
   width="96.364998"
   height="96.366997"
   viewBox="0 0 96.364998 96.366997"
   enable-background="new 0 0 825 825"
   xml:space="preserve"
   sodipodi:docname="stop_dunkel.svg"
   inkscape:version="0.92.1 r15371"><metadata
     id="metadata293"><rdf:RDF><cc:Work
         rdf:about=""><dc:format>image/svg+xml</dc:format><dc:type
           rdf:resource="http://purl.org/dc/dcmitype/StillImage" /></cc:Work></rdf:RDF></metadata><defs
     id="defs291" /><sodipodi:namedview
     pagecolor="#ffffff"
     bordercolor="#666666"
     borderopacity="1"
     objecttolerance="10"
     gridtolerance="10"
     guidetolerance="10"
     inkscape:pageopacity="0"
     inkscape:pageshadow="2"
     inkscape:window-width="640"
     inkscape:window-height="480"
     id="namedview289"
     showgrid="false"
     inkscape:zoom="0.28606061"
     inkscape:cx="78.225"
     inkscape:cy="48.184"
     inkscape:window-x="0"
     inkscape:window-y="0"
     inkscape:window-maximized="0"
     inkscape:current-layer="Ebene_1" /><g
     id="Ebene_2_13_"
     transform="translate(-334.275,-364.317)"><g
       id="Forma_1_18_"><g
         id="g278"><path
           d="m 382.457,364.317 c -26.567,0 -48.182,21.612 -48.182,48.185 0,26.564 21.613,48.182 48.182,48.182 26.57,0 48.183,-21.615 48.183,-48.182 0.001,-26.573 -21.615,-48.185 -48.183,-48.185 z m 0,90.916 c -23.563,0 -42.735,-19.17 -42.735,-42.735 0,-23.565 19.172,-42.738 42.735,-42.738 23.564,0 42.736,19.175 42.736,42.738 0,23.565 -19.17,42.735 -42.736,42.735 z m -14.101,-64.381 h -1.188 c -3.504,0 -6.354,2.852 -6.354,6.354 v 30.582 c 0,3.504 2.85,6.354 6.354,6.354 h 1.188 c 3.504,0 6.357,-2.854 6.357,-6.354 v -30.582 c 10e-4,-3.503 -2.853,-6.354 -6.357,-6.354 z m 0.911,36.937 c 0,0.492 -0.418,0.908 -0.91,0.908 h -1.188 c -0.493,0 -0.907,-0.416 -0.907,-0.908 v -30.582 c 0,-0.494 0.416,-0.91 0.907,-0.91 h 1.188 c 0.492,0 0.91,0.416 0.91,0.91 z"
           id="path276"
           inkscape:connector-curvature="0"
           style="fill:#353535" /></g></g></g><g
     id="Ebene_2_12_"
     transform="translate(-334.275,-364.317)"><g
       id="Forma_1_17_"><g
         id="g284"><path
           d="m 397.606,391.019 h -1.188 c -3.504,0 -6.354,2.852 -6.354,6.354 v 30.582 c 0,3.504 2.85,6.354 6.354,6.354 h 1.188 c 3.504,0 6.357,-2.854 6.357,-6.354 v -30.582 c 10e-4,-3.503 -2.853,-6.354 -6.357,-6.354 z m 0.911,36.937 c 0,0.492 -0.418,0.908 -0.91,0.908 h -1.188 c -0.493,0 -0.907,-0.416 -0.907,-0.908 v -30.582 c 0,-0.494 0.416,-0.91 0.907,-0.91 h 1.188 c 0.492,0 0.91,0.416 0.91,0.91 z"
           id="path282"
           inkscape:connector-curvature="0"
           style="fill:#353535" /></g></g></g></svg>