<?xml version="1.0" encoding="utf-8"?>
<!-- Generator: Adobe Illustrator 15.0.0, SVG Export Plug-In . SVG Version: 6.00 Build 0)  -->
<!DOCTYPE svg PUBLIC "-//W3C//DTD SVG 1.1//EN" "http://www.w3.org/Graphics/SVG/1.1/DTD/svg11.dtd">
<svg version="1.1" id="Ebene_1" xmlns="http://www.w3.org/2000/svg" xmlns:xlink="http://www.w3.org/1999/xlink" x="0px" y="0px"
	 width="42.365px" height="42.365px" viewBox="0 0 42.365 42.365" enable-background="new 0 0 42.365 42.365" xml:space="preserve">
<g id="Ebene_9_1_">
	<g id="Forma_1_5_">
		<g>
			<path fill="#363636" d="M0.794,0.796c-1.059,1.057-1.059,2.646,0,3.702l16.68,16.685L0.794,37.862
				c-1.059,1.061-1.059,2.648,0,3.707c1.059,1.061,2.648,1.061,3.707,0l16.68-16.679l16.683,16.679c1.059,1.061,2.647,1.061,3.708,0
				c1.059-1.057,1.059-2.646,0-3.707L24.888,21.183L41.571,4.499c1.059-1.057,1.059-2.646,0-3.702c-1.061-1.062-2.649-1.062-3.708,0
				l-16.683,16.68L4.501,0.796C3.442-0.264,1.853-0.264,0.794,0.796z"/>
		</g>
	</g>
</g>
</svg>
