<?xml version="1.0" encoding="utf-8"?>
<!-- Generator: Adobe Illustrator 15.0.0, SVG Export Plug-In . SVG Version: 6.00 Build 0)  -->
<!DOCTYPE svg PUBLIC "-//W3C//DTD SVG 1.1//EN" "http://www.w3.org/Graphics/SVG/1.1/DTD/svg11.dtd">
<svg version="1.1" id="Ebene_1" xmlns="http://www.w3.org/2000/svg" xmlns:xlink="http://www.w3.org/1999/xlink" x="0px" y="0px"
	 width="825px" height="825px" viewBox="0 0 825 825" enable-background="new 0 0 825 825" xml:space="preserve">
<path fill="none" stroke="#353535" stroke-width="6" stroke-miterlimit="10" d="M257.425,442.674c0,6.807,3.862,12.326,8.626,12.326
	h270.323c4.764,0,8.626-5.52,8.626-12.326v-60.348c0-6.807-3.862-12.326-8.626-12.326H266.051c-4.764,0-8.626,5.52-8.626,12.326
	V442.674z"/>
<g>
	<rect x="279.27" y="386.91" fill="none" width="242.001" height="47.334"/>
	<path fill="#353535" d="M285.29,402.905h16.987c1.054,0,1.86,0.806,1.86,1.86c0,0.558-0.248,0.992-0.434,1.24l-15.438,21.203
		h14.321c1.054,0,1.922,0.868,1.922,1.922c0,1.054-0.868,1.922-1.922,1.922h-18.165c-1.054,0-1.86-0.806-1.86-1.86
		c0-0.558,0.186-0.93,0.434-1.24l15.623-21.327H285.29c-1.054,0-1.86-0.806-1.86-1.86
		C283.43,403.711,284.236,402.905,285.29,402.905z"/>
	<path fill="#353535" d="M313.562,404.393v16.181c0,4.03,1.302,7.501,7.563,7.501c6.262,0,7.564-3.472,7.564-7.501v-16.181
		c0-1.116,0.93-1.984,2.046-1.984c1.054,0,1.922,0.868,1.922,1.984v16.181c0,5.89-1.922,11.284-11.532,11.284
		c-9.547,0-11.531-5.394-11.531-11.284v-16.181c0-1.116,0.868-1.984,1.984-1.984C312.632,402.409,313.562,403.277,313.562,404.393z"
		/>
	<path fill="#353535" d="M382.751,413.01v16.553c0,1.116-0.868,1.984-1.983,1.984c-1.116,0-1.984-0.868-1.984-1.984v-15.747
		c0-4.898-1.736-8.246-7.75-8.246c-5.332,0-7.75,2.852-7.75,7.439v16.553c0,1.116-0.868,1.984-1.984,1.984
		c-1.116,0-1.984-0.868-1.984-1.984v-15.747c0-4.898-1.55-8.246-7.625-8.246c-5.766,0-7.625,3.472-7.625,8.679v15.313
		c0,1.116-0.868,1.984-1.984,1.984s-1.984-0.868-1.984-1.984v-25.171c0-1.116,0.868-1.984,1.984-1.984s1.984,0.868,1.984,1.984
		v1.984c1.054-2.293,4.03-4.339,8.06-4.339c5.083,0,8.37,1.86,9.857,4.339c1.55-2.417,4.278-4.339,9.051-4.339
		C380.581,402.037,382.751,407.741,382.751,413.01z"/>
	<path fill="#353535" d="M418.341,392.304c-6.51,0-8.989,3.224-8.989,6.757c0,10.292,23.435,5.89,23.435,20.831
		c0,7.75-5.332,12.027-14.879,12.027c-7.067,0-12.338-3.596-14.445-7.626c-0.248-0.496-0.311-0.744-0.311-1.116
		c0-1.116,0.868-1.984,1.984-1.984c0.744,0,1.364,0.372,1.735,0.992c1.984,3.224,5.58,5.89,11.036,5.89
		c6.819,0,10.663-2.728,10.663-8.183c0-11.594-23.435-6.138-23.435-20.831c0-5.704,4.153-10.602,13.205-10.602
		c5.89,0,10.663,2.48,13.268,6.386c0.248,0.372,0.372,0.744,0.372,1.178c0,1.116-0.868,1.984-1.984,1.984
		c-0.558,0-1.116-0.186-1.611-0.806C426.524,394.907,423.549,392.304,418.341,392.304z"/>
	<path fill="#353535" d="M441.096,396.395c0-1.054,0.93-1.984,1.983-1.984c1.116,0,1.984,0.93,1.984,1.984v6.51h4.029
		c1.054,0,1.86,0.806,1.86,1.86c0,1.054-0.807,1.86-1.86,1.86h-4.029v17.111c0,2.666,1.487,4.092,3.596,4.092
		c1.054,0,1.922,0.806,1.922,1.86c0,1.054-0.868,1.86-1.922,1.86c-4.898,0-7.563-3.286-7.563-7.812v-17.111h-2.418
		c-1.055,0-1.86-0.806-1.86-1.86c0-1.054,0.806-1.86,1.86-1.86h2.418V396.395z"/>
	<path fill="#353535" d="M460.005,408.918c-0.62,0.682-1.054,0.868-1.611,0.868c-0.992,0-1.798-0.806-1.798-1.798
		c0-0.434,0.124-0.744,0.31-1.054c1.736-2.728,5.084-4.897,10.291-4.897c7.192,0,11.16,4.216,11.16,10.539v17.049
		c0,1.054-0.868,1.922-1.922,1.922c-1.055,0-1.922-0.868-1.922-1.922v-2.232c-1.551,2.914-5.146,4.464-8.866,4.464
		c-6.571,0-10.726-3.162-10.726-8.866c0-5.456,4.154-8.742,10.85-8.742h8.742v-1.674c0-4.216-2.79-6.819-7.316-6.819
		C463.911,405.757,461.927,406.749,460.005,408.918z M474.513,420.326v-2.604h-8.742c-4.029,0-6.819,1.674-6.819,5.27
		c0,3.224,2.231,5.27,7.067,5.27C470.358,428.261,474.513,425.596,474.513,420.326z"/>
	<path fill="#353535" d="M489.765,407.121c1.24-2.852,4.34-4.959,8.618-4.959c1.054,0,1.922,0.868,1.922,1.922
		c0,1.054-0.868,1.922-1.922,1.922c-5.704,0-8.618,3.968-8.618,9.671v13.887c0,1.116-0.867,1.984-1.983,1.984
		s-1.984-0.868-1.984-1.984v-25.171c0-1.116,0.868-1.984,1.984-1.984s1.983,0.868,1.983,1.984V407.121z"/>
	<path fill="#353535" d="M507.744,396.395c0-1.054,0.93-1.984,1.983-1.984c1.116,0,1.984,0.93,1.984,1.984v6.51h4.029
		c1.054,0,1.86,0.806,1.86,1.86c0,1.054-0.807,1.86-1.86,1.86h-4.029v17.111c0,2.666,1.487,4.092,3.596,4.092
		c1.054,0,1.922,0.806,1.922,1.86c0,1.054-0.868,1.86-1.922,1.86c-4.898,0-7.563-3.286-7.563-7.812v-17.111h-2.418
		c-1.055,0-1.86-0.806-1.86-1.86c0-1.054,0.806-1.86,1.86-1.86h2.418V396.395z"/>
</g>
</svg>
