<?xml version="1.0" encoding="UTF-8" standalone="no"?>
<!-- Generator: Adobe Illustrator 15.0.0, SVG Export Plug-In . SVG Version: 6.00 Build 0)  -->

<svg
   xmlns:dc="http://purl.org/dc/elements/1.1/"
   xmlns:cc="http://creativecommons.org/ns#"
   xmlns:rdf="http://www.w3.org/1999/02/22-rdf-syntax-ns#"
   xmlns:svg="http://www.w3.org/2000/svg"
   xmlns="http://www.w3.org/2000/svg"
   xmlns:sodipodi="http://sodipodi.sourceforge.net/DTD/sodipodi-0.dtd"
   xmlns:inkscape="http://www.inkscape.org/namespaces/inkscape"
   version="1.1"
   id="Ebene_1"
   x="0px"
   y="0px"
   width="293.57501"
   height="91"
   viewBox="0 0 293.57501 91"
   enable-background="new 0 0 825 825"
   xml:space="preserve"
   sodipodi:docname="zum_start.svg"
   inkscape:version="0.92.1 r15371"><metadata
     id="metadata341"><rdf:RDF><cc:Work
         rdf:about=""><dc:format>image/svg+xml</dc:format><dc:type
           rdf:resource="http://purl.org/dc/dcmitype/StillImage" /></cc:Work></rdf:RDF></metadata><defs
     id="defs339" /><sodipodi:namedview
     pagecolor="#ffffff"
     bordercolor="#666666"
     borderopacity="1"
     objecttolerance="10"
     gridtolerance="10"
     guidetolerance="10"
     inkscape:pageopacity="0"
     inkscape:pageshadow="2"
     inkscape:window-width="640"
     inkscape:window-height="480"
     id="namedview337"
     showgrid="false"
     inkscape:zoom="0.28606061"
     inkscape:cx="158.075"
     inkscape:cy="45.5"
     inkscape:window-x="0"
     inkscape:window-y="0"
     inkscape:window-maximized="0"
     inkscape:current-layer="Ebene_1" /><path
     stroke-miterlimit="10"
     d="M 3,75.674 C 3,82.481 6.862,88 11.626,88 h 270.323 c 4.764,0 8.626,-5.52 8.626,-12.326 V 15.326 C 290.575,8.519 286.713,3 281.949,3 H 11.626 C 6.862,3 3,8.52 3,15.326 Z"
     id="path314"
     inkscape:connector-curvature="0"
     style="fill:none;stroke:#353535;stroke-width:6;stroke-miterlimit:10" /><g
     id="g334"
     transform="translate(-254.425,-367)"><rect
       x="279.26999"
       y="386.91"
       width="242.00101"
       height="47.334"
       id="rect316"
       style="fill:none" /><path
       d="m 285.29,402.905 h 16.987 c 1.054,0 1.86,0.806 1.86,1.86 0,0.558 -0.248,0.992 -0.434,1.24 l -15.438,21.203 h 14.321 c 1.054,0 1.922,0.868 1.922,1.922 0,1.054 -0.868,1.922 -1.922,1.922 h -18.165 c -1.054,0 -1.86,-0.806 -1.86,-1.86 0,-0.558 0.186,-0.93 0.434,-1.24 l 15.623,-21.327 H 285.29 c -1.054,0 -1.86,-0.806 -1.86,-1.86 0,-1.054 0.806,-1.86 1.86,-1.86 z"
       id="path318"
       inkscape:connector-curvature="0"
       style="fill:#353535" /><path
       d="m 313.562,404.393 v 16.181 c 0,4.03 1.302,7.501 7.563,7.501 6.262,0 7.564,-3.472 7.564,-7.501 v -16.181 c 0,-1.116 0.93,-1.984 2.046,-1.984 1.054,0 1.922,0.868 1.922,1.984 v 16.181 c 0,5.89 -1.922,11.284 -11.532,11.284 -9.547,0 -11.531,-5.394 -11.531,-11.284 v -16.181 c 0,-1.116 0.868,-1.984 1.984,-1.984 1.054,0 1.984,0.868 1.984,1.984 z"
       id="path320"
       inkscape:connector-curvature="0"
       style="fill:#353535" /><path
       d="m 382.751,413.01 v 16.553 c 0,1.116 -0.868,1.984 -1.983,1.984 -1.116,0 -1.984,-0.868 -1.984,-1.984 v -15.747 c 0,-4.898 -1.736,-8.246 -7.75,-8.246 -5.332,0 -7.75,2.852 -7.75,7.439 v 16.553 c 0,1.116 -0.868,1.984 -1.984,1.984 -1.116,0 -1.984,-0.868 -1.984,-1.984 v -15.747 c 0,-4.898 -1.55,-8.246 -7.625,-8.246 -5.766,0 -7.625,3.472 -7.625,8.679 v 15.313 c 0,1.116 -0.868,1.984 -1.984,1.984 -1.116,0 -1.984,-0.868 -1.984,-1.984 V 404.39 c 0,-1.116 0.868,-1.984 1.984,-1.984 1.116,0 1.984,0.868 1.984,1.984 v 1.984 c 1.054,-2.293 4.03,-4.339 8.06,-4.339 5.083,0 8.37,1.86 9.857,4.339 1.55,-2.417 4.278,-4.339 9.051,-4.339 9.547,0.002 11.717,5.706 11.717,10.975 z"
       id="path322"
       inkscape:connector-curvature="0"
       style="fill:#353535" /><path
       d="m 418.341,392.304 c -6.51,0 -8.989,3.224 -8.989,6.757 0,10.292 23.435,5.89 23.435,20.831 0,7.75 -5.332,12.027 -14.879,12.027 -7.067,0 -12.338,-3.596 -14.445,-7.626 -0.248,-0.496 -0.311,-0.744 -0.311,-1.116 0,-1.116 0.868,-1.984 1.984,-1.984 0.744,0 1.364,0.372 1.735,0.992 1.984,3.224 5.58,5.89 11.036,5.89 6.819,0 10.663,-2.728 10.663,-8.183 0,-11.594 -23.435,-6.138 -23.435,-20.831 0,-5.704 4.153,-10.602 13.205,-10.602 5.89,0 10.663,2.48 13.268,6.386 0.248,0.372 0.372,0.744 0.372,1.178 0,1.116 -0.868,1.984 -1.984,1.984 -0.558,0 -1.116,-0.186 -1.611,-0.806 -1.861,-2.294 -4.836,-4.897 -10.044,-4.897 z"
       id="path324"
       inkscape:connector-curvature="0"
       style="fill:#353535" /><path
       d="m 441.096,396.395 c 0,-1.054 0.93,-1.984 1.983,-1.984 1.116,0 1.984,0.93 1.984,1.984 v 6.51 h 4.029 c 1.054,0 1.86,0.806 1.86,1.86 0,1.054 -0.807,1.86 -1.86,1.86 h -4.029 v 17.111 c 0,2.666 1.487,4.092 3.596,4.092 1.054,0 1.922,0.806 1.922,1.86 0,1.054 -0.868,1.86 -1.922,1.86 -4.898,0 -7.563,-3.286 -7.563,-7.812 v -17.111 h -2.418 c -1.055,0 -1.86,-0.806 -1.86,-1.86 0,-1.054 0.806,-1.86 1.86,-1.86 h 2.418 z"
       id="path326"
       inkscape:connector-curvature="0"
       style="fill:#353535" /><path
       d="m 460.005,408.918 c -0.62,0.682 -1.054,0.868 -1.611,0.868 -0.992,0 -1.798,-0.806 -1.798,-1.798 0,-0.434 0.124,-0.744 0.31,-1.054 1.736,-2.728 5.084,-4.897 10.291,-4.897 7.192,0 11.16,4.216 11.16,10.539 v 17.049 c 0,1.054 -0.868,1.922 -1.922,1.922 -1.055,0 -1.922,-0.868 -1.922,-1.922 v -2.232 c -1.551,2.914 -5.146,4.464 -8.866,4.464 -6.571,0 -10.726,-3.162 -10.726,-8.866 0,-5.456 4.154,-8.742 10.85,-8.742 h 8.742 v -1.674 c 0,-4.216 -2.79,-6.819 -7.316,-6.819 -3.286,0.001 -5.27,0.993 -7.192,3.162 z m 14.508,11.408 v -2.604 h -8.742 c -4.029,0 -6.819,1.674 -6.819,5.27 0,3.224 2.231,5.27 7.067,5.27 4.339,-10e-4 8.494,-2.666 8.494,-7.936 z"
       id="path328"
       inkscape:connector-curvature="0"
       style="fill:#353535" /><path
       d="m 489.765,407.121 c 1.24,-2.852 4.34,-4.959 8.618,-4.959 1.054,0 1.922,0.868 1.922,1.922 0,1.054 -0.868,1.922 -1.922,1.922 -5.704,0 -8.618,3.968 -8.618,9.671 v 13.887 c 0,1.116 -0.867,1.984 -1.983,1.984 -1.116,0 -1.984,-0.868 -1.984,-1.984 v -25.171 c 0,-1.116 0.868,-1.984 1.984,-1.984 1.116,0 1.983,0.868 1.983,1.984 z"
       id="path330"
       inkscape:connector-curvature="0"
       style="fill:#353535" /><path
       d="m 507.744,396.395 c 0,-1.054 0.93,-1.984 1.983,-1.984 1.116,0 1.984,0.93 1.984,1.984 v 6.51 h 4.029 c 1.054,0 1.86,0.806 1.86,1.86 0,1.054 -0.807,1.86 -1.86,1.86 h -4.029 v 17.111 c 0,2.666 1.487,4.092 3.596,4.092 1.054,0 1.922,0.806 1.922,1.86 0,1.054 -0.868,1.86 -1.922,1.86 -4.898,0 -7.563,-3.286 -7.563,-7.812 v -17.111 h -2.418 c -1.055,0 -1.86,-0.806 -1.86,-1.86 0,-1.054 0.806,-1.86 1.86,-1.86 h 2.418 z"
       id="path332"
       inkscape:connector-curvature="0"
       style="fill:#353535" /></g></svg>