<?xml version="1.0" encoding="UTF-8" standalone="no"?>
<!-- Generator: Adobe Illustrator 15.0.0, SVG Export Plug-In . SVG Version: 6.00 Build 0)  -->

<svg
   xmlns:dc="http://purl.org/dc/elements/1.1/"
   xmlns:cc="http://creativecommons.org/ns#"
   xmlns:rdf="http://www.w3.org/1999/02/22-rdf-syntax-ns#"
   xmlns:svg="http://www.w3.org/2000/svg"
   xmlns="http://www.w3.org/2000/svg"
   xmlns:sodipodi="http://sodipodi.sourceforge.net/DTD/sodipodi-0.dtd"
   xmlns:inkscape="http://www.inkscape.org/namespaces/inkscape"
   version="1.1"
   id="Ebene_1"
   x="0px"
   y="0px"
   width="514.53497"
   height="91"
   viewBox="0 0 514.53497 91"
   enable-background="new 0 0 825 825"
   xml:space="preserve"
   sodipodi:docname="zur_tourenauswahl.svg"
   inkscape:version="0.92.1 r15371"><metadata
     id="metadata437"><rdf:RDF><cc:Work
         rdf:about=""><dc:format>image/svg+xml</dc:format><dc:type
           rdf:resource="http://purl.org/dc/dcmitype/StillImage" /><dc:title></dc:title></cc:Work></rdf:RDF></metadata><defs
     id="defs435" /><sodipodi:namedview
     pagecolor="#ffffff"
     bordercolor="#666666"
     borderopacity="1"
     objecttolerance="10"
     gridtolerance="10"
     guidetolerance="10"
     inkscape:pageopacity="0"
     inkscape:pageshadow="2"
     inkscape:window-width="640"
     inkscape:window-height="480"
     id="namedview433"
     showgrid="false"
     inkscape:zoom="0.80910159"
     inkscape:cx="433.49253"
     inkscape:cy="180.77715"
     inkscape:window-x="633"
     inkscape:window-y="254"
     inkscape:window-maximized="0"
     inkscape:current-layer="Ebene_1"
     fit-margin-top="0"
     fit-margin-left="0"
     fit-margin-right="0"
     fit-margin-bottom="0" /><path
     stroke-miterlimit="10"
     d="M 3,75.674 C 3,82.481 6.862,88 11.626,88 h 491.283 c 4.764,0 8.626,-5.52 8.626,-12.326 V 15.326 C 511.535,8.519 507.673,3 502.909,3 H 11.626 C 6.862,3 3,8.52 3,15.326 Z"
     id="path394"
     inkscape:connector-curvature="0"
     style="fill:none;stroke:#e6ebe0;stroke-width:6;stroke-miterlimit:10" /><g
     id="g430"
     transform="translate(-121.801,-359.123)"><rect
       x="146.646"
       y="379.03299"
       width="575.39697"
       height="60.213001"
       id="rect396"
       style="fill:none" /><path
       d="m 150.862,395.031 h 16.987 c 1.054,0 1.86,0.806 1.86,1.86 0,0.558 -0.248,0.992 -0.434,1.24 l -15.438,21.203 h 14.321 c 1.054,0 1.922,0.868 1.922,1.922 0,1.054 -0.868,1.922 -1.922,1.922 h -18.165 c -1.054,0 -1.86,-0.806 -1.86,-1.86 0,-0.558 0.186,-0.93 0.434,-1.24 l 15.623,-21.327 h -13.329 c -1.054,0 -1.86,-0.806 -1.86,-1.86 0.001,-1.054 0.807,-1.86 1.861,-1.86 z"
       id="path398"
       inkscape:connector-curvature="0"
       style="fill:#e6ebe0" /><path
       d="M 179.133,396.519 V 412.7 c 0,4.03 1.302,7.501 7.563,7.501 6.262,0 7.564,-3.472 7.564,-7.501 v -16.181 c 0,-1.116 0.93,-1.984 2.046,-1.984 1.054,0 1.922,0.868 1.922,1.984 V 412.7 c 0,5.89 -1.922,11.284 -11.532,11.284 -9.547,0 -11.531,-5.394 -11.531,-11.284 v -16.181 c 0,-1.116 0.868,-1.984 1.984,-1.984 1.055,0 1.984,0.868 1.984,1.984 z"
       id="path400"
       inkscape:connector-curvature="0"
       style="fill:#e6ebe0" /><path
       d="m 209.637,399.247 c 1.24,-2.852 4.34,-4.959 8.618,-4.959 1.054,0 1.922,0.868 1.922,1.922 0,1.054 -0.868,1.922 -1.922,1.922 -5.704,0 -8.618,3.968 -8.618,9.671 v 13.887 c 0,1.116 -0.868,1.984 -1.984,1.984 -1.116,0 -1.984,-0.868 -1.984,-1.984 v -25.171 c 0,-1.116 0.868,-1.984 1.984,-1.984 1.116,0 1.984,0.868 1.984,1.984 z"
       id="path402"
       inkscape:connector-curvature="0"
       style="fill:#e6ebe0" /><path
       d="m 239.024,385.421 c -1.116,0 -1.984,-0.868 -1.984,-1.984 0,-1.116 0.868,-1.984 1.984,-1.984 h 26.349 c 1.116,0 1.983,0.868 1.983,1.984 0,1.116 -0.867,1.984 -1.983,1.984 h -11.035 v 36.144 c 0,1.178 -0.93,2.108 -2.108,2.108 -1.178,0 -2.107,-0.93 -2.107,-2.108 v -36.144 z"
       id="path404"
       inkscape:connector-curvature="0"
       style="fill:#e6ebe0" /><path
       d="m 291.846,409.042 c 0,10.167 -4.959,14.941 -13.019,14.941 -7.998,0 -13.02,-4.774 -13.02,-14.941 0,-10.167 5.021,-14.879 13.02,-14.879 8.06,0 13.019,4.712 13.019,14.879 z m -4.029,0 c 0,-7.812 -3.286,-11.283 -8.989,-11.283 -5.704,0 -8.99,3.472 -8.99,11.283 0,7.936 3.286,11.345 8.99,11.345 5.703,0 8.989,-3.409 8.989,-11.345 z"
       id="path406"
       inkscape:connector-curvature="0"
       style="fill:#e6ebe0" /><path
       d="M 301.395,396.519 V 412.7 c 0,4.03 1.302,7.501 7.563,7.501 6.261,0 7.563,-3.472 7.563,-7.501 v -16.181 c 0,-1.116 0.93,-1.984 2.046,-1.984 1.054,0 1.922,0.868 1.922,1.984 V 412.7 c 0,5.89 -1.922,11.284 -11.531,11.284 -9.548,0 -11.531,-5.394 -11.531,-11.284 v -16.181 c 0,-1.116 0.867,-1.984 1.983,-1.984 1.054,0 1.985,0.868 1.985,1.984 z"
       id="path408"
       inkscape:connector-curvature="0"
       style="fill:#e6ebe0" /><path
       d="m 331.898,399.247 c 1.24,-2.852 4.34,-4.959 8.618,-4.959 1.054,0 1.922,0.868 1.922,1.922 0,1.054 -0.868,1.922 -1.922,1.922 -5.704,0 -8.618,3.968 -8.618,9.671 v 13.887 c 0,1.116 -0.867,1.984 -1.983,1.984 -1.116,0 -1.984,-0.868 -1.984,-1.984 v -25.171 c 0,-1.116 0.868,-1.984 1.984,-1.984 1.116,0 1.983,0.868 1.983,1.984 z"
       id="path410"
       inkscape:connector-curvature="0"
       style="fill:#e6ebe0" /><path
       d="m 357.38,394.163 c 9.919,0 11.841,7.874 11.841,12.089 0,1.798 0,3.968 -2.479,3.968 h -18.104 c 0,6.137 3.534,10.105 9.362,10.105 3.596,0 5.703,-1.364 7.439,-2.666 0.372,-0.248 0.62,-0.372 1.115,-0.372 0.992,0 1.798,0.806 1.798,1.798 0,0.682 -0.31,1.054 -0.682,1.426 -0.93,0.93 -4.153,3.472 -9.671,3.472 -8.246,0 -13.392,-4.526 -13.392,-14.941 0.002,-9.547 4.714,-14.879 12.773,-14.879 z m 0,3.596 c -5.394,0 -8.37,3.472 -8.742,8.989 h 16.678 c 0,-4.463 -1.55,-8.989 -7.936,-8.989 z"
       id="path412"
       inkscape:connector-curvature="0"
       style="fill:#e6ebe0" /><path
       d="m 398.981,405.136 v 16.553 c 0,1.116 -0.868,1.984 -1.983,1.984 -1.116,0 -1.984,-0.868 -1.984,-1.984 v -15.747 c 0,-4.898 -1.426,-8.246 -7.439,-8.246 -6.138,0 -8.246,3.72 -8.246,8.679 v 15.313 c 0,1.116 -0.867,1.984 -1.983,1.984 -1.116,0 -1.984,-0.868 -1.984,-1.984 v -25.171 c 0,-1.116 0.868,-1.984 1.984,-1.984 1.116,0 1.983,0.868 1.983,1.984 v 1.984 c 1.179,-2.355 4.216,-4.339 8.246,-4.339 9.546,0.001 11.406,5.705 11.406,10.974 z"
       id="path414"
       inkscape:connector-curvature="0"
       style="fill:#e6ebe0" /><path
       d="m 409.583,401.044 c -0.62,0.682 -1.054,0.868 -1.611,0.868 -0.992,0 -1.798,-0.806 -1.798,-1.798 0,-0.434 0.124,-0.744 0.31,-1.054 1.736,-2.728 5.084,-4.897 10.291,-4.897 7.192,0 11.16,4.216 11.16,10.539 v 17.049 c 0,1.054 -0.868,1.922 -1.922,1.922 -1.055,0 -1.922,-0.868 -1.922,-1.922 v -2.232 c -1.551,2.914 -5.146,4.464 -8.866,4.464 -6.571,0 -10.726,-3.162 -10.726,-8.866 0,-5.456 4.154,-8.742 10.85,-8.742 h 8.742 v -1.674 c 0,-4.216 -2.79,-6.819 -7.316,-6.819 -3.285,10e-4 -5.27,0.993 -7.192,3.162 z m 14.508,11.408 v -2.604 h -8.742 c -4.029,0 -6.819,1.674 -6.819,5.27 0,3.224 2.231,5.27 7.067,5.27 4.34,-10e-4 8.494,-2.666 8.494,-7.936 z"
       id="path416"
       inkscape:connector-curvature="0"
       style="fill:#e6ebe0" /><path
       d="M 438.724,396.519 V 412.7 c 0,4.03 1.302,7.501 7.563,7.501 6.261,0 7.563,-3.472 7.563,-7.501 v -16.181 c 0,-1.116 0.93,-1.984 2.046,-1.984 1.054,0 1.922,0.868 1.922,1.984 V 412.7 c 0,5.89 -1.922,11.284 -11.531,11.284 -9.548,0 -11.531,-5.394 -11.531,-11.284 v -16.181 c 0,-1.116 0.867,-1.984 1.983,-1.984 1.054,0 1.985,0.868 1.985,1.984 z"
       id="path418"
       inkscape:connector-curvature="0"
       style="fill:#e6ebe0" /><path
       d="m 468.545,401.727 c 0,6.51 16.306,4.092 16.306,14.011 0,5.642 -4.65,8.184 -10.54,8.184 -5.084,0 -8.989,-2.418 -10.602,-4.464 -0.31,-0.434 -0.434,-0.744 -0.434,-1.178 0,-0.992 0.806,-1.798 1.798,-1.798 0.372,0 0.868,0.124 1.364,0.62 1.922,1.922 4.401,3.038 7.873,3.038 3.534,0 6.572,-1.178 6.572,-4.402 0,-6.386 -16.306,-3.844 -16.306,-14.011 0,-5.146 4.216,-7.501 9.485,-7.501 4.216,0 7.502,1.426 9.424,3.968 0.186,0.248 0.434,0.62 0.434,1.178 0,0.992 -0.806,1.798 -1.798,1.798 -0.31,0 -0.806,-0.062 -1.302,-0.558 -1.674,-1.612 -3.534,-2.604 -6.758,-2.604 -2.788,-10e-4 -5.516,0.867 -5.516,3.719 z"
       id="path420"
       inkscape:connector-curvature="0"
       style="fill:#e6ebe0" /><path
       d="m 507.047,402.594 -5.704,19.653 c -0.248,0.868 -1.054,1.426 -1.922,1.426 -0.867,0 -1.55,-0.496 -1.859,-1.302 l -9.113,-24.984 c -0.124,-0.31 -0.187,-0.62 -0.187,-0.868 0,-1.116 0.868,-1.984 1.984,-1.984 0.868,0 1.55,0.496 1.859,1.302 l 7.191,20.521 5.89,-20.521 c 0.187,-0.62 0.807,-1.302 1.86,-1.302 1.053,0 1.674,0.682 1.86,1.302 l 5.89,20.521 7.191,-20.521 c 0.31,-0.806 0.991,-1.302 1.859,-1.302 1.116,0 1.984,0.868 1.984,1.984 0,0.248 -0.062,0.558 -0.187,0.868 l -9.113,24.984 c -0.31,0.806 -0.992,1.302 -1.859,1.302 -0.868,0 -1.674,-0.558 -1.922,-1.426 z"
       id="path422"
       inkscape:connector-curvature="0"
       style="fill:#e6ebe0" /><path
       d="m 533.149,401.044 c -0.62,0.682 -1.054,0.868 -1.611,0.868 -0.992,0 -1.798,-0.806 -1.798,-1.798 0,-0.434 0.124,-0.744 0.31,-1.054 1.736,-2.728 5.084,-4.897 10.291,-4.897 7.192,0 11.16,4.216 11.16,10.539 v 17.049 c 0,1.054 -0.868,1.922 -1.922,1.922 -1.055,0 -1.922,-0.868 -1.922,-1.922 v -2.232 c -1.551,2.914 -5.146,4.464 -8.866,4.464 -6.571,0 -10.726,-3.162 -10.726,-8.866 0,-5.456 4.154,-8.742 10.85,-8.742 h 8.742 v -1.674 c 0,-4.216 -2.79,-6.819 -7.316,-6.819 -3.286,10e-4 -5.27,0.993 -7.192,3.162 z m 14.508,11.408 v -2.604 h -8.742 c -4.029,0 -6.819,1.674 -6.819,5.27 0,3.224 2.231,5.27 7.067,5.27 4.339,-10e-4 8.494,-2.666 8.494,-7.936 z"
       id="path424"
       inkscape:connector-curvature="0"
       style="fill:#e6ebe0" /><path
       d="m 582.562,405.136 v 16.553 c 0,1.116 -0.868,1.984 -1.983,1.984 -1.116,0 -1.984,-0.868 -1.984,-1.984 v -15.747 c 0,-4.898 -1.426,-8.246 -7.439,-8.246 -6.138,0 -8.246,3.72 -8.246,8.679 v 15.313 c 0,1.116 -0.867,1.984 -1.983,1.984 -1.116,0 -1.984,-0.868 -1.984,-1.984 v -40.67 c 0,-1.116 0.868,-1.984 1.984,-1.984 1.116,0 1.983,0.868 1.983,1.984 v 17.483 c 1.179,-2.355 4.216,-4.339 8.246,-4.339 9.547,0.001 11.406,5.705 11.406,10.974 z"
       id="path426"
       inkscape:connector-curvature="0"
       style="fill:#e6ebe0" /><path
       d="m 593.97,381.02 v 35.4 c 0,2.48 0.807,3.534 2.48,3.534 0.992,0 1.859,0.806 1.859,1.86 0,1.054 -0.867,1.86 -1.859,1.86 -4.154,0 -6.448,-2.48 -6.448,-7.254 v -35.4 c 0,-1.054 0.931,-1.984 1.984,-1.984 1.117,0 1.984,0.93 1.984,1.984 z"
       id="path428"
       inkscape:connector-curvature="0"
       style="fill:#e6ebe0" /></g></svg>