<?xml version="1.0" encoding="utf-8"?>
<!-- Generator: Adobe Illustrator 16.0.3, SVG Export Plug-In . SVG Version: 6.00 Build 0)  -->
<!DOCTYPE svg PUBLIC "-//W3C//DTD SVG 1.1//EN" "http://www.w3.org/Graphics/SVG/1.1/DTD/svg11.dtd">
<svg version="1.1" xmlns="http://www.w3.org/2000/svg" xmlns:xlink="http://www.w3.org/1999/xlink" x="0px" y="0px"
	 width="553.242px" height="91px" viewBox="0 0 553.242 91" enable-background="new 0 0 553.242 91" xml:space="preserve">
<g id="Ebene_1">
</g>
<g id="Ebene_2">
	<path fill="none" stroke="#E6EBE0" stroke-width="6" stroke-miterlimit="10" d="M3,75.674C3,82.48,6.862,88,11.626,88h529.99
		c4.764,0,8.626-5.52,8.626-12.326V15.326C550.242,8.52,546.38,3,541.616,3H11.626C6.862,3,3,8.52,3,15.326V75.674z"/>
	<g>
		<rect x="24.845" y="19.911" fill="none" width="503.397" height="60.212"/>
		<path fill="#E6EBE0" d="M29.061,35.908h16.987c1.054,0,1.86,0.806,1.86,1.86c0,0.558-0.248,0.992-0.434,1.24L32.036,60.21h14.321
			c1.054,0,1.922,0.868,1.922,1.922c0,1.054-0.868,1.922-1.922,1.922H28.192c-1.054,0-1.86-0.806-1.86-1.86
			c0-0.558,0.186-0.93,0.434-1.24L42.39,39.627H29.061c-1.054,0-1.86-0.806-1.86-1.86C27.201,36.714,28.006,35.908,29.061,35.908z"
			/>
		<path fill="#E6EBE0" d="M57.332,37.396v16.181c0,4.03,1.302,7.501,7.563,7.501c6.262,0,7.564-3.472,7.564-7.501V37.396
			c0-1.116,0.93-1.984,2.046-1.984c1.054,0,1.922,0.868,1.922,1.984v16.181c0,5.89-1.922,11.284-11.532,11.284
			c-9.547,0-11.531-5.394-11.531-11.284V37.396c0-1.116,0.868-1.984,1.984-1.984C56.402,35.412,57.332,36.28,57.332,37.396z"/>
		<path fill="#E6EBE0" d="M87.836,40.124c1.24-2.852,4.34-4.959,8.618-4.959c1.054,0,1.922,0.868,1.922,1.922
			c0,1.054-0.868,1.922-1.922,1.922c-5.704,0-8.618,3.968-8.618,9.671v13.887c0,1.116-0.868,1.984-1.984,1.984
			s-1.984-0.868-1.984-1.984V37.396c0-1.116,0.868-1.984,1.984-1.984s1.984,0.868,1.984,1.984V40.124z"/>
		<path fill="#E6EBE0" d="M141.401,46.013v16.553c0,1.116-0.868,1.984-1.983,1.984c-1.116,0-1.984-0.868-1.984-1.984V46.819
			c0-4.898-1.426-8.246-7.439-8.246c-6.138,0-8.246,3.72-8.246,8.679v15.313c0,1.116-0.868,1.984-1.984,1.984
			s-1.984-0.868-1.984-1.984V37.396c0-1.116,0.868-1.984,1.984-1.984s1.984,0.868,1.984,1.984v1.984
			c1.178-2.355,4.215-4.339,8.246-4.339C139.542,35.04,141.401,40.744,141.401,46.013z"/>
		<path fill="#E6EBE0" d="M152.004,41.921c-0.62,0.682-1.054,0.868-1.611,0.868c-0.992,0-1.798-0.806-1.798-1.798
			c0-0.434,0.124-0.744,0.31-1.054c1.736-2.728,5.084-4.897,10.291-4.897c7.192,0,11.16,4.216,11.16,10.539v17.049
			c0,1.054-0.868,1.922-1.922,1.922c-1.055,0-1.922-0.868-1.922-1.922v-2.232c-1.551,2.914-5.146,4.464-8.866,4.464
			c-6.571,0-10.726-3.162-10.726-8.866c0-5.456,4.154-8.742,10.85-8.742h8.742v-1.674c0-4.216-2.79-6.819-7.316-6.819
			C155.91,38.76,153.926,39.751,152.004,41.921z M166.512,53.329v-2.604h-8.742c-4.029,0-6.819,1.674-6.819,5.27
			c0,3.224,2.231,5.27,7.067,5.27C162.357,61.264,166.512,58.599,166.512,53.329z M152.624,28.654c0-1.55,0.744-2.356,2.231-2.356
			c1.488,0,2.232,0.806,2.232,2.356s-0.744,2.294-2.232,2.294C153.368,30.948,152.624,30.204,152.624,28.654z M162.357,28.654
			c0-1.55,0.744-2.356,2.232-2.356c1.487,0,2.231,0.806,2.231,2.356s-0.744,2.294-2.231,2.294
			C163.102,30.948,162.357,30.204,162.357,28.654z"/>
		<path fill="#E6EBE0" d="M188.708,35.04c5.518,0,8.556,2.914,9.547,4.277c0.311,0.434,0.435,0.744,0.435,1.178
			c0,1.054-0.807,1.798-1.798,1.798c-0.62,0-1.055-0.248-1.488-0.744c-0.93-1.054-2.604-2.914-6.695-2.914
			c-5.704,0-8.742,3.658-8.742,11.283c0,7.75,3.038,11.345,8.742,11.345c3.596,0,5.766-1.612,7.191-2.666
			c0.434-0.31,0.744-0.434,1.178-0.434c0.992,0,1.798,0.806,1.798,1.798c0,0.558-0.186,0.992-0.806,1.55
			c-1.364,1.116-4.34,3.348-9.361,3.348c-7.998,0-12.771-4.774-12.771-14.941S180.71,35.04,188.708,35.04z"/>
		<path fill="#E6EBE0" d="M228.139,46.013v16.553c0,1.116-0.868,1.984-1.983,1.984c-1.116,0-1.984-0.868-1.984-1.984V46.819
			c0-4.898-1.426-8.246-7.439-8.246c-6.138,0-8.246,3.72-8.246,8.679v15.313c0,1.116-0.867,1.984-1.983,1.984
			s-1.984-0.868-1.984-1.984v-40.67c0-1.116,0.868-1.984,1.984-1.984s1.983,0.868,1.983,1.984v17.483
			c1.179-2.355,4.216-4.339,8.246-4.339C226.278,35.04,228.139,40.744,228.139,46.013z"/>
		<path fill="#E6EBE0" d="M238.865,42.604c0,6.51,16.306,4.092,16.306,14.011c0,5.642-4.65,8.184-10.54,8.184
			c-5.084,0-8.989-2.418-10.602-4.464c-0.31-0.434-0.434-0.744-0.434-1.178c0-0.992,0.806-1.798,1.798-1.798
			c0.372,0,0.868,0.124,1.364,0.62c1.922,1.922,4.401,3.038,7.873,3.038c3.534,0,6.572-1.178,6.572-4.402
			c0-6.386-16.306-3.844-16.306-14.011c0-5.146,4.216-7.501,9.485-7.501c4.216,0,7.502,1.426,9.424,3.968
			c0.186,0.248,0.434,0.62,0.434,1.178c0,0.992-0.806,1.798-1.798,1.798c-0.31,0-0.806-0.062-1.302-0.558
			c-1.674-1.612-3.534-2.604-6.758-2.604C241.593,38.884,238.865,39.751,238.865,42.604z"/>
		<path fill="#E6EBE0" d="M263.418,29.398c0-1.054,0.93-1.984,1.983-1.984c1.116,0,1.984,0.93,1.984,1.984v6.51h4.029
			c1.054,0,1.86,0.806,1.86,1.86c0,1.054-0.807,1.86-1.86,1.86h-4.029v17.111c0,2.666,1.487,4.092,3.596,4.092
			c1.054,0,1.922,0.806,1.922,1.86c0,1.054-0.868,1.86-1.922,1.86c-4.898,0-7.563-3.286-7.563-7.812V39.627H261
			c-1.055,0-1.86-0.806-1.86-1.86c0-1.054,0.806-1.86,1.86-1.86h2.418V29.398z"/>
		<path fill="#E6EBE0" d="M290.077,35.04c9.919,0,11.841,7.874,11.841,12.089c0,1.798,0,3.968-2.479,3.968h-18.104
			c0,6.137,3.534,10.105,9.362,10.105c3.596,0,5.703-1.364,7.439-2.666c0.372-0.248,0.62-0.372,1.115-0.372
			c0.992,0,1.798,0.806,1.798,1.798c0,0.682-0.31,1.054-0.682,1.426c-0.93,0.93-4.153,3.472-9.671,3.472
			c-8.246,0-13.392-4.526-13.392-14.941C277.306,40.372,282.018,35.04,290.077,35.04z M290.077,38.636
			c-5.394,0-8.37,3.472-8.742,8.989h16.678C298.013,43.162,296.463,38.636,290.077,38.636z"/>
		<path fill="#E6EBE0" d="M331.678,46.013v16.553c0,1.116-0.868,1.984-1.983,1.984c-1.116,0-1.984-0.868-1.984-1.984V46.819
			c0-4.898-1.426-8.246-7.439-8.246c-6.138,0-8.246,3.72-8.246,8.679v15.313c0,1.116-0.867,1.984-1.983,1.984
			s-1.984-0.868-1.984-1.984V37.396c0-1.116,0.868-1.984,1.984-1.984s1.983,0.868,1.983,1.984v1.984
			c1.179-2.355,4.216-4.339,8.246-4.339C329.817,35.04,331.678,40.744,331.678,46.013z"/>
		<path fill="#E6EBE0" d="M367.266,25.307c-6.51,0-8.989,3.224-8.989,6.757c0,10.292,23.435,5.89,23.435,20.831
			c0,7.75-5.332,12.027-14.879,12.027c-7.067,0-12.338-3.596-14.445-7.626c-0.248-0.496-0.311-0.744-0.311-1.116
			c0-1.116,0.868-1.984,1.984-1.984c0.744,0,1.364,0.372,1.735,0.992c1.984,3.224,5.58,5.89,11.036,5.89
			c6.819,0,10.663-2.728,10.663-8.183c0-11.594-23.435-6.138-23.435-20.831c0-5.704,4.153-10.602,13.205-10.602
			c5.89,0,10.663,2.48,13.268,6.386c0.248,0.372,0.372,0.744,0.372,1.178c0,1.116-0.868,1.984-1.984,1.984
			c-0.558,0-1.116-0.186-1.611-0.806C375.449,27.91,372.474,25.307,367.266,25.307z"/>
		<path fill="#E6EBE0" d="M390.021,29.398c0-1.054,0.93-1.984,1.983-1.984c1.116,0,1.984,0.93,1.984,1.984v6.51h4.029
			c1.054,0,1.86,0.806,1.86,1.86c0,1.054-0.807,1.86-1.86,1.86h-4.029v17.111c0,2.666,1.487,4.092,3.596,4.092
			c1.054,0,1.922,0.806,1.922,1.86c0,1.054-0.868,1.86-1.922,1.86c-4.898,0-7.563-3.286-7.563-7.812V39.627h-2.418
			c-1.055,0-1.86-0.806-1.86-1.86c0-1.054,0.806-1.86,1.86-1.86h2.418V29.398z"/>
		<path fill="#E6EBE0" d="M408.93,41.921c-0.62,0.682-1.054,0.868-1.611,0.868c-0.992,0-1.798-0.806-1.798-1.798
			c0-0.434,0.124-0.744,0.31-1.054c1.736-2.728,5.084-4.897,10.291-4.897c7.192,0,11.16,4.216,11.16,10.539v17.049
			c0,1.054-0.868,1.922-1.922,1.922c-1.055,0-1.922-0.868-1.922-1.922v-2.232c-1.551,2.914-5.146,4.464-8.866,4.464
			c-6.571,0-10.726-3.162-10.726-8.866c0-5.456,4.154-8.742,10.85-8.742h8.742v-1.674c0-4.216-2.79-6.819-7.316-6.819
			C412.836,38.76,410.852,39.751,408.93,41.921z M423.438,53.329v-2.604h-8.742c-4.029,0-6.819,1.674-6.819,5.27
			c0,3.224,2.231,5.27,7.067,5.27C419.283,61.264,423.438,58.599,423.438,53.329z"/>
		<path fill="#E6EBE0" d="M436.272,29.398c0-1.054,0.93-1.984,1.983-1.984c1.116,0,1.984,0.93,1.984,1.984v6.51h4.029
			c1.054,0,1.86,0.806,1.86,1.86c0,1.054-0.807,1.86-1.86,1.86h-4.029v17.111c0,2.666,1.487,4.092,3.596,4.092
			c1.054,0,1.922,0.806,1.922,1.86c0,1.054-0.868,1.86-1.922,1.86c-4.898,0-7.563-3.286-7.563-7.812V39.627h-2.418
			c-1.055,0-1.86-0.806-1.86-1.86c0-1.054,0.806-1.86,1.86-1.86h2.418V29.398z"/>
		<path fill="#E6EBE0" d="M451.586,27.229c0-1.798,0.868-2.48,2.356-2.48c1.487,0,2.355,0.682,2.355,2.48
			c0,1.488-0.868,2.355-2.355,2.355C452.454,29.584,451.586,28.716,451.586,27.229z M455.926,62.566
			c0,1.116-0.868,1.984-1.983,1.984c-1.116,0-1.984-0.868-1.984-1.984V37.396c0-1.116,0.868-1.984,1.984-1.984
			c1.115,0,1.983,0.868,1.983,1.984V62.566z"/>
		<path fill="#E6EBE0" d="M488.164,49.919c0,10.167-4.959,14.941-13.019,14.941c-7.998,0-13.02-4.774-13.02-14.941
			s5.021-14.879,13.02-14.879C483.205,35.04,488.164,39.751,488.164,49.919z M484.135,49.919c0-7.812-3.286-11.283-8.989-11.283
			c-5.704,0-8.99,3.472-8.99,11.283c0,7.936,3.286,11.345,8.99,11.345C480.849,61.264,484.135,57.854,484.135,49.919z"/>
		<path fill="#E6EBE0" d="M517.986,46.013v16.553c0,1.116-0.868,1.984-1.983,1.984c-1.116,0-1.984-0.868-1.984-1.984V46.819
			c0-4.898-1.426-8.246-7.439-8.246c-6.138,0-8.246,3.72-8.246,8.679v15.313c0,1.116-0.867,1.984-1.983,1.984
			s-1.984-0.868-1.984-1.984V37.396c0-1.116,0.868-1.984,1.984-1.984s1.983,0.868,1.983,1.984v1.984
			c1.179-2.355,4.216-4.339,8.246-4.339C516.126,35.04,517.986,40.744,517.986,46.013z"/>
	</g>
</g>
</svg>
