<?xml version="1.0" encoding="utf-8"?>
<!-- Generator: Adobe Illustrator 15.0.0, SVG Export Plug-In . SVG Version: 6.00 Build 0)  -->
<!DOCTYPE svg PUBLIC "-//W3C//DTD SVG 1.1//EN" "http://www.w3.org/Graphics/SVG/1.1/DTD/svg11.dtd">
<svg version="1.1" id="Ebene_1" xmlns="http://www.w3.org/2000/svg" xmlns:xlink="http://www.w3.org/1999/xlink" x="0px" y="0px"
	 width="825px" height="825px" viewBox="0 0 825 825" enable-background="new 0 0 825 825" xml:space="preserve">
<path fill="none" stroke="#E6EBE0" stroke-width="6" stroke-miterlimit="10" d="M124.801,434.797c0,6.807,3.862,12.326,8.626,12.326
	H624.71c4.764,0,8.626-5.52,8.626-12.326v-60.348c0-6.807-3.862-12.326-8.626-12.326H133.427c-4.764,0-8.626,5.52-8.626,12.326
	V434.797z"/>
<g>
	<rect x="146.646" y="379.033" fill="none" width="575.397" height="60.213"/>
	<path fill="#E6EBE0" d="M150.862,395.031h16.987c1.054,0,1.86,0.806,1.86,1.86c0,0.558-0.248,0.992-0.434,1.24l-15.438,21.203
		h14.321c1.054,0,1.922,0.868,1.922,1.922c0,1.054-0.868,1.922-1.922,1.922h-18.165c-1.054,0-1.86-0.806-1.86-1.86
		c0-0.558,0.186-0.93,0.434-1.24l15.623-21.327h-13.329c-1.054,0-1.86-0.806-1.86-1.86
		C149.002,395.837,149.808,395.031,150.862,395.031z"/>
	<path fill="#E6EBE0" d="M179.133,396.519V412.7c0,4.03,1.302,7.501,7.563,7.501c6.262,0,7.564-3.472,7.564-7.501v-16.181
		c0-1.116,0.93-1.984,2.046-1.984c1.054,0,1.922,0.868,1.922,1.984V412.7c0,5.89-1.922,11.284-11.532,11.284
		c-9.547,0-11.531-5.394-11.531-11.284v-16.181c0-1.116,0.868-1.984,1.984-1.984C178.204,394.535,179.133,395.403,179.133,396.519z"
		/>
	<path fill="#E6EBE0" d="M209.637,399.247c1.24-2.852,4.34-4.959,8.618-4.959c1.054,0,1.922,0.868,1.922,1.922
		c0,1.054-0.868,1.922-1.922,1.922c-5.704,0-8.618,3.968-8.618,9.671v13.887c0,1.116-0.868,1.984-1.984,1.984
		s-1.984-0.868-1.984-1.984v-25.171c0-1.116,0.868-1.984,1.984-1.984s1.984,0.868,1.984,1.984V399.247z"/>
	<path fill="#E6EBE0" d="M239.024,385.421c-1.116,0-1.984-0.868-1.984-1.984s0.868-1.984,1.984-1.984h26.349
		c1.116,0,1.983,0.868,1.983,1.984s-0.867,1.984-1.983,1.984h-11.035v36.144c0,1.178-0.93,2.108-2.108,2.108
		c-1.178,0-2.107-0.93-2.107-2.108v-36.144H239.024z"/>
	<path fill="#E6EBE0" d="M291.846,409.042c0,10.167-4.959,14.941-13.019,14.941c-7.998,0-13.02-4.774-13.02-14.941
		s5.021-14.879,13.02-14.879C286.887,394.163,291.846,398.875,291.846,409.042z M287.817,409.042c0-7.812-3.286-11.283-8.989-11.283
		c-5.704,0-8.99,3.472-8.99,11.283c0,7.936,3.286,11.345,8.99,11.345C284.531,420.387,287.817,416.978,287.817,409.042z"/>
	<path fill="#E6EBE0" d="M301.395,396.519V412.7c0,4.03,1.302,7.501,7.563,7.501s7.563-3.472,7.563-7.501v-16.181
		c0-1.116,0.93-1.984,2.046-1.984c1.054,0,1.922,0.868,1.922,1.984V412.7c0,5.89-1.922,11.284-11.531,11.284
		c-9.548,0-11.531-5.394-11.531-11.284v-16.181c0-1.116,0.867-1.984,1.983-1.984C300.464,394.535,301.395,395.403,301.395,396.519z"
		/>
	<path fill="#E6EBE0" d="M331.898,399.247c1.24-2.852,4.34-4.959,8.618-4.959c1.054,0,1.922,0.868,1.922,1.922
		c0,1.054-0.868,1.922-1.922,1.922c-5.704,0-8.618,3.968-8.618,9.671v13.887c0,1.116-0.867,1.984-1.983,1.984
		s-1.984-0.868-1.984-1.984v-25.171c0-1.116,0.868-1.984,1.984-1.984s1.983,0.868,1.983,1.984V399.247z"/>
	<path fill="#E6EBE0" d="M357.38,394.163c9.919,0,11.841,7.874,11.841,12.089c0,1.798,0,3.968-2.479,3.968h-18.104
		c0,6.137,3.534,10.105,9.362,10.105c3.596,0,5.703-1.364,7.439-2.666c0.372-0.248,0.62-0.372,1.115-0.372
		c0.992,0,1.798,0.806,1.798,1.798c0,0.682-0.31,1.054-0.682,1.426c-0.93,0.93-4.153,3.472-9.671,3.472
		c-8.246,0-13.392-4.526-13.392-14.941C344.609,399.495,349.321,394.163,357.38,394.163z M357.38,397.759
		c-5.394,0-8.37,3.472-8.742,8.989h16.678C365.316,402.285,363.766,397.759,357.38,397.759z"/>
	<path fill="#E6EBE0" d="M398.981,405.136v16.553c0,1.116-0.868,1.984-1.983,1.984c-1.116,0-1.984-0.868-1.984-1.984v-15.747
		c0-4.898-1.426-8.246-7.439-8.246c-6.138,0-8.246,3.72-8.246,8.679v15.313c0,1.116-0.867,1.984-1.983,1.984
		s-1.984-0.868-1.984-1.984v-25.171c0-1.116,0.868-1.984,1.984-1.984s1.983,0.868,1.983,1.984v1.984
		c1.179-2.355,4.216-4.339,8.246-4.339C397.121,394.163,398.981,399.867,398.981,405.136z"/>
	<path fill="#E6EBE0" d="M409.583,401.044c-0.62,0.682-1.054,0.868-1.611,0.868c-0.992,0-1.798-0.806-1.798-1.798
		c0-0.434,0.124-0.744,0.31-1.054c1.736-2.728,5.084-4.897,10.291-4.897c7.192,0,11.16,4.216,11.16,10.539v17.049
		c0,1.054-0.868,1.922-1.922,1.922c-1.055,0-1.922-0.868-1.922-1.922v-2.232c-1.551,2.914-5.146,4.464-8.866,4.464
		c-6.571,0-10.726-3.162-10.726-8.866c0-5.456,4.154-8.742,10.85-8.742h8.742v-1.674c0-4.216-2.79-6.819-7.316-6.819
		C413.49,397.883,411.505,398.875,409.583,401.044z M424.091,412.452v-2.604h-8.742c-4.029,0-6.819,1.674-6.819,5.27
		c0,3.224,2.231,5.27,7.067,5.27C419.937,420.387,424.091,417.722,424.091,412.452z"/>
	<path fill="#E6EBE0" d="M438.724,396.519V412.7c0,4.03,1.302,7.501,7.563,7.501s7.563-3.472,7.563-7.501v-16.181
		c0-1.116,0.93-1.984,2.046-1.984c1.054,0,1.922,0.868,1.922,1.984V412.7c0,5.89-1.922,11.284-11.531,11.284
		c-9.548,0-11.531-5.394-11.531-11.284v-16.181c0-1.116,0.867-1.984,1.983-1.984C437.793,394.535,438.724,395.403,438.724,396.519z"
		/>
	<path fill="#E6EBE0" d="M468.545,401.727c0,6.51,16.306,4.092,16.306,14.011c0,5.642-4.65,8.184-10.54,8.184
		c-5.084,0-8.989-2.418-10.602-4.464c-0.31-0.434-0.434-0.744-0.434-1.178c0-0.992,0.806-1.798,1.798-1.798
		c0.372,0,0.868,0.124,1.364,0.62c1.922,1.922,4.401,3.038,7.873,3.038c3.534,0,6.572-1.178,6.572-4.402
		c0-6.386-16.306-3.844-16.306-14.011c0-5.146,4.216-7.501,9.485-7.501c4.216,0,7.502,1.426,9.424,3.968
		c0.186,0.248,0.434,0.62,0.434,1.178c0,0.992-0.806,1.798-1.798,1.798c-0.31,0-0.806-0.062-1.302-0.558
		c-1.674-1.612-3.534-2.604-6.758-2.604C471.273,398.007,468.545,398.875,468.545,401.727z"/>
	<path fill="#E6EBE0" d="M507.047,402.594l-5.704,19.653c-0.248,0.868-1.054,1.426-1.922,1.426c-0.867,0-1.55-0.496-1.859-1.302
		l-9.113-24.984c-0.124-0.31-0.187-0.62-0.187-0.868c0-1.116,0.868-1.984,1.984-1.984c0.868,0,1.55,0.496,1.859,1.302l7.191,20.521
		l5.89-20.521c0.187-0.62,0.807-1.302,1.86-1.302s1.674,0.682,1.86,1.302l5.89,20.521l7.191-20.521
		c0.31-0.806,0.991-1.302,1.859-1.302c1.116,0,1.984,0.868,1.984,1.984c0,0.248-0.062,0.558-0.187,0.868l-9.113,24.984
		c-0.31,0.806-0.992,1.302-1.859,1.302c-0.868,0-1.674-0.558-1.922-1.426L507.047,402.594z"/>
	<path fill="#E6EBE0" d="M533.149,401.044c-0.62,0.682-1.054,0.868-1.611,0.868c-0.992,0-1.798-0.806-1.798-1.798
		c0-0.434,0.124-0.744,0.31-1.054c1.736-2.728,5.084-4.897,10.291-4.897c7.192,0,11.16,4.216,11.16,10.539v17.049
		c0,1.054-0.868,1.922-1.922,1.922c-1.055,0-1.922-0.868-1.922-1.922v-2.232c-1.551,2.914-5.146,4.464-8.866,4.464
		c-6.571,0-10.726-3.162-10.726-8.866c0-5.456,4.154-8.742,10.85-8.742h8.742v-1.674c0-4.216-2.79-6.819-7.316-6.819
		C537.055,397.883,535.071,398.875,533.149,401.044z M547.657,412.452v-2.604h-8.742c-4.029,0-6.819,1.674-6.819,5.27
		c0,3.224,2.231,5.27,7.067,5.27C543.502,420.387,547.657,417.722,547.657,412.452z"/>
	<path fill="#E6EBE0" d="M582.562,405.136v16.553c0,1.116-0.868,1.984-1.983,1.984c-1.116,0-1.984-0.868-1.984-1.984v-15.747
		c0-4.898-1.426-8.246-7.439-8.246c-6.138,0-8.246,3.72-8.246,8.679v15.313c0,1.116-0.867,1.984-1.983,1.984
		s-1.984-0.868-1.984-1.984v-40.67c0-1.116,0.868-1.984,1.984-1.984s1.983,0.868,1.983,1.984v17.483
		c1.179-2.355,4.216-4.339,8.246-4.339C580.703,394.163,582.562,399.867,582.562,405.136z"/>
	<path fill="#E6EBE0" d="M593.97,381.02v35.4c0,2.48,0.807,3.534,2.48,3.534c0.992,0,1.859,0.806,1.859,1.86
		c0,1.054-0.867,1.86-1.859,1.86c-4.154,0-6.448-2.48-6.448-7.254v-35.4c0-1.054,0.931-1.984,1.984-1.984
		C593.103,379.036,593.97,379.966,593.97,381.02z"/>
</g>
</svg>
