<?xml version="1.0" encoding="UTF-8" standalone="no"?>
<!-- Generator: Adobe Illustrator 15.0.0, SVG Export Plug-In . SVG Version: 6.00 Build 0)  -->

<svg
   xmlns:dc="http://purl.org/dc/elements/1.1/"
   xmlns:cc="http://creativecommons.org/ns#"
   xmlns:rdf="http://www.w3.org/1999/02/22-rdf-syntax-ns#"
   xmlns:svg="http://www.w3.org/2000/svg"
   xmlns="http://www.w3.org/2000/svg"
   xmlns:sodipodi="http://sodipodi.sourceforge.net/DTD/sodipodi-0.dtd"
   xmlns:inkscape="http://www.inkscape.org/namespaces/inkscape"
   version="1.1"
   id="Ebene_1"
   x="0px"
   y="0px"
   width="600.24194"
   height="91"
   viewBox="0 0 600.24194 91"
   enable-background="new 0 0 825 825"
   xml:space="preserve"
   sodipodi:docname="zur_naechsten_station.svg"
   inkscape:version="0.92.1 r15371"><metadata
     id="metadata392"><rdf:RDF><cc:Work
         rdf:about=""><dc:format>image/svg+xml</dc:format><dc:type
           rdf:resource="http://purl.org/dc/dcmitype/StillImage" /><dc:title></dc:title></cc:Work></rdf:RDF></metadata><defs
     id="defs390" /><sodipodi:namedview
     pagecolor="#ffffff"
     bordercolor="#666666"
     borderopacity="1"
     objecttolerance="10"
     gridtolerance="10"
     guidetolerance="10"
     inkscape:pageopacity="0"
     inkscape:pageshadow="2"
     inkscape:window-width="640"
     inkscape:window-height="480"
     id="namedview388"
     showgrid="false"
     inkscape:zoom="0.28606061"
     inkscape:cx="290.699"
     inkscape:cy="51.91"
     inkscape:window-x="0"
     inkscape:window-y="0"
     inkscape:window-maximized="0"
     inkscape:current-layer="Ebene_1" /><g
     id="g385"
     transform="translate(-121.801,-373.41)"><path
       stroke-miterlimit="10"
       d="m 124.801,449.084 c 0,6.807 3.862,12.326 8.626,12.326 h 529.99 c 4.764,0 8.626,-5.52 8.626,-12.326 v -60.348 c 0,-6.807 -3.862,-12.326 -8.626,-12.326 h -529.99 c -4.764,0 -8.626,5.52 -8.626,12.326 z"
       id="path343"
       inkscape:connector-curvature="0"
       style="fill:none;stroke:#e6ebe0;stroke-width:6;stroke-miterlimit:10" /><g
       id="g383"><rect
         x="146.646"
         y="393.32101"
         width="575.39697"
         height="60.212002"
         id="rect345"
         style="fill:none" /><path
         d="m 150.862,409.318 h 16.987 c 1.054,0 1.86,0.806 1.86,1.86 0,0.558 -0.248,0.992 -0.434,1.24 l -15.438,21.203 h 14.321 c 1.054,0 1.922,0.868 1.922,1.922 0,1.054 -0.868,1.922 -1.922,1.922 h -18.165 c -1.054,0 -1.86,-0.806 -1.86,-1.86 0,-0.558 0.186,-0.93 0.434,-1.24 l 15.623,-21.327 h -13.329 c -1.054,0 -1.86,-0.806 -1.86,-1.86 0.001,-1.053 0.807,-1.86 1.861,-1.86 z"
         id="path347"
         inkscape:connector-curvature="0"
         style="fill:#e6ebe0" /><path
         d="m 179.133,410.806 v 16.181 c 0,4.03 1.302,7.501 7.563,7.501 6.262,0 7.564,-3.472 7.564,-7.501 v -16.181 c 0,-1.116 0.93,-1.984 2.046,-1.984 1.054,0 1.922,0.868 1.922,1.984 v 16.181 c 0,5.89 -1.922,11.284 -11.532,11.284 -9.547,0 -11.531,-5.394 -11.531,-11.284 v -16.181 c 0,-1.116 0.868,-1.984 1.984,-1.984 1.055,0 1.984,0.868 1.984,1.984 z"
         id="path349"
         inkscape:connector-curvature="0"
         style="fill:#e6ebe0" /><path
         d="m 209.637,413.534 c 1.24,-2.852 4.34,-4.959 8.618,-4.959 1.054,0 1.922,0.868 1.922,1.922 0,1.054 -0.868,1.922 -1.922,1.922 -5.704,0 -8.618,3.968 -8.618,9.671 v 13.887 c 0,1.116 -0.868,1.984 -1.984,1.984 -1.116,0 -1.984,-0.868 -1.984,-1.984 v -25.171 c 0,-1.116 0.868,-1.984 1.984,-1.984 1.116,0 1.984,0.868 1.984,1.984 z"
         id="path351"
         inkscape:connector-curvature="0"
         style="fill:#e6ebe0" /><path
         d="m 263.203,419.424 v 16.553 c 0,1.116 -0.868,1.984 -1.983,1.984 -1.116,0 -1.984,-0.868 -1.984,-1.984 V 420.23 c 0,-4.898 -1.426,-8.246 -7.439,-8.246 -6.138,0 -8.246,3.72 -8.246,8.679 v 15.313 c 0,1.116 -0.868,1.984 -1.984,1.984 -1.116,0 -1.984,-0.868 -1.984,-1.984 v -25.171 c 0,-1.116 0.868,-1.984 1.984,-1.984 1.116,0 1.984,0.868 1.984,1.984 v 1.984 c 1.178,-2.355 4.215,-4.339 8.246,-4.339 9.546,0.001 11.406,5.704 11.406,10.974 z"
         id="path353"
         inkscape:connector-curvature="0"
         style="fill:#e6ebe0" /><path
         d="m 273.805,415.332 c -0.62,0.682 -1.054,0.868 -1.611,0.868 -0.992,0 -1.798,-0.806 -1.798,-1.798 0,-0.434 0.124,-0.744 0.31,-1.054 1.736,-2.728 5.084,-4.897 10.291,-4.897 7.192,0 11.16,4.216 11.16,10.539 v 17.049 c 0,1.054 -0.868,1.922 -1.922,1.922 -1.055,0 -1.922,-0.868 -1.922,-1.922 v -2.232 c -1.551,2.914 -5.146,4.464 -8.866,4.464 -6.571,0 -10.726,-3.162 -10.726,-8.866 0,-5.456 4.154,-8.742 10.85,-8.742 h 8.742 v -1.674 c 0,-4.216 -2.79,-6.819 -7.316,-6.819 -3.286,0 -5.27,0.992 -7.192,3.162 z m 14.508,11.407 v -2.604 h -8.742 c -4.029,0 -6.819,1.674 -6.819,5.27 0,3.224 2.231,5.27 7.067,5.27 4.34,0 8.494,-2.666 8.494,-7.936 z m -13.888,-24.674 c 0,-1.55 0.744,-2.356 2.231,-2.356 1.488,0 2.232,0.806 2.232,2.356 0,1.55 -0.744,2.294 -2.232,2.294 -1.487,0 -2.231,-0.744 -2.231,-2.294 z m 9.734,0 c 0,-1.55 0.744,-2.356 2.232,-2.356 1.487,0 2.231,0.806 2.231,2.356 0,1.55 -0.744,2.294 -2.231,2.294 -1.488,0 -2.232,-0.744 -2.232,-2.294 z"
         id="path355"
         inkscape:connector-curvature="0"
         style="fill:#e6ebe0" /><path
         d="m 310.509,408.451 c 5.518,0 8.556,2.914 9.547,4.277 0.311,0.434 0.435,0.744 0.435,1.178 0,1.054 -0.807,1.798 -1.798,1.798 -0.62,0 -1.055,-0.248 -1.488,-0.744 -0.93,-1.054 -2.604,-2.914 -6.695,-2.914 -5.704,0 -8.742,3.658 -8.742,11.283 0,7.75 3.038,11.345 8.742,11.345 3.596,0 5.766,-1.612 7.191,-2.666 0.434,-0.31 0.744,-0.434 1.178,-0.434 0.992,0 1.798,0.806 1.798,1.798 0,0.558 -0.186,0.992 -0.806,1.55 -1.364,1.116 -4.34,3.348 -9.361,3.348 -7.998,0 -12.771,-4.774 -12.771,-14.941 0,-10.167 4.772,-14.878 12.77,-14.878 z"
         id="path357"
         inkscape:connector-curvature="0"
         style="fill:#e6ebe0" /><path
         d="m 349.94,419.424 v 16.553 c 0,1.116 -0.868,1.984 -1.983,1.984 -1.116,0 -1.984,-0.868 -1.984,-1.984 V 420.23 c 0,-4.898 -1.426,-8.246 -7.439,-8.246 -6.138,0 -8.246,3.72 -8.246,8.679 v 15.313 c 0,1.116 -0.867,1.984 -1.983,1.984 -1.116,0 -1.984,-0.868 -1.984,-1.984 v -40.67 c 0,-1.116 0.868,-1.984 1.984,-1.984 1.116,0 1.983,0.868 1.983,1.984 v 17.483 c 1.179,-2.355 4.216,-4.339 8.246,-4.339 9.546,0.001 11.406,5.704 11.406,10.974 z"
         id="path359"
         inkscape:connector-curvature="0"
         style="fill:#e6ebe0" /><path
         d="m 360.667,416.014 c 0,6.51 16.306,4.092 16.306,14.011 0,5.642 -4.65,8.184 -10.54,8.184 -5.084,0 -8.989,-2.418 -10.602,-4.464 -0.31,-0.434 -0.434,-0.744 -0.434,-1.178 0,-0.992 0.806,-1.798 1.798,-1.798 0.372,0 0.868,0.124 1.364,0.62 1.922,1.922 4.401,3.038 7.873,3.038 3.534,0 6.572,-1.178 6.572,-4.402 0,-6.386 -16.306,-3.844 -16.306,-14.011 0,-5.146 4.216,-7.501 9.485,-7.501 4.216,0 7.502,1.426 9.424,3.968 0.186,0.248 0.434,0.62 0.434,1.178 0,0.992 -0.806,1.798 -1.798,1.798 -0.31,0 -0.806,-0.062 -1.302,-0.558 -1.674,-1.612 -3.534,-2.604 -6.758,-2.604 -2.789,-0.001 -5.516,0.867 -5.516,3.719 z"
         id="path361"
         inkscape:connector-curvature="0"
         style="fill:#e6ebe0" /><path
         d="m 385.219,402.809 c 0,-1.054 0.93,-1.984 1.983,-1.984 1.116,0 1.984,0.93 1.984,1.984 v 6.51 h 4.029 c 1.054,0 1.86,0.806 1.86,1.86 0,1.054 -0.807,1.86 -1.86,1.86 h -4.029 v 17.111 c 0,2.666 1.487,4.092 3.596,4.092 1.054,0 1.922,0.806 1.922,1.86 0,1.054 -0.868,1.86 -1.922,1.86 -4.898,0 -7.563,-3.286 -7.563,-7.812 v -17.111 h -2.418 c -1.055,0 -1.86,-0.806 -1.86,-1.86 0,-1.054 0.806,-1.86 1.86,-1.86 h 2.418 z"
         id="path363"
         inkscape:connector-curvature="0"
         style="fill:#e6ebe0" /><path
         d="m 411.878,408.451 c 9.919,0 11.841,7.874 11.841,12.089 0,1.798 0,3.968 -2.479,3.968 h -18.104 c 0,6.137 3.534,10.105 9.362,10.105 3.596,0 5.703,-1.364 7.439,-2.666 0.372,-0.248 0.62,-0.372 1.115,-0.372 0.992,0 1.798,0.806 1.798,1.798 0,0.682 -0.31,1.054 -0.682,1.426 -0.93,0.93 -4.153,3.472 -9.671,3.472 -8.246,0 -13.392,-4.526 -13.392,-14.941 0.002,-9.548 4.714,-14.879 12.773,-14.879 z m 0,3.595 c -5.394,0 -8.37,3.472 -8.742,8.989 h 16.678 c 0,-4.463 -1.55,-8.989 -7.936,-8.989 z"
         id="path365"
         inkscape:connector-curvature="0"
         style="fill:#e6ebe0" /><path
         d="m 453.479,419.424 v 16.553 c 0,1.116 -0.868,1.984 -1.983,1.984 -1.116,0 -1.984,-0.868 -1.984,-1.984 V 420.23 c 0,-4.898 -1.426,-8.246 -7.439,-8.246 -6.138,0 -8.246,3.72 -8.246,8.679 v 15.313 c 0,1.116 -0.867,1.984 -1.983,1.984 -1.116,0 -1.984,-0.868 -1.984,-1.984 v -25.171 c 0,-1.116 0.868,-1.984 1.984,-1.984 1.116,0 1.983,0.868 1.983,1.984 v 1.984 c 1.179,-2.355 4.216,-4.339 8.246,-4.339 9.546,0.001 11.406,5.704 11.406,10.974 z"
         id="path367"
         inkscape:connector-curvature="0"
         style="fill:#e6ebe0" /><path
         d="m 489.067,398.717 c -6.51,0 -8.989,3.224 -8.989,6.757 0,10.292 23.435,5.89 23.435,20.831 0,7.75 -5.332,12.027 -14.879,12.027 -7.067,0 -12.338,-3.596 -14.445,-7.626 -0.248,-0.496 -0.311,-0.744 -0.311,-1.116 0,-1.116 0.868,-1.984 1.984,-1.984 0.744,0 1.364,0.372 1.735,0.992 1.984,3.224 5.58,5.89 11.036,5.89 6.819,0 10.663,-2.728 10.663,-8.183 0,-11.594 -23.435,-6.138 -23.435,-20.831 0,-5.704 4.153,-10.602 13.205,-10.602 5.89,0 10.663,2.48 13.268,6.386 0.248,0.372 0.372,0.744 0.372,1.178 0,1.116 -0.868,1.984 -1.984,1.984 -0.558,0 -1.116,-0.186 -1.611,-0.806 -1.861,-2.293 -4.836,-4.897 -10.044,-4.897 z"
         id="path369"
         inkscape:connector-curvature="0"
         style="fill:#e6ebe0" /><path
         d="m 511.822,402.809 c 0,-1.054 0.93,-1.984 1.983,-1.984 1.116,0 1.984,0.93 1.984,1.984 v 6.51 h 4.029 c 1.054,0 1.86,0.806 1.86,1.86 0,1.054 -0.807,1.86 -1.86,1.86 h -4.029 v 17.111 c 0,2.666 1.487,4.092 3.596,4.092 1.054,0 1.922,0.806 1.922,1.86 0,1.054 -0.868,1.86 -1.922,1.86 -4.898,0 -7.563,-3.286 -7.563,-7.812 v -17.111 h -2.418 c -1.055,0 -1.86,-0.806 -1.86,-1.86 0,-1.054 0.806,-1.86 1.86,-1.86 h 2.418 z"
         id="path371"
         inkscape:connector-curvature="0"
         style="fill:#e6ebe0" /><path
         d="m 530.731,415.332 c -0.62,0.682 -1.054,0.868 -1.611,0.868 -0.992,0 -1.798,-0.806 -1.798,-1.798 0,-0.434 0.124,-0.744 0.31,-1.054 1.736,-2.728 5.084,-4.897 10.291,-4.897 7.192,0 11.16,4.216 11.16,10.539 v 17.049 c 0,1.054 -0.868,1.922 -1.922,1.922 -1.055,0 -1.922,-0.868 -1.922,-1.922 v -2.232 c -1.551,2.914 -5.146,4.464 -8.866,4.464 -6.571,0 -10.726,-3.162 -10.726,-8.866 0,-5.456 4.154,-8.742 10.85,-8.742 h 8.742 v -1.674 c 0,-4.216 -2.79,-6.819 -7.316,-6.819 -3.286,0 -5.27,0.992 -7.192,3.162 z m 14.508,11.407 v -2.604 h -8.742 c -4.029,0 -6.819,1.674 -6.819,5.27 0,3.224 2.231,5.27 7.067,5.27 4.339,0 8.494,-2.666 8.494,-7.936 z"
         id="path373"
         inkscape:connector-curvature="0"
         style="fill:#e6ebe0" /><path
         d="m 558.074,402.809 c 0,-1.054 0.93,-1.984 1.983,-1.984 1.116,0 1.984,0.93 1.984,1.984 v 6.51 h 4.029 c 1.054,0 1.86,0.806 1.86,1.86 0,1.054 -0.807,1.86 -1.86,1.86 h -4.029 v 17.111 c 0,2.666 1.487,4.092 3.596,4.092 1.054,0 1.922,0.806 1.922,1.86 0,1.054 -0.868,1.86 -1.922,1.86 -4.898,0 -7.563,-3.286 -7.563,-7.812 v -17.111 h -2.418 c -1.055,0 -1.86,-0.806 -1.86,-1.86 0,-1.054 0.806,-1.86 1.86,-1.86 h 2.418 z"
         id="path375"
         inkscape:connector-curvature="0"
         style="fill:#e6ebe0" /><path
         d="m 573.387,400.639 c 0,-1.798 0.868,-2.48 2.356,-2.48 1.487,0 2.355,0.682 2.355,2.48 0,1.488 -0.868,2.355 -2.355,2.355 -1.488,10e-4 -2.356,-0.867 -2.356,-2.355 z m 4.34,35.338 c 0,1.116 -0.868,1.984 -1.983,1.984 -1.116,0 -1.984,-0.868 -1.984,-1.984 v -25.171 c 0,-1.116 0.868,-1.984 1.984,-1.984 1.115,0 1.983,0.868 1.983,1.984 z"
         id="path377"
         inkscape:connector-curvature="0"
         style="fill:#e6ebe0" /><path
         d="m 609.965,423.33 c 0,10.167 -4.959,14.941 -13.019,14.941 -7.998,0 -13.02,-4.774 -13.02,-14.941 0,-10.167 5.021,-14.879 13.02,-14.879 8.06,0 13.019,4.711 13.019,14.879 z m -4.029,0 c 0,-7.812 -3.286,-11.283 -8.989,-11.283 -5.704,0 -8.99,3.472 -8.99,11.283 0,7.936 3.286,11.345 8.99,11.345 5.703,0 8.989,-3.41 8.989,-11.345 z"
         id="path379"
         inkscape:connector-curvature="0"
         style="fill:#e6ebe0" /><path
         d="m 639.788,419.424 v 16.553 c 0,1.116 -0.868,1.984 -1.983,1.984 -1.116,0 -1.984,-0.868 -1.984,-1.984 V 420.23 c 0,-4.898 -1.426,-8.246 -7.439,-8.246 -6.138,0 -8.246,3.72 -8.246,8.679 v 15.313 c 0,1.116 -0.867,1.984 -1.983,1.984 -1.116,0 -1.984,-0.868 -1.984,-1.984 v -25.171 c 0,-1.116 0.868,-1.984 1.984,-1.984 1.116,0 1.983,0.868 1.983,1.984 v 1.984 c 1.179,-2.355 4.216,-4.339 8.246,-4.339 9.545,0.001 11.406,5.704 11.406,10.974 z"
         id="path381"
         inkscape:connector-curvature="0"
         style="fill:#e6ebe0" /></g></g></svg>