<?xml version="1.0" encoding="utf-8"?>
<!-- Generator: Adobe Illustrator 15.0.0, SVG Export Plug-In . SVG Version: 6.00 Build 0)  -->
<!DOCTYPE svg PUBLIC "-//W3C//DTD SVG 1.1//EN" "http://www.w3.org/Graphics/SVG/1.1/DTD/svg11.dtd">
<svg version="1.1" id="Ebene_1" xmlns="http://www.w3.org/2000/svg" xmlns:xlink="http://www.w3.org/1999/xlink" x="0px" y="0px"
	 width="825px" height="825px" viewBox="0 0 825 825" enable-background="new 0 0 825 825" xml:space="preserve">
<g>
	<path fill="none" stroke="#E6EBE0" stroke-width="6" stroke-miterlimit="10" d="M124.801,449.084
		c0,6.807,3.862,12.326,8.626,12.326h529.99c4.764,0,8.626-5.52,8.626-12.326v-60.348c0-6.807-3.862-12.326-8.626-12.326h-529.99
		c-4.764,0-8.626,5.52-8.626,12.326V449.084z"/>
	<g>
		<rect x="146.646" y="393.321" fill="none" width="575.397" height="60.212"/>
		<path fill="#E6EBE0" d="M150.862,409.318h16.987c1.054,0,1.86,0.806,1.86,1.86c0,0.558-0.248,0.992-0.434,1.24l-15.438,21.203
			h14.321c1.054,0,1.922,0.868,1.922,1.922c0,1.054-0.868,1.922-1.922,1.922h-18.165c-1.054,0-1.86-0.806-1.86-1.86
			c0-0.558,0.186-0.93,0.434-1.24l15.623-21.327h-13.329c-1.054,0-1.86-0.806-1.86-1.86
			C149.002,410.125,149.808,409.318,150.862,409.318z"/>
		<path fill="#E6EBE0" d="M179.133,410.806v16.181c0,4.03,1.302,7.501,7.563,7.501c6.262,0,7.564-3.472,7.564-7.501v-16.181
			c0-1.116,0.93-1.984,2.046-1.984c1.054,0,1.922,0.868,1.922,1.984v16.181c0,5.89-1.922,11.284-11.532,11.284
			c-9.547,0-11.531-5.394-11.531-11.284v-16.181c0-1.116,0.868-1.984,1.984-1.984C178.204,408.822,179.133,409.69,179.133,410.806z"
			/>
		<path fill="#E6EBE0" d="M209.637,413.534c1.24-2.852,4.34-4.959,8.618-4.959c1.054,0,1.922,0.868,1.922,1.922
			c0,1.054-0.868,1.922-1.922,1.922c-5.704,0-8.618,3.968-8.618,9.671v13.887c0,1.116-0.868,1.984-1.984,1.984
			s-1.984-0.868-1.984-1.984v-25.171c0-1.116,0.868-1.984,1.984-1.984s1.984,0.868,1.984,1.984V413.534z"/>
		<path fill="#E6EBE0" d="M263.203,419.424v16.553c0,1.116-0.868,1.984-1.983,1.984c-1.116,0-1.984-0.868-1.984-1.984V420.23
			c0-4.898-1.426-8.246-7.439-8.246c-6.138,0-8.246,3.72-8.246,8.679v15.313c0,1.116-0.868,1.984-1.984,1.984
			s-1.984-0.868-1.984-1.984v-25.171c0-1.116,0.868-1.984,1.984-1.984s1.984,0.868,1.984,1.984v1.984
			c1.178-2.355,4.215-4.339,8.246-4.339C261.343,408.451,263.203,414.154,263.203,419.424z"/>
		<path fill="#E6EBE0" d="M273.805,415.332c-0.62,0.682-1.054,0.868-1.611,0.868c-0.992,0-1.798-0.806-1.798-1.798
			c0-0.434,0.124-0.744,0.31-1.054c1.736-2.728,5.084-4.897,10.291-4.897c7.192,0,11.16,4.216,11.16,10.539v17.049
			c0,1.054-0.868,1.922-1.922,1.922c-1.055,0-1.922-0.868-1.922-1.922v-2.232c-1.551,2.914-5.146,4.464-8.866,4.464
			c-6.571,0-10.726-3.162-10.726-8.866c0-5.456,4.154-8.742,10.85-8.742h8.742v-1.674c0-4.216-2.79-6.819-7.316-6.819
			C277.711,412.17,275.727,413.162,273.805,415.332z M288.313,426.739v-2.604h-8.742c-4.029,0-6.819,1.674-6.819,5.27
			c0,3.224,2.231,5.27,7.067,5.27C284.159,434.675,288.313,432.009,288.313,426.739z M274.425,402.065
			c0-1.55,0.744-2.356,2.231-2.356c1.488,0,2.232,0.806,2.232,2.356s-0.744,2.294-2.232,2.294
			C275.169,404.359,274.425,403.615,274.425,402.065z M284.159,402.065c0-1.55,0.744-2.356,2.232-2.356
			c1.487,0,2.231,0.806,2.231,2.356s-0.744,2.294-2.231,2.294C284.903,404.359,284.159,403.615,284.159,402.065z"/>
		<path fill="#E6EBE0" d="M310.509,408.451c5.518,0,8.556,2.914,9.547,4.277c0.311,0.434,0.435,0.744,0.435,1.178
			c0,1.054-0.807,1.798-1.798,1.798c-0.62,0-1.055-0.248-1.488-0.744c-0.93-1.054-2.604-2.914-6.695-2.914
			c-5.704,0-8.742,3.658-8.742,11.283c0,7.75,3.038,11.345,8.742,11.345c3.596,0,5.766-1.612,7.191-2.666
			c0.434-0.31,0.744-0.434,1.178-0.434c0.992,0,1.798,0.806,1.798,1.798c0,0.558-0.186,0.992-0.806,1.55
			c-1.364,1.116-4.34,3.348-9.361,3.348c-7.998,0-12.771-4.774-12.771-14.941S302.511,408.451,310.509,408.451z"/>
		<path fill="#E6EBE0" d="M349.94,419.424v16.553c0,1.116-0.868,1.984-1.983,1.984c-1.116,0-1.984-0.868-1.984-1.984V420.23
			c0-4.898-1.426-8.246-7.439-8.246c-6.138,0-8.246,3.72-8.246,8.679v15.313c0,1.116-0.867,1.984-1.983,1.984
			s-1.984-0.868-1.984-1.984v-40.67c0-1.116,0.868-1.984,1.984-1.984s1.983,0.868,1.983,1.984v17.483
			c1.179-2.355,4.216-4.339,8.246-4.339C348.08,408.451,349.94,414.154,349.94,419.424z"/>
		<path fill="#E6EBE0" d="M360.667,416.014c0,6.51,16.306,4.092,16.306,14.011c0,5.642-4.65,8.184-10.54,8.184
			c-5.084,0-8.989-2.418-10.602-4.464c-0.31-0.434-0.434-0.744-0.434-1.178c0-0.992,0.806-1.798,1.798-1.798
			c0.372,0,0.868,0.124,1.364,0.62c1.922,1.922,4.401,3.038,7.873,3.038c3.534,0,6.572-1.178,6.572-4.402
			c0-6.386-16.306-3.844-16.306-14.011c0-5.146,4.216-7.501,9.485-7.501c4.216,0,7.502,1.426,9.424,3.968
			c0.186,0.248,0.434,0.62,0.434,1.178c0,0.992-0.806,1.798-1.798,1.798c-0.31,0-0.806-0.062-1.302-0.558
			c-1.674-1.612-3.534-2.604-6.758-2.604C363.394,412.294,360.667,413.162,360.667,416.014z"/>
		<path fill="#E6EBE0" d="M385.219,402.809c0-1.054,0.93-1.984,1.983-1.984c1.116,0,1.984,0.93,1.984,1.984v6.51h4.029
			c1.054,0,1.86,0.806,1.86,1.86c0,1.054-0.807,1.86-1.86,1.86h-4.029v17.111c0,2.666,1.487,4.092,3.596,4.092
			c1.054,0,1.922,0.806,1.922,1.86c0,1.054-0.868,1.86-1.922,1.86c-4.898,0-7.563-3.286-7.563-7.812v-17.111h-2.418
			c-1.055,0-1.86-0.806-1.86-1.86c0-1.054,0.806-1.86,1.86-1.86h2.418V402.809z"/>
		<path fill="#E6EBE0" d="M411.878,408.451c9.919,0,11.841,7.874,11.841,12.089c0,1.798,0,3.968-2.479,3.968h-18.104
			c0,6.137,3.534,10.105,9.362,10.105c3.596,0,5.703-1.364,7.439-2.666c0.372-0.248,0.62-0.372,1.115-0.372
			c0.992,0,1.798,0.806,1.798,1.798c0,0.682-0.31,1.054-0.682,1.426c-0.93,0.93-4.153,3.472-9.671,3.472
			c-8.246,0-13.392-4.526-13.392-14.941C399.107,413.782,403.819,408.451,411.878,408.451z M411.878,412.046
			c-5.394,0-8.37,3.472-8.742,8.989h16.678C419.814,416.572,418.264,412.046,411.878,412.046z"/>
		<path fill="#E6EBE0" d="M453.479,419.424v16.553c0,1.116-0.868,1.984-1.983,1.984c-1.116,0-1.984-0.868-1.984-1.984V420.23
			c0-4.898-1.426-8.246-7.439-8.246c-6.138,0-8.246,3.72-8.246,8.679v15.313c0,1.116-0.867,1.984-1.983,1.984
			s-1.984-0.868-1.984-1.984v-25.171c0-1.116,0.868-1.984,1.984-1.984s1.983,0.868,1.983,1.984v1.984
			c1.179-2.355,4.216-4.339,8.246-4.339C451.619,408.451,453.479,414.154,453.479,419.424z"/>
		<path fill="#E6EBE0" d="M489.067,398.717c-6.51,0-8.989,3.224-8.989,6.757c0,10.292,23.435,5.89,23.435,20.831
			c0,7.75-5.332,12.027-14.879,12.027c-7.067,0-12.338-3.596-14.445-7.626c-0.248-0.496-0.311-0.744-0.311-1.116
			c0-1.116,0.868-1.984,1.984-1.984c0.744,0,1.364,0.372,1.735,0.992c1.984,3.224,5.58,5.89,11.036,5.89
			c6.819,0,10.663-2.728,10.663-8.183c0-11.594-23.435-6.138-23.435-20.831c0-5.704,4.153-10.602,13.205-10.602
			c5.89,0,10.663,2.48,13.268,6.386c0.248,0.372,0.372,0.744,0.372,1.178c0,1.116-0.868,1.984-1.984,1.984
			c-0.558,0-1.116-0.186-1.611-0.806C497.25,401.321,494.275,398.717,489.067,398.717z"/>
		<path fill="#E6EBE0" d="M511.822,402.809c0-1.054,0.93-1.984,1.983-1.984c1.116,0,1.984,0.93,1.984,1.984v6.51h4.029
			c1.054,0,1.86,0.806,1.86,1.86c0,1.054-0.807,1.86-1.86,1.86h-4.029v17.111c0,2.666,1.487,4.092,3.596,4.092
			c1.054,0,1.922,0.806,1.922,1.86c0,1.054-0.868,1.86-1.922,1.86c-4.898,0-7.563-3.286-7.563-7.812v-17.111h-2.418
			c-1.055,0-1.86-0.806-1.86-1.86c0-1.054,0.806-1.86,1.86-1.86h2.418V402.809z"/>
		<path fill="#E6EBE0" d="M530.731,415.332c-0.62,0.682-1.054,0.868-1.611,0.868c-0.992,0-1.798-0.806-1.798-1.798
			c0-0.434,0.124-0.744,0.31-1.054c1.736-2.728,5.084-4.897,10.291-4.897c7.192,0,11.16,4.216,11.16,10.539v17.049
			c0,1.054-0.868,1.922-1.922,1.922c-1.055,0-1.922-0.868-1.922-1.922v-2.232c-1.551,2.914-5.146,4.464-8.866,4.464
			c-6.571,0-10.726-3.162-10.726-8.866c0-5.456,4.154-8.742,10.85-8.742h8.742v-1.674c0-4.216-2.79-6.819-7.316-6.819
			C534.637,412.17,532.653,413.162,530.731,415.332z M545.239,426.739v-2.604h-8.742c-4.029,0-6.819,1.674-6.819,5.27
			c0,3.224,2.231,5.27,7.067,5.27C541.084,434.675,545.239,432.009,545.239,426.739z"/>
		<path fill="#E6EBE0" d="M558.074,402.809c0-1.054,0.93-1.984,1.983-1.984c1.116,0,1.984,0.93,1.984,1.984v6.51h4.029
			c1.054,0,1.86,0.806,1.86,1.86c0,1.054-0.807,1.86-1.86,1.86h-4.029v17.111c0,2.666,1.487,4.092,3.596,4.092
			c1.054,0,1.922,0.806,1.922,1.86c0,1.054-0.868,1.86-1.922,1.86c-4.898,0-7.563-3.286-7.563-7.812v-17.111h-2.418
			c-1.055,0-1.86-0.806-1.86-1.86c0-1.054,0.806-1.86,1.86-1.86h2.418V402.809z"/>
		<path fill="#E6EBE0" d="M573.387,400.639c0-1.798,0.868-2.48,2.356-2.48c1.487,0,2.355,0.682,2.355,2.48
			c0,1.488-0.868,2.355-2.355,2.355C574.255,402.995,573.387,402.127,573.387,400.639z M577.727,435.977
			c0,1.116-0.868,1.984-1.983,1.984c-1.116,0-1.984-0.868-1.984-1.984v-25.171c0-1.116,0.868-1.984,1.984-1.984
			c1.115,0,1.983,0.868,1.983,1.984V435.977z"/>
		<path fill="#E6EBE0" d="M609.965,423.33c0,10.167-4.959,14.941-13.019,14.941c-7.998,0-13.02-4.774-13.02-14.941
			s5.021-14.879,13.02-14.879C605.006,408.451,609.965,413.162,609.965,423.33z M605.936,423.33c0-7.812-3.286-11.283-8.989-11.283
			c-5.704,0-8.99,3.472-8.99,11.283c0,7.936,3.286,11.345,8.99,11.345C602.65,434.675,605.936,431.265,605.936,423.33z"/>
		<path fill="#E6EBE0" d="M639.788,419.424v16.553c0,1.116-0.868,1.984-1.983,1.984c-1.116,0-1.984-0.868-1.984-1.984V420.23
			c0-4.898-1.426-8.246-7.439-8.246c-6.138,0-8.246,3.72-8.246,8.679v15.313c0,1.116-0.867,1.984-1.983,1.984
			s-1.984-0.868-1.984-1.984v-25.171c0-1.116,0.868-1.984,1.984-1.984s1.983,0.868,1.983,1.984v1.984
			c1.179-2.355,4.216-4.339,8.246-4.339C637.927,408.451,639.788,414.154,639.788,419.424z"/>
	</g>
</g>
</svg>
